<svg width="299" height="144" viewBox="0 0 299 144" fill="none" xmlns="http://www.w3.org/2000/svg">
<path d="M289.771 5.91563L11.8732 0.456845C7.12152 0.363507 3.19387 4.13983 3.10053 8.8915L0.73449 129.343C0.641153 134.094 4.41748 138.022 9.16915 138.115L287.067 143.574C291.819 143.668 295.747 139.891 295.84 135.14L298.206 14.6883C298.299 9.93663 294.523 6.00897 289.771 5.91563Z" fill="#555555"/>
<path d="M289.763 6.34639L11.8649 0.887603C7.3508 0.798933 3.61952 4.38644 3.53085 8.90053L1.16482 129.352C1.07615 133.866 4.66365 137.597 9.17774 137.686L287.076 143.145C291.59 143.233 295.321 139.646 295.41 135.132L297.776 14.6804C297.865 10.1663 294.277 6.43506 289.763 6.34639Z" stroke="#707070" stroke-width="0.860532"/>
<g opacity="0.33">
<g opacity="0.33">
<path opacity="0.02" d="M258.388 58.1575C256.67 58.1238 255.243 59.8298 255.201 61.9681C255.159 64.1063 256.518 65.8671 258.235 65.9008C259.953 65.9346 261.38 64.2285 261.422 62.0903C261.464 59.952 260.105 58.1913 258.388 58.1575Z" fill="#7C7B7B"/>
<path opacity="0.05" d="M265.386 58.2947C263.668 58.261 262.241 59.967 262.199 62.1053C262.157 64.2435 263.516 66.0043 265.234 66.038C266.951 66.0718 268.378 64.3657 268.42 62.2275C268.462 60.0892 267.103 58.3285 265.386 58.2947Z" fill="#7C7B7B"/>
<path opacity="0.1" d="M272.384 58.4324C270.666 58.3987 269.239 60.1047 269.197 62.243C269.155 64.3812 270.514 66.142 272.232 66.1757C273.949 66.2095 275.376 64.5034 275.418 62.3652C275.46 60.2269 274.101 58.4662 272.384 58.4324Z" fill="#7C7B7B"/>
<path opacity="0.2" d="M279.38 58.5699C277.662 58.5361 276.235 60.2422 276.193 62.3804C276.151 64.5187 277.51 66.2794 279.228 66.3132C280.945 66.3469 282.372 64.6409 282.414 62.5026C282.456 60.3644 281.097 58.6036 279.38 58.5699Z" fill="#7C7B7B"/>
<path opacity="0.4" d="M286.376 58.7073C284.658 58.6736 283.232 60.3796 283.19 62.5179C283.148 64.6561 284.506 66.4169 286.224 66.4506C287.941 66.4844 289.368 64.7783 289.41 62.6401C289.452 60.5018 288.094 58.7411 286.376 58.7073Z" fill="#7C7B7B"/>
<path opacity="0.6" d="M293.374 58.8443C291.656 58.8106 290.23 60.5166 290.188 62.6548C290.146 64.7931 291.504 66.5538 293.222 66.5876C294.94 66.6213 296.366 64.9153 296.408 62.777C296.45 60.6388 295.092 58.878 293.374 58.8443Z" fill="#7C7B7B"/>
</g>
<g opacity="0.33">
<path opacity="0.05" d="M258.556 49.5538C256.838 49.52 255.411 51.2261 255.369 53.3643C255.327 55.5026 256.686 57.2633 258.403 57.2971C260.121 57.3308 261.548 55.6248 261.59 53.4865C261.632 51.3483 260.273 49.5875 258.556 49.5538Z" fill="#7C7B7B"/>
<path opacity="0.1" d="M265.554 49.691C263.836 49.6572 262.409 51.3633 262.367 53.5015C262.325 55.6398 263.684 57.4005 265.401 57.4343C267.119 57.468 268.546 55.762 268.588 53.6237C268.63 51.4855 267.271 49.7247 265.554 49.691Z" fill="#7C7B7B"/>
<path opacity="0.2" d="M272.552 49.8284C270.834 49.7947 269.407 51.5007 269.365 53.639C269.323 55.7772 270.682 57.538 272.4 57.5717C274.117 57.6055 275.544 55.8994 275.586 53.7612C275.628 51.6229 274.269 49.8622 272.552 49.8284Z" fill="#7C7B7B"/>
<path opacity="0.4" d="M279.548 49.9659C277.83 49.9321 276.403 51.6382 276.361 53.7764C276.319 55.9147 277.678 57.6754 279.396 57.7092C281.113 57.7429 282.54 56.0369 282.582 53.8986C282.624 51.7604 281.265 49.9996 279.548 49.9659Z" fill="#7C7B7B"/>
<path opacity="0.6" d="M286.544 50.1036C284.826 50.0698 283.4 51.7759 283.358 53.9141C283.316 56.0524 284.674 57.8131 286.392 57.8469C288.109 57.8806 289.536 56.1746 289.578 54.0363C289.62 51.8981 288.262 50.1373 286.544 50.1036Z" fill="#7C7B7B"/>
<path opacity="0.8" d="M293.542 50.24C291.824 50.2063 290.398 51.9123 290.356 54.0506C290.314 56.1888 291.672 57.9496 293.39 57.9833C295.108 58.0171 296.534 56.311 296.576 54.1728C296.618 52.0345 295.26 50.2738 293.542 50.24Z" fill="#7C7B7B"/>
</g>
<g opacity="0.33">
<path opacity="0.1" d="M258.725 40.9505C257.008 40.9168 255.581 42.6228 255.539 44.761C255.497 46.8993 256.856 48.66 258.573 48.6938C260.291 48.7275 261.718 47.0215 261.76 44.8832C261.802 42.745 260.443 40.9842 258.725 40.9505Z" fill="#7C7B7B"/>
<path opacity="0.2" d="M265.724 41.0877C264.006 41.054 262.579 42.76 262.537 44.8983C262.495 47.0365 263.854 48.7973 265.571 48.831C267.289 48.8647 268.716 47.1587 268.758 45.0204C268.8 42.8822 267.441 41.1214 265.724 41.0877Z" fill="#7C7B7B"/>
<path opacity="0.4" d="M272.722 41.2254C271.004 41.1917 269.577 42.8977 269.535 45.0359C269.493 47.1742 270.852 48.9349 272.569 48.9687C274.287 49.0024 275.714 47.2964 275.756 45.1581C275.798 43.0199 274.439 41.2591 272.722 41.2254Z" fill="#7C7B7B"/>
<path opacity="0.6" d="M279.718 41.3628C278 41.3291 276.573 43.0351 276.531 45.1734C276.489 47.3117 277.848 49.0724 279.566 49.1061C281.283 49.1399 282.71 47.4338 282.752 45.2956C282.794 43.1573 281.435 41.3966 279.718 41.3628Z" fill="#7C7B7B"/>
<path opacity="0.8" d="M286.714 41.5003C284.996 41.4666 283.569 43.1726 283.527 45.3109C283.485 47.4491 284.844 49.2099 286.562 49.2436C288.279 49.2773 289.706 47.5713 289.748 45.433C289.79 43.2948 288.431 41.534 286.714 41.5003Z" fill="#7C7B7B"/>
<path opacity="0.9" d="M293.712 41.6368C291.994 41.603 290.568 43.3091 290.526 45.4473C290.484 47.5856 291.842 49.3463 293.56 49.3801C295.277 49.4138 296.704 47.7078 296.746 45.5695C296.788 43.4313 295.43 41.6705 293.712 41.6368Z" fill="#7C7B7B"/>
</g>
<g opacity="0.33">
<path opacity="0.2" d="M258.893 32.3467C257.176 32.313 255.749 34.019 255.707 36.1573C255.665 38.2955 257.024 40.0563 258.741 40.09C260.459 40.1238 261.886 38.4177 261.928 36.2795C261.97 34.1412 260.611 32.3805 258.893 32.3467Z" fill="#7C7B7B"/>
<path opacity="0.4" d="M265.891 32.4842C264.174 32.4504 262.747 34.1565 262.705 36.2947C262.663 38.433 264.022 40.1937 265.739 40.2275C267.457 40.2612 268.884 38.5552 268.926 36.4169C268.968 34.2787 267.609 32.5179 265.891 32.4842Z" fill="#7C7B7B"/>
<path opacity="0.6" d="M272.89 32.6216C271.172 32.5879 269.745 34.2939 269.703 36.4322C269.661 38.5704 271.02 40.3312 272.737 40.3649C274.455 40.3987 275.882 38.6926 275.924 36.5544C275.966 34.4161 274.607 32.6554 272.89 32.6216Z" fill="#7C7B7B"/>
<path opacity="0.8" d="M279.886 32.7591C278.168 32.7253 276.741 34.4314 276.699 36.5696C276.657 38.7079 278.016 40.4686 279.734 40.5024C281.451 40.5361 282.878 38.8301 282.92 36.6918C282.962 34.5536 281.603 32.7928 279.886 32.7591Z" fill="#7C7B7B"/>
<path opacity="0.9" d="M286.882 32.8965C285.164 32.8628 283.737 34.5688 283.695 36.7071C283.653 38.8453 285.012 40.6061 286.73 40.6398C288.447 40.6736 289.874 38.9675 289.916 36.8293C289.958 34.691 288.599 32.9303 286.882 32.8965Z" fill="#7C7B7B"/>
<path opacity="0.95" d="M293.88 33.0337C292.162 33 290.735 34.706 290.693 36.8443C290.651 38.9826 292.01 40.7433 293.728 40.777C295.445 40.8108 296.872 39.1047 296.914 36.9665C296.956 34.8282 295.597 33.0675 293.88 33.0337Z" fill="#7C7B7B"/>
</g>
<g opacity="0.33">
<path opacity="0.4" d="M259.063 23.7427C257.346 23.709 255.919 25.415 255.877 27.5533C255.835 29.6915 257.194 31.4523 258.911 31.486C260.629 31.5198 262.056 29.8137 262.098 27.6755C262.14 25.5372 260.781 23.7765 259.063 23.7427Z" fill="#7C7B7B"/>
<path opacity="0.6" d="M266.061 23.8802C264.344 23.8464 262.917 25.5525 262.875 27.6907C262.833 29.829 264.192 31.5897 265.909 31.6235C267.627 31.6572 269.054 29.9512 269.096 27.8129C269.138 25.6747 267.779 23.9139 266.061 23.8802Z" fill="#7C7B7B"/>
<path opacity="0.8" d="M273.059 24.0176C271.342 23.9839 269.915 25.6899 269.873 27.8282C269.831 29.9664 271.19 31.7272 272.907 31.7609C274.625 31.7947 276.052 30.0886 276.094 27.9504C276.136 25.8121 274.777 24.0514 273.059 24.0176Z" fill="#7C7B7B"/>
<path opacity="0.9" d="M280.056 24.1551C278.338 24.1213 276.911 25.8274 276.869 27.9656C276.827 30.1039 278.186 31.8646 279.903 31.8984C281.621 31.9321 283.048 30.2261 283.09 28.0878C283.132 25.9496 281.773 24.1888 280.056 24.1551Z" fill="#7C7B7B"/>
<path opacity="0.95" d="M287.052 24.2925C285.334 24.2588 283.907 25.9648 283.865 28.1031C283.823 30.2413 285.182 32.0021 286.9 32.0358C288.617 32.0696 290.044 30.3635 290.086 28.2253C290.128 26.087 288.769 24.3263 287.052 24.2925Z" fill="#7C7B7B"/>
<path opacity="0.33" d="M294.05 24.43C292.332 24.3962 290.905 26.1023 290.863 28.2405C290.821 30.3788 292.18 32.1395 293.898 32.1733C295.615 32.207 297.042 30.501 297.084 28.3627C297.126 26.2245 295.767 24.4637 294.05 24.43Z" fill="#7C7B7B"/>
</g>
<g opacity="0.33">
<path opacity="0.6" d="M259.231 15.1392C257.514 15.1055 256.087 16.8115 256.045 18.9498C256.003 21.088 257.362 22.8488 259.079 22.8825C260.797 22.9163 262.224 21.2102 262.266 19.072C262.308 16.9337 260.949 15.173 259.231 15.1392Z" fill="#7C7B7B"/>
<path opacity="0.8" d="M266.229 15.2767C264.512 15.2429 263.085 16.949 263.043 19.0872C263.001 21.2255 264.36 22.9862 266.077 23.02C267.795 23.0537 269.222 21.3477 269.264 19.2094C269.306 17.0712 267.947 15.3104 266.229 15.2767Z" fill="#7C7B7B"/>
<path opacity="0.9" d="M273.227 15.4141C271.51 15.3804 270.083 17.0864 270.041 19.2247C269.999 21.3629 271.358 23.1237 273.075 23.1574C274.793 23.1912 276.22 21.4851 276.262 19.3469C276.304 17.2086 274.945 15.4479 273.227 15.4141Z" fill="#7C7B7B"/>
<path opacity="0.95" d="M280.224 15.5516C278.506 15.5178 277.079 17.2239 277.037 19.3621C276.995 21.5004 278.354 23.2611 280.071 23.2949C281.789 23.3286 283.216 21.6226 283.258 19.4843C283.3 17.3461 281.941 15.5853 280.224 15.5516Z" fill="#7C7B7B"/>
<path opacity="0.33" d="M287.22 15.689C285.502 15.6553 284.075 17.3613 284.033 19.4996C283.991 21.6378 285.35 23.3986 287.068 23.4323C288.785 23.4661 290.212 21.76 290.254 19.6218C290.296 17.4835 288.937 15.7228 287.22 15.689Z" fill="#7C7B7B"/>
<path opacity="0.33" d="M294.218 15.8255C292.5 15.7918 291.073 17.4978 291.031 19.636C290.989 21.7743 292.348 23.535 294.066 23.5688C295.783 23.6025 297.21 21.8965 297.252 19.7582C297.294 17.62 295.935 15.8592 294.218 15.8255Z" fill="#7C7B7B"/>
</g>
<g opacity="0.33">
<path opacity="0.8" d="M259.401 6.53521C257.684 6.50147 256.257 8.20751 256.215 10.3458C256.173 12.484 257.531 14.2448 259.249 14.2785C260.967 14.3122 262.393 12.6062 262.435 10.468C262.477 8.3297 261.119 6.56895 259.401 6.53521Z" fill="#7C7B7B"/>
<path opacity="0.9" d="M266.399 6.67266C264.682 6.63892 263.255 8.34496 263.213 10.4832C263.171 12.6215 264.529 14.3822 266.247 14.416C267.965 14.4497 269.391 12.7437 269.433 10.6054C269.475 8.46715 268.117 6.7064 266.399 6.67266Z" fill="#7C7B7B"/>
<path opacity="0.95" d="M273.397 6.81011C271.68 6.77637 270.253 8.48241 270.211 10.6207C270.169 12.7589 271.528 14.5197 273.245 14.5534C274.963 14.5871 276.39 12.8811 276.432 10.7429C276.474 8.6046 275.115 6.84386 273.397 6.81011Z" fill="#7C7B7B"/>
<path opacity="0.33" d="M280.393 6.94756C278.676 6.91382 277.249 8.61987 277.207 10.7581C277.165 12.8964 278.524 14.6571 280.241 14.6909C281.959 14.7246 283.386 13.0186 283.428 10.8803C283.47 8.74205 282.111 6.98131 280.393 6.94756Z" fill="#7C7B7B"/>
<path opacity="0.33" d="M287.39 7.08502C285.672 7.05127 284.245 8.75732 284.203 10.8956C284.161 13.0338 285.52 14.7946 287.237 14.8283C288.955 14.8621 290.382 13.156 290.424 11.0178C290.466 8.87951 289.107 7.11876 287.39 7.08502Z" fill="#7C7B7B"/>
<path opacity="0.33" d="M294.388 7.22247C292.67 7.18873 291.243 8.89477 291.201 11.033C291.159 13.1713 292.518 14.932 294.235 14.9658C295.953 14.9995 297.38 13.2935 297.422 11.1552C297.464 9.01696 296.105 7.25621 294.388 7.22247Z" fill="#7C7B7B"/>
</g>
</g>
<g opacity="0.19">
<g opacity="0.19">
<path opacity="0.02" d="M43.891 79.4098C41.9903 79.3725 40.4193 80.883 40.3819 82.7837C40.3446 84.6844 41.8551 86.2554 43.7558 86.2928C45.6565 86.3301 47.2275 84.8196 47.2649 82.9189C47.3022 81.0182 45.7917 79.4472 43.891 79.4098Z" fill="#7C7B7B"/>
<path opacity="0.05" d="M36.1488 79.2582C34.2481 79.2209 32.6771 80.7314 32.6398 82.6321C32.6024 84.5327 34.1129 86.1038 36.0136 86.1411C37.9143 86.1785 39.4853 84.6679 39.5227 82.7673C39.56 80.8666 38.0495 79.2955 36.1488 79.2582Z" fill="#7C7B7B"/>
<path opacity="0.1" d="M28.4047 79.1059C26.504 79.0685 24.9329 80.5791 24.8956 82.4797C24.8583 84.3804 26.3688 85.9515 28.2695 85.9888C30.1701 86.0261 31.7412 84.5156 31.7785 82.6149C31.8159 80.7143 30.3053 79.1432 28.4047 79.1059Z" fill="#7C7B7B"/>
<path opacity="0.2" d="M20.6605 78.954C18.7599 78.9167 17.1888 80.4272 17.1515 82.3279C17.1141 84.2285 18.6247 85.7996 20.5253 85.8369C22.426 85.8743 23.9971 84.3637 24.0344 82.4631C24.0717 80.5624 22.5612 78.9913 20.6605 78.954Z" fill="#7C7B7B"/>
<path opacity="0.4" d="M12.9183 78.8019C11.0177 78.7646 9.44662 80.2751 9.40928 82.1758C9.37195 84.0764 10.8825 85.6475 12.7831 85.6848C14.6838 85.7222 16.2549 84.2116 16.2922 82.311C16.3295 80.4103 14.819 78.8392 12.9183 78.8019Z" fill="#7C7B7B"/>
<path opacity="0.6" d="M5.17421 78.6498C3.27354 78.6125 1.70248 80.123 1.66514 82.0237C1.62781 83.9243 3.13834 85.4954 5.039 85.5327C6.93967 85.5701 8.51073 84.0595 8.54807 82.1589C8.5854 80.2582 7.07488 78.6871 5.17421 78.6498Z" fill="#7C7B7B"/>
</g>
<g opacity="0.19">
<path opacity="0.05" d="M43.7113 88.4933C41.8106 88.456 40.2396 89.9665 40.2023 91.8672C40.1649 93.7678 41.6754 95.3389 43.5761 95.3762C45.4768 95.4136 47.0478 93.9031 47.0852 92.0024C47.1225 90.1017 45.612 88.5307 43.7113 88.4933Z" fill="#7C7B7B"/>
<path opacity="0.1" d="M35.9691 88.3417C34.0685 88.3044 32.4974 89.8149 32.4601 91.7156C32.4227 93.6162 33.9333 95.1873 35.8339 95.2246C37.7346 95.262 39.3057 93.7514 39.343 91.8508C39.3803 89.9501 37.8698 88.379 35.9691 88.3417Z" fill="#7C7B7B"/>
<path opacity="0.2" d="M28.225 88.1894C26.3243 88.152 24.7533 89.6626 24.7159 91.5632C24.6786 93.4639 26.1891 95.035 28.0898 95.0723C29.9905 95.1096 31.5615 93.5991 31.5989 91.6984C31.6362 89.7978 30.1257 88.2267 28.225 88.1894Z" fill="#7C7B7B"/>
<path opacity="0.4" d="M20.4808 88.0375C18.5802 88.0002 17.0091 89.5107 16.9718 91.4114C16.9344 93.312 18.445 94.8831 20.3456 94.9204C22.2463 94.9578 23.8174 93.4472 23.8547 91.5466C23.892 89.6459 22.3815 88.0748 20.4808 88.0375Z" fill="#7C7B7B"/>
<path opacity="0.6" d="M12.7387 87.8854C10.838 87.8481 9.26693 89.3586 9.22959 91.2593C9.19226 93.1599 10.7028 94.731 12.6035 94.7683C14.5041 94.8057 16.0752 93.2951 16.1125 91.3945C16.1499 89.4938 14.6393 87.9227 12.7387 87.8854Z" fill="#7C7B7B"/>
<path opacity="0.8" d="M4.99452 87.7333C3.09385 87.696 1.52279 89.2065 1.48545 91.1072C1.44812 93.0078 2.95865 94.5789 4.85932 94.6162C6.75999 94.6536 8.33105 93.143 8.36838 91.2424C8.40572 89.3417 6.89519 87.7706 4.99452 87.7333Z" fill="#7C7B7B"/>
</g>
<g opacity="0.19">
<path opacity="0.1" d="M43.5531 96.5663C41.6524 96.529 40.0814 98.0395 40.044 99.9402C40.0067 101.841 41.5172 103.412 43.4179 103.449C45.3186 103.487 46.8896 101.976 46.927 100.075C46.9643 98.1747 45.4538 96.6037 43.5531 96.5663Z" fill="#7C7B7B"/>
<path opacity="0.2" d="M35.8109 96.4152C33.9103 96.3779 32.3392 97.8884 32.3019 99.7891C32.2645 101.69 33.7751 103.261 35.6757 103.298C37.5764 103.335 39.1475 101.825 39.1848 99.9243C39.2221 98.0236 37.7116 96.4525 35.8109 96.4152Z" fill="#7C7B7B"/>
<path opacity="0.4" d="M28.0668 96.2628C26.1661 96.2255 24.5951 97.736 24.5577 99.6367C24.5204 101.537 26.0309 103.108 27.9316 103.146C29.8323 103.183 31.4033 101.673 31.4406 99.7719C31.478 97.8712 29.9675 96.3002 28.0668 96.2628Z" fill="#7C7B7B"/>
<path opacity="0.6" d="M20.3226 96.111C18.422 96.0737 16.8509 97.5842 16.8136 99.4849C16.7762 101.386 18.2868 102.957 20.1874 102.994C22.0881 103.031 23.6592 101.521 23.6965 99.6201C23.7338 97.7194 22.2233 96.1483 20.3226 96.111Z" fill="#7C7B7B"/>
<path opacity="0.8" d="M12.5805 95.9589C10.6798 95.9216 9.10873 97.4321 9.07139 99.3328C9.03406 101.233 10.5446 102.804 12.4453 102.842C14.3459 102.879 15.917 101.369 15.9543 99.468C15.9917 97.5673 14.4811 95.9962 12.5805 95.9589Z" fill="#7C7B7B"/>
<path opacity="0.9" d="M4.83632 95.8068C2.93565 95.7695 1.36459 97.28 1.32725 99.1807C1.28992 101.081 2.80045 102.652 4.70111 102.69C6.60178 102.727 8.17284 101.217 8.21018 99.3159C8.24751 97.4152 6.73698 95.8441 4.83632 95.8068Z" fill="#7C7B7B"/>
</g>
<g opacity="0.19">
<path opacity="0.2" d="M43.3754 105.651C41.4747 105.614 39.9036 107.124 39.8663 109.025C39.829 110.926 41.3395 112.497 43.2402 112.534C45.1408 112.571 46.7119 111.061 46.7492 109.16C46.7866 107.259 45.276 105.688 43.3754 105.651Z" fill="#7C7B7B"/>
<path opacity="0.4" d="M35.6332 105.499C33.7325 105.462 32.1615 106.972 32.1241 108.873C32.0868 110.774 33.5973 112.345 35.498 112.382C37.3987 112.419 38.9697 110.909 39.0071 109.008C39.0444 107.108 37.5339 105.537 35.6332 105.499Z" fill="#7C7B7B"/>
<path opacity="0.6" d="M27.8891 105.347C25.9884 105.309 24.4173 106.82 24.38 108.721C24.3427 110.621 25.8532 112.192 27.7538 112.23C29.6545 112.267 31.2256 110.757 31.2629 108.856C31.3002 106.955 29.7897 105.384 27.8891 105.347Z" fill="#7C7B7B"/>
<path opacity="0.8" d="M20.1449 105.195C18.2442 105.158 16.6732 106.668 16.6358 108.569C16.5985 110.47 18.109 112.041 20.0097 112.078C21.9104 112.115 23.4814 110.605 23.5188 108.704C23.5561 106.803 22.0456 105.232 20.1449 105.195Z" fill="#7C7B7B"/>
<path opacity="0.9" d="M12.4027 105.043C10.5021 105.006 8.93099 106.516 8.89366 108.417C8.85632 110.317 10.3669 111.888 12.2675 111.926C14.1682 111.963 15.7393 110.453 15.7766 108.552C15.8139 106.651 14.3034 105.08 12.4027 105.043Z" fill="#7C7B7B"/>
<path opacity="0.95" d="M4.65858 104.891C2.75791 104.853 1.18685 106.364 1.14952 108.265C1.11218 110.165 2.62271 111.736 4.52338 111.774C6.42405 111.811 7.99511 110.301 8.03244 108.4C8.06978 106.499 6.55925 104.928 4.65858 104.891Z" fill="#7C7B7B"/>
</g>
<g opacity="0.19">
<path opacity="0.4" d="M43.1957 114.735C41.295 114.697 39.724 116.208 39.6866 118.108C39.6493 120.009 41.1598 121.58 43.0605 121.617C44.9612 121.655 46.5322 120.144 46.5696 118.244C46.6069 116.343 45.0964 114.772 43.1957 114.735Z" fill="#7C7B7B"/>
<path opacity="0.6" d="M35.4535 114.582C33.5528 114.545 31.9818 116.056 31.9444 117.956C31.9071 119.857 33.4176 121.428 35.3183 121.465C37.219 121.503 38.79 119.992 38.8274 118.091C38.8647 116.191 37.3542 114.62 35.4535 114.582Z" fill="#7C7B7B"/>
<path opacity="0.8" d="M27.7094 114.43C25.8087 114.393 24.2376 115.904 24.2003 117.804C24.163 119.705 25.6735 121.276 27.5742 121.313C29.4748 121.351 31.0459 119.84 31.0832 117.939C31.1206 116.039 29.61 114.468 27.7094 114.43Z" fill="#7C7B7B"/>
<path opacity="0.9" d="M19.9652 114.278C18.0646 114.241 16.4935 115.751 16.4562 117.652C16.4188 119.553 17.9294 121.124 19.83 121.161C21.7307 121.198 23.3018 119.688 23.3391 117.787C23.3764 115.886 21.8659 114.315 19.9652 114.278Z" fill="#7C7B7B"/>
<path opacity="0.95" d="M12.223 114.126C10.3224 114.089 8.7513 115.599 8.71397 117.5C8.67663 119.401 10.1872 120.972 12.0878 121.009C13.9885 121.046 15.5596 119.536 15.5969 117.635C15.6342 115.735 14.1237 114.163 12.223 114.126Z" fill="#7C7B7B"/>
<path opacity="0.19" d="M4.47889 113.974C2.57823 113.937 1.00716 115.447 0.969829 117.348C0.932494 119.249 2.44302 120.82 4.34369 120.857C6.24436 120.894 7.81542 119.384 7.85276 117.483C7.89009 115.582 6.37956 114.011 4.47889 113.974Z" fill="#7C7B7B"/>
</g>
<g opacity="0.19">
<path opacity="0.6" d="M43.0375 122.808C41.1368 122.77 39.5658 124.281 39.5284 126.181C39.4911 128.082 41.0016 129.653 42.9023 129.69C44.803 129.728 46.374 128.217 46.4114 126.317C46.4487 124.416 44.9382 122.845 43.0375 122.808Z" fill="#7C7B7B"/>
<path opacity="0.8" d="M35.2953 122.656C33.3946 122.619 31.8236 124.129 31.7862 126.03C31.7489 127.931 33.2594 129.502 35.1601 129.539C37.0608 129.576 38.6318 128.066 38.6692 126.165C38.7065 124.265 37.196 122.693 35.2953 122.656Z" fill="#7C7B7B"/>
<path opacity="0.9" d="M27.5512 122.504C25.6505 122.466 24.0794 123.977 24.0421 125.878C24.0048 127.778 25.5153 129.349 27.416 129.387C29.3166 129.424 30.8877 127.914 30.925 126.013C30.9624 124.112 29.4518 122.541 27.5512 122.504Z" fill="#7C7B7B"/>
<path opacity="0.95" d="M19.807 122.352C17.9064 122.315 16.3353 123.825 16.298 125.726C16.2606 127.626 17.7711 129.198 19.6718 129.235C21.5725 129.272 23.1435 127.762 23.1809 125.861C23.2182 123.96 21.7077 122.389 19.807 122.352Z" fill="#7C7B7B"/>
<path opacity="0.19" d="M12.0648 122.2C10.1642 122.163 8.5931 123.673 8.55577 125.574C8.51843 127.474 10.029 129.045 11.9296 129.083C13.8303 129.12 15.4014 127.61 15.4387 125.709C15.476 123.808 13.9655 122.237 12.0648 122.2Z" fill="#7C7B7B"/>
<path opacity="0.19" d="M4.32069 122.048C2.42002 122.01 0.848961 123.521 0.811626 125.422C0.774291 127.322 2.28482 128.893 4.18549 128.931C6.08616 128.968 7.65722 127.457 7.69455 125.557C7.73189 123.656 6.22136 122.085 4.32069 122.048Z" fill="#7C7B7B"/>
</g>
<g opacity="0.19">
<path opacity="0.8" d="M42.8598 131.892C40.9591 131.855 39.388 133.365 39.3507 135.266C39.3134 137.167 40.8239 138.738 42.7246 138.775C44.6252 138.812 46.1963 137.302 46.2336 135.401C46.271 133.5 44.7604 131.929 42.8598 131.892Z" fill="#7C7B7B"/>
<path opacity="0.9" d="M35.1176 131.74C33.2169 131.703 31.6458 133.213 31.6085 135.114C31.5712 137.015 33.0817 138.586 34.9824 138.623C36.883 138.66 38.4541 137.15 38.4914 135.249C38.5288 133.349 37.0182 131.777 35.1176 131.74Z" fill="#7C7B7B"/>
<path opacity="0.95" d="M27.3734 131.588C25.4728 131.55 23.9017 133.061 23.8644 134.962C23.827 136.862 25.3376 138.433 27.2382 138.471C29.1389 138.508 30.71 136.998 30.7473 135.097C30.7846 133.196 29.2741 131.625 27.3734 131.588Z" fill="#7C7B7B"/>
<path opacity="0.19" d="M19.6293 131.436C17.7286 131.399 16.1576 132.909 16.1202 134.81C16.0829 136.71 17.5934 138.282 19.4941 138.319C21.3948 138.356 22.9658 136.846 23.0031 134.945C23.0405 133.044 21.53 131.473 19.6293 131.436Z" fill="#7C7B7B"/>
<path opacity="0.19" d="M11.8871 131.284C9.98643 131.247 8.41537 132.757 8.37803 134.658C8.3407 136.558 9.85123 138.129 11.7519 138.167C13.6526 138.204 15.2236 136.694 15.261 134.793C15.2983 132.892 13.7878 131.321 11.8871 131.284Z" fill="#7C7B7B"/>
<path opacity="0.19" d="M4.14296 131.132C2.24229 131.094 0.671227 132.605 0.633892 134.506C0.596557 136.406 2.10709 137.977 4.00775 138.015C5.90842 138.052 7.47948 136.541 7.51682 134.641C7.55415 132.74 6.04363 131.169 4.14296 131.132Z" fill="#7C7B7B"/>
</g>
</g>
</svg>
