<svg width="158" height="50" viewBox="0 0 158 50" fill="none" xmlns="http://www.w3.org/2000/svg">
<path d="M8.90004 4.53524C8.21789 5.66432 7.76505 6.91681 7.56741 8.22107C7.36977 9.52532 7.43121 10.8558 7.74822 12.1362C8.06523 13.4167 8.63159 14.6221 9.4149 15.6836C10.1982 16.745 11.1831 17.6415 12.3132 18.3219L24.3104 25.5537C27.7744 27.6465 29.0471 25.0653 30.8517 22.1944L34.8744 15.5412C35.1981 15.0059 35.4131 14.412 35.5071 13.7935C35.601 13.1749 35.5721 12.544 35.422 11.9367C35.2718 11.3293 35.0034 10.7576 34.632 10.2541C34.2606 9.75067 33.7936 9.32537 33.2577 9.00259L20.9282 1.56496C18.9389 0.365526 16.5548 0.00464133 14.2996 0.561553C12.0444 1.11846 10.1024 2.54764 8.90004 4.53524V4.53524Z" fill="#E9702D"/>
<path d="M13.7664 12.5477L9.74376 19.2009C7.60506 22.8752 7.42434 24.976 9.82553 26.5492L26.8479 36.8121C29.1293 38.1877 31.8634 38.6015 34.4497 37.9628C37.0359 37.324 39.263 35.6849 40.6416 33.4054C41.2363 32.422 41.6312 31.331 41.8037 30.1949C41.9762 29.0587 41.9229 27.8997 41.6468 26.7841C41.3707 25.6686 40.8773 24.6185 40.1948 23.6939C39.5123 22.7694 38.6541 21.9885 37.6694 21.3961L20.3183 10.9377C19.7824 10.613 19.1879 10.3971 18.5685 10.3024C17.9492 10.2076 17.3172 10.2358 16.7088 10.3853C16.1004 10.5348 15.5273 10.8027 15.0225 11.1738C14.5176 11.5448 14.0908 12.0117 13.7664 12.5477V12.5477Z" fill="#555555"/>
<path d="M4.94092 11.0789L2.11374 15.7504C1.37041 16.9795 0.876792 18.343 0.661146 19.7631C0.445499 21.1831 0.512061 22.6318 0.857018 24.0261C1.20198 25.4204 1.81856 26.7329 2.67146 27.8886C3.52436 29.0443 4.59683 30.0204 5.82747 30.7611L21.2622 40.0678C22.3558 40.7278 23.6666 40.9268 24.9068 40.6212C26.1469 40.3156 27.2151 39.5302 27.8768 38.4377L31.0419 33.2047C31.4136 32.5902 31.6604 31.9085 31.7682 31.1986C31.876 30.4886 31.8427 29.7643 31.6702 29.0673C31.4977 28.3702 31.1894 27.714 30.763 27.1362C30.3366 26.5584 29.8003 26.0704 29.185 25.7002L11.553 15.0677C10.6842 14.5454 9.92705 13.8568 9.32487 13.0414C8.72269 12.2259 8.28734 11.2997 8.04377 10.3157C7.8002 9.33173 7.75321 8.30936 7.90547 7.30718C8.05774 6.305 8.40627 5.34272 8.93111 4.47549L4.94092 11.0789Z" fill="#F9F9F9"/>
<path d="M10.3213 29.5701L7.27624 34.6218C6.62347 35.7028 6.42674 36.9988 6.72932 38.2248C7.03189 39.4508 7.809 40.5064 8.88976 41.1596L19.376 47.4982C20.6038 48.2402 21.9657 48.7329 23.384 48.9481C24.8023 49.1634 26.2491 49.097 27.6417 48.7527C29.0343 48.4084 30.3454 47.793 31.5001 46.9417C32.6547 46.0904 33.6302 45.0198 34.3708 43.7913L36.6909 39.9456L39.5061 35.2825L40.7276 33.2581C39.5034 34.9976 37.6644 36.2075 35.5823 36.6432C33.5002 37.079 31.3304 36.708 29.5114 35.6054L26.7964 33.9637L16.8504 27.9532C15.7703 27.3023 14.4759 27.1069 13.2519 27.4101C12.0278 27.7133 10.9742 28.4903 10.3228 29.5701L10.3213 29.5701Z" fill="#E9702D"/>
<path d="M60.5448 34.8087L52.301 34.6468L52.3525 32.0207L54.9786 32.0723L55.2999 15.7175L52.6738 15.6659L52.7254 13.0399L60.9692 13.2018L60.9177 15.8279L58.3248 15.777L58.0036 32.1317L60.5964 32.1826L60.5448 34.8087ZM80.8571 35.2077L73.1451 35.0562L73.1895 32.7958L75.5829 32.8428L75.7089 26.4272C75.7385 24.9203 75.4713 23.8509 74.9073 23.2191C74.3438 22.5651 73.5855 22.2287 72.6326 22.21C71.3916 22.1856 70.3974 22.5763 69.65 23.3818C68.9025 24.1874 68.496 25.1327 68.4304 26.2177L68.303 32.6998L70.6964 32.7468L70.652 35.0072L62.94 34.8558L62.9844 32.5953L65.3778 32.6424L65.5802 22.3375L63.0871 22.2886L63.1322 19.9949L68.5505 20.1013L68.5009 22.6277C69.5794 20.7645 71.2822 19.8557 73.6091 19.9014C75.0495 19.9297 76.2597 20.3969 77.2395 21.3029C78.2193 22.2089 78.6907 23.6038 78.6537 25.4874L78.5081 32.9003L80.9015 32.9473L80.8571 35.2077ZM94.4348 33.1799L94.6365 22.9083L87.6226 22.7705L87.4208 33.0421L90.5455 33.1035L90.5005 35.3971L82.0572 35.2313L82.1022 32.9376L84.5288 32.9853L84.7306 22.7137L82.6696 22.6732L82.7147 20.3796L84.7757 20.42L84.8233 17.9934C84.8582 16.2206 85.5067 14.8034 86.7691 13.7419C88.0314 12.6804 89.6488 12.169 91.6211 12.2077C93.5934 12.2465 95.3126 12.7569 96.7786 13.739L97.3058 17.374L94.973 17.6275L94.3885 15.2217C94.1473 15.0839 93.7732 14.9436 93.2661 14.8006C92.7594 14.6355 92.1515 14.5459 91.4424 14.532C89.0047 14.4841 87.7628 15.6347 87.7166 17.9838L87.6677 20.4769L97.6068 20.6721L97.36 33.2373L99.7534 33.2843L99.7083 35.578L91.9963 35.4265L92.0414 33.1329L94.4348 33.1799ZM120.393 21.1529L117.729 21.3334L117.151 16.9325L112.231 16.8358L111.91 33.1906L115.633 33.2637L115.581 35.8898L105.21 35.6861L105.261 33.06L108.885 33.1312L109.206 16.7764L104.253 16.6791L103.502 21.0539L100.88 20.7697L101.645 14.0008L119.862 14.3586L120.393 21.1529ZM123.075 22.303C123.994 21.789 124.888 21.4408 125.756 21.2583C126.647 21.0541 127.613 20.9622 128.654 20.9827C130.339 21.0158 131.66 21.4519 132.619 22.291C133.6 23.1305 134.074 24.4035 134.041 26.1099L133.905 32.9908C133.886 33.9659 134.265 34.4611 135.04 34.4763C135.35 34.4824 135.651 34.4329 135.941 34.3277L135.94 36.0569C135.312 36.4215 134.588 36.5957 133.768 36.5796C131.973 36.5443 131.04 35.5284 130.968 33.5317L130.969 33.4985C130.511 34.2654 129.854 34.9508 129 35.5548C128.168 36.1592 127.153 36.4496 125.957 36.4261C124.937 36.4061 123.924 36.0758 122.917 35.4353C121.932 34.7952 121.455 33.6995 121.485 32.1483C121.522 30.2868 122.277 29.0823 123.751 28.5348C125.247 27.9656 126.838 27.6976 128.522 27.7307C129.541 27.7507 130.394 27.8118 131.079 27.9139L131.1 26.817C131.12 25.8419 130.948 25.0071 130.584 24.3127C130.221 23.6184 129.386 23.2583 128.078 23.2326C127.014 23.2117 126.113 23.3825 125.375 23.7449L124.762 26.1604L122.407 25.8481L123.075 22.303ZM131.029 30.4735L131.046 29.6092C130.648 29.5571 130.227 29.5156 129.784 29.4847C129.364 29.4321 128.932 29.4014 128.489 29.3927C127.47 29.3727 126.558 29.5211 125.754 29.8378C124.949 30.1546 124.537 30.8337 124.516 31.8753C124.501 32.6731 124.733 33.254 125.214 33.6182C125.717 33.9828 126.289 34.1714 126.932 34.184C127.885 34.2027 128.778 33.8877 129.611 33.239C130.444 32.5903 130.916 31.6685 131.029 30.4735ZM153.295 36.6306L146.481 36.4968L146.525 34.2363L148.221 34.2696L145.202 30.4859L142.038 34.1482L143.567 34.1782L143.523 36.4386L137.107 36.3126L137.151 34.0522L139.179 34.092L143.8 29.0617L139.249 23.7846L137.42 23.7487L137.465 21.455L144.446 21.5922L144.401 23.8858L142.672 23.8519L145.56 27.5333L148.689 23.97L147.16 23.94L147.205 21.6464L153.288 21.7658L153.243 24.0595L151.581 24.0269L146.996 28.8917L151.611 34.3362L153.34 34.3702L153.295 36.6306Z" fill="#E9702D"/>
</svg>
