<svg width="1206" height="621" viewBox="0 0 1206 621" fill="none" xmlns="http://www.w3.org/2000/svg">
<path d="M-543.626 477.906H-643.49V446.095H-611.678V247.978H-643.49V216.166H-543.626V247.978H-575.035V446.095H-543.626V477.906ZM-297.568 477.906H-390.989V450.524H-361.996V372.808C-361.996 354.553 -365.486 341.667 -372.466 334.151C-379.446 326.366 -388.707 322.473 -400.251 322.473C-415.284 322.473 -427.23 327.439 -436.089 337.372C-444.948 347.305 -449.646 358.848 -450.183 372.002V450.524H-421.19V477.906H-514.611V450.524H-485.618V325.694H-515.819V297.91H-450.183V328.513C-437.565 305.695 -417.163 294.286 -388.976 294.286C-371.526 294.286 -356.762 299.655 -344.681 310.393C-332.601 321.131 -326.561 337.909 -326.561 360.727V450.524H-297.568V477.906ZM-133.637 450.122V325.694H-218.602V450.122H-180.751V477.906H-283.031V450.122H-253.635V325.694H-278.601V297.91H-253.635V268.514C-253.635 247.038 -246.119 229.723 -231.085 216.569C-216.052 203.415 -196.589 196.838 -172.697 196.838C-148.805 196.838 -127.866 202.609 -109.879 214.153L-102.631 258.045L-130.819 261.669L-138.47 232.676C-141.423 231.065 -145.986 229.455 -152.161 227.844C-158.335 225.965 -165.717 225.025 -174.308 225.025C-203.838 225.025 -218.602 239.253 -218.602 267.709V297.91H-98.2018V450.122H-69.2091V477.906H-162.63V450.122H-133.637ZM177.833 298.312L145.619 301.131L137.566 247.978H77.9695V446.095H123.069V477.906H-2.56596V446.095H41.3259V247.978H-18.6731L-26.7266 301.131L-58.5381 298.312L-50.8872 216.166H169.78L177.833 298.312ZM210.582 311.601C221.589 305.158 232.327 300.729 242.797 298.312C253.535 295.628 265.212 294.286 277.83 294.286C298.232 294.286 314.339 299.252 326.151 309.185C338.231 319.117 344.271 334.419 344.271 355.09V438.444C344.271 450.256 348.969 456.162 358.365 456.162C362.123 456.162 365.747 455.491 369.237 454.149L369.64 475.088C362.123 479.651 353.399 481.933 343.466 481.933C321.721 481.933 310.178 469.853 308.836 445.692V445.29C303.467 454.685 295.682 463.142 285.48 470.658C275.548 478.175 263.333 481.933 248.837 481.933C236.488 481.933 224.139 478.175 211.79 470.658C199.71 463.142 193.67 449.988 193.67 431.196C193.67 408.646 202.529 393.881 220.247 386.901C238.233 379.653 257.427 376.029 277.83 376.029C290.178 376.029 300.514 376.566 308.836 377.64V364.352C308.836 352.54 306.554 342.473 301.99 334.151C297.426 325.829 287.225 321.668 271.387 321.668C258.501 321.668 247.629 323.95 238.77 328.513L231.924 357.909L203.334 354.687L210.582 311.601ZM308.836 408.646V398.176C304.004 397.639 298.903 397.237 293.534 396.968C288.433 396.431 283.199 396.163 277.83 396.163C265.481 396.163 254.474 398.176 244.81 402.203C235.146 406.23 230.314 414.552 230.314 427.169C230.314 436.833 233.267 443.813 239.172 448.108C245.347 452.404 252.327 454.551 260.112 454.551C271.655 454.551 282.393 450.524 292.326 442.471C302.259 434.417 307.762 423.142 308.836 408.646ZM579.932 477.906H497.383V450.524H517.92L480.471 405.425L443.022 450.524H461.545V477.906H383.828V450.524H408.391L463.155 388.512L406.781 325.694H384.633V297.91H469.196V325.694H448.256L484.095 369.586L521.141 325.694H502.618V297.91H576.308V325.694H556.174L501.812 385.693L558.993 450.524H579.932V477.906Z" fill="#555555"/>
<path d="M1103.14 55.9465C1111.57 70.5448 1117.04 86.6624 1119.24 103.377C1121.44 120.092 1120.32 137.077 1115.95 153.359C1111.57 169.641 1104.03 184.901 1093.76 198.267C1083.48 211.633 1070.67 222.841 1056.06 231.252L900.952 320.646C856.164 346.518 840.551 313.217 818.212 276.08L768.481 190.058C764.479 183.137 761.881 175.494 760.836 167.567C759.79 159.64 760.318 151.585 762.389 143.863C764.461 136.14 768.034 128.902 772.906 122.562C777.777 116.222 783.851 110.905 790.78 106.915L950.19 14.9741C975.91 0.147458 1006.46 -3.86543 1035.14 3.81667C1063.82 11.4988 1088.27 30.2478 1103.14 55.9465V55.9465Z" fill="#555555"/>
<path d="M731.797 265.034L731.796 265.035C719.179 272.292 708.117 281.967 699.245 293.505C690.372 305.043 683.862 318.218 680.089 332.276C676.315 346.334 675.352 360.998 677.253 375.428C679.155 389.859 683.884 403.772 691.171 416.373C708.082 445.616 735.908 466.952 768.538 475.695C801.169 484.437 835.935 479.871 865.202 462.999L865.625 463.734L865.202 462.999L1085.27 336.145C1092.94 331.329 1098.53 326.093 1102.21 320.252C1105.9 314.417 1107.72 307.928 1107.78 300.551C1107.92 285.736 1100.99 267.342 1087.8 243.621C1087.8 243.619 1087.8 243.616 1087.8 243.614L1038.08 157.607C1038.08 157.607 1038.08 157.607 1038.08 157.607C1034.13 150.79 1028.88 144.817 1022.63 140.029C1016.38 135.241 1009.24 131.732 1001.63 129.702C994.021 127.673 986.086 127.163 978.279 128.201C970.471 129.239 962.945 131.806 956.13 135.754L956.128 135.755L731.797 265.034Z" fill="#E9702D" stroke="black" stroke-width="2"/>
<path d="M1152.08 140.554L1187.03 200.956C1196.22 216.846 1202.19 234.394 1204.59 252.593C1206.99 270.792 1205.77 289.285 1201.02 307.015C1196.26 324.744 1188.05 341.361 1176.86 355.913C1165.67 370.466 1151.72 382.67 1135.81 391.825L936.257 506.869C922.118 515.028 905.319 517.243 889.55 513.026C873.78 508.809 860.328 498.506 852.148 484.38L813.018 416.72C808.423 408.776 805.441 400.003 804.241 390.904C803.042 381.805 803.649 372.559 806.028 363.695C808.407 354.832 812.511 346.524 818.105 339.248C823.699 331.973 830.673 325.872 838.628 321.296L1066.59 189.862C1077.83 183.406 1087.67 174.798 1095.57 164.53C1103.47 154.262 1109.27 142.536 1112.63 130.024C1115.99 117.512 1116.84 104.46 1115.15 91.6164C1113.45 78.7726 1109.24 66.3894 1102.75 55.1764L1152.08 140.554Z" fill="#F9F9F9"/>
<path d="M1078.7 375.476L1116.34 440.79C1124.41 454.766 1126.6 471.375 1122.42 486.965C1118.25 502.555 1108.05 515.848 1094.08 523.923L958.499 602.284C942.625 611.456 925.099 617.41 906.922 619.805C888.746 622.199 870.275 620.987 852.567 616.239C834.86 611.49 818.261 603.298 803.722 592.13C789.182 580.962 776.986 567.038 767.831 551.154L739.151 501.433L704.349 441.142L689.249 414.968C704.456 437.503 727.65 453.424 754.145 459.514C780.639 465.605 808.458 461.409 831.978 447.776L867.081 427.482L995.676 353.178C1009.64 345.131 1026.23 342.96 1041.79 347.141C1057.36 351.323 1070.63 361.515 1078.68 375.476H1078.7Z" fill="#555555"/>
</svg>
