<svg width="407" height="143" viewBox="0 0 407 143" fill="none" xmlns="http://www.w3.org/2000/svg">
<path d="M150.742 106.065L129.176 105.642L129.311 98.7721L136.18 98.907L137.021 56.123L130.151 55.988L130.286 49.1182L151.852 49.5419L151.717 56.4117L144.934 56.2784L144.094 99.0625L150.876 99.1957L150.742 106.065ZM203.879 107.109L183.704 106.713L183.82 100.8L190.081 100.923L190.411 84.1395C190.488 80.1974 189.789 77.3999 188.314 75.747C186.84 74.0362 184.856 73.1563 182.363 73.1073C179.117 73.0436 176.516 74.0654 174.561 76.1728C172.605 78.2802 171.542 80.7531 171.37 83.5915L171.037 100.549L177.298 100.672L177.182 106.585L157.007 106.189L157.124 100.275L163.385 100.398L163.914 73.4409L157.392 73.3128L157.51 67.3126L171.684 67.591L171.555 74.1999C174.376 69.3257 178.83 66.9484 184.918 67.068C188.686 67.142 191.852 68.3641 194.415 70.7343C196.978 73.1044 198.211 76.7534 198.115 81.6811L197.734 101.073L203.995 101.196L203.879 107.109ZM239.398 101.804L239.926 74.934L221.577 74.5736L221.049 101.444L229.223 101.605L229.106 107.605L207.018 107.171L207.136 101.171L213.484 101.295L214.012 74.425L208.62 74.3191L208.738 68.3189L214.129 68.4248L214.254 62.0767C214.345 57.4389 216.042 53.7315 219.344 50.9546C222.647 48.1777 226.877 46.8399 232.037 46.9413C237.197 47.0426 241.694 48.3779 245.529 50.947L246.908 60.4563L240.806 61.1194L239.277 54.8259C238.646 54.4655 237.667 54.0983 236.34 53.7243C235.015 53.2923 233.425 53.058 231.57 53.0216C225.193 52.8963 221.944 55.9063 221.823 62.0514L221.695 68.5734L247.696 69.0841L247.05 101.955L253.311 102.078L253.193 108.078L233.019 107.682L233.137 101.681L239.398 101.804ZM307.305 70.342L300.336 70.8141L298.822 59.3013L285.952 59.0485L285.112 101.832L294.851 102.024L294.716 108.894L267.585 108.361L267.72 101.491L277.199 101.677L278.039 58.893L265.082 58.6385L263.117 70.083L256.26 69.3393L258.26 51.632L305.914 52.5681L307.305 70.342ZM314.321 73.3506C316.725 72.0059 319.063 71.0949 321.334 70.6176C323.664 70.0834 326.192 69.8431 328.916 69.8966C333.322 69.9831 336.78 71.124 339.288 73.3191C341.855 75.5153 343.094 78.8454 343.007 83.3093L342.653 101.31C342.603 103.861 343.593 105.156 345.622 105.196C346.433 105.212 347.219 105.082 347.978 104.807L347.976 109.331C346.334 110.284 344.44 110.74 342.295 110.698C337.599 110.606 335.157 107.948 334.97 102.725L334.972 102.638C333.772 104.644 332.055 106.437 329.82 108.017C327.644 109.598 324.99 110.358 321.859 110.297C319.193 110.244 316.542 109.38 313.907 107.705C311.33 106.03 310.081 103.164 310.161 99.1058C310.257 94.2361 312.232 91.0851 316.088 89.653C320.003 88.164 324.164 87.4628 328.57 87.5494C331.236 87.6017 333.466 87.7615 335.259 88.0287L335.315 85.1591C335.365 82.6083 334.915 80.4246 333.965 78.6081C333.015 76.7915 330.829 75.8497 327.409 75.7825C324.626 75.7278 322.269 76.1745 320.336 77.1225L318.733 83.4415L312.573 82.6245L314.321 73.3506ZM335.127 94.7246L335.172 92.4637C334.13 92.3272 333.031 92.2186 331.872 92.1379C330.773 92.0003 329.644 91.9201 328.484 91.8973C325.817 91.8449 323.432 92.2331 321.328 93.0617C319.224 93.8903 318.145 95.6669 318.091 98.3916C318.05 100.479 318.659 101.998 319.916 102.951C321.231 103.905 322.729 104.398 324.41 104.431C326.903 104.48 329.239 103.656 331.418 101.959C333.597 100.262 334.834 97.8506 335.127 94.7246ZM393.377 110.832L375.551 110.481L375.667 104.568L380.102 104.655L372.206 94.757L363.927 104.338L367.927 104.416L367.811 110.329L351.028 110L351.144 104.086L356.449 104.191L368.538 91.0313L356.631 77.2264L351.848 77.1325L351.966 71.1323L370.227 71.491L370.109 77.4912L365.587 77.4024L373.141 87.033L381.327 77.7116L377.327 77.633L377.445 71.6328L393.358 71.9454L393.24 77.9456L388.892 77.8602L376.898 90.5865L388.972 104.83L393.494 104.918L393.377 110.832Z" fill="#E9702D"/>
<path d="M25.1247 12.5172C23.2416 15.634 21.9916 19.0915 21.446 22.6918C20.9004 26.2921 21.07 29.9647 21.9451 33.4994C22.8202 37.0342 24.3836 40.3617 26.5459 43.2916C28.7082 46.2216 31.4269 48.6965 34.5466 50.5747L67.6641 70.5377C77.2265 76.3148 80.7396 69.1895 85.7212 61.2644L96.8256 42.8987C97.7192 41.4209 98.3127 39.7815 98.5721 38.0741C98.8315 36.3667 98.7516 34.625 98.3371 32.9485C97.9226 31.272 97.1816 29.6937 96.1565 28.304C95.1314 26.9142 93.8422 25.7402 92.3629 24.8492L58.3278 4.31793C52.8363 1.00696 46.2553 0.0107571 40.0299 1.54808C33.8045 3.08541 28.4437 7.03059 25.1247 12.5172V12.5172Z" fill="#E9702D"/>
<path d="M38.5587 34.6356L27.4543 53.0013C21.5505 63.144 21.0516 68.9432 27.68 73.286L74.6695 101.616C80.9671 105.413 88.5144 106.556 95.6537 104.793C102.793 103.029 108.941 98.5045 112.746 92.212C114.388 89.4976 115.478 86.486 115.954 83.3496C116.43 80.2133 116.283 77.0138 115.521 73.9345C114.759 70.8551 113.397 67.9563 111.513 65.4041C109.629 62.8519 107.26 60.6963 104.542 59.0609L56.6448 30.191C55.1656 29.2948 53.5242 28.6989 51.8146 28.4373C50.1049 28.1757 48.3605 28.2534 46.6809 28.6662C45.0014 29.0789 43.4196 29.8186 42.0259 30.8428C40.6323 31.8671 39.4541 33.1559 38.5587 34.6356V34.6356Z" fill="#555555"/>
<path d="M14.1961 30.581L6.39175 43.4766C4.33983 46.8693 2.97722 50.6333 2.38194 54.5533C1.78666 58.4733 1.9704 62.4722 2.92264 66.3211C3.87487 70.1699 5.57691 73.7932 7.9313 76.9834C10.2857 80.1736 13.2462 82.8681 16.6433 84.9127L59.2502 110.603C62.2689 112.425 65.8873 112.975 69.3107 112.131C72.7342 111.287 75.6829 109.12 77.5093 106.104L86.2466 91.6582C87.2725 89.962 87.9537 88.0802 88.2514 86.1204C88.549 84.1605 88.4571 82.1613 87.9809 80.237C87.5048 78.3127 86.6538 76.5013 85.4766 74.9064C84.2994 73.3115 82.8192 71.9644 81.1207 70.9424L32.4484 41.5918C30.0502 40.1501 27.96 38.2493 26.2977 35.9983C24.6354 33.7474 23.4337 31.1905 22.7613 28.4743C22.089 25.7581 21.9592 22.9359 22.3795 20.1694C22.7999 17.4029 23.762 14.7466 25.2108 12.3526L14.1961 30.581Z" fill="#F9F9F9"/>
<path d="M29.0474 81.6243L20.6418 95.5694C18.8398 98.5534 18.2968 102.131 19.132 105.515C19.9673 108.9 22.1124 111.814 25.0958 113.617L54.0427 131.114C57.4318 133.162 61.1914 134.522 65.1065 135.117C69.0217 135.711 73.0155 135.527 76.8597 134.577C80.704 133.627 84.3232 131.928 87.5104 129.578C90.6977 127.228 93.3905 124.273 95.4348 120.881L101.839 110.266L109.611 97.3932L112.983 91.8049C109.603 96.6068 104.527 99.9467 98.7793 101.149C93.0319 102.352 87.0422 101.328 82.0207 98.2844L74.5261 93.7528L47.0708 77.1611C44.0893 75.3642 40.5162 74.8249 37.1372 75.6619C33.7581 76.4989 30.8498 78.6436 29.0517 81.6244L29.0474 81.6243Z" fill="#E9702D"/>
</svg>
