<svg width="67" height="44" viewBox="0 0 67 44" fill="none" xmlns="http://www.w3.org/2000/svg">
<path d="M65.2737 43.0382L0.154297 41.759L0.144951 42.2348L65.2643 43.514L65.2737 43.0382Z" fill="#85848B"/>
<path d="M51.9125 34.3692C51.9053 34.7349 49.7506 35.7607 47.216 35.7109C44.6814 35.6611 42.7278 34.5555 42.735 34.189C42.7422 33.8225 44.7944 33.9816 47.3308 34.0314C49.8671 34.0812 51.9197 34.0027 51.9125 34.3692Z" fill="#504F60"/>
<path opacity="0.2" d="M51.9138 34.37C51.9067 34.7356 49.752 35.7614 47.2173 35.7117C44.6827 35.6619 42.7291 34.5562 42.7363 34.1897" fill="black"/>
<path d="M26.5189 27.1511C26.9261 27.2357 27.347 27.2299 27.7517 27.134C27.814 27.1163 27.8828 27.0746 27.878 27.0125C27.8742 26.9899 27.8652 26.9686 27.8517 26.95C27.7075 26.7245 27.5873 26.4844 27.4931 26.2337C27.4893 26.2208 27.4814 26.2095 27.4705 26.2015C27.4578 26.1966 27.4438 26.1963 27.4309 26.2007C27.2485 26.2444 27.0887 26.3592 26.9105 26.4056C26.8179 26.4289 26.7216 26.434 26.627 26.4207C26.5412 26.4096 26.4349 26.3404 26.3599 26.3475C26.395 26.6202 26.4933 26.8743 26.5189 27.1511Z" fill="#6C63FF"/>
<path d="M34.3108 26.6175C34.5996 26.4578 34.8479 26.2339 35.0363 25.963C35.048 25.946 35.0549 25.9262 35.0564 25.9057C35.054 25.8853 35.0464 25.8659 35.0342 25.8493C34.8865 25.6039 34.6943 25.3882 34.4675 25.2133C34.3458 25.2957 34.2354 25.3937 34.139 25.5047C34.0696 25.5756 33.8772 25.6855 33.8751 25.7956C33.8738 25.8575 33.9447 25.9312 33.9773 25.9835C34.0216 26.0515 34.0606 26.1203 34.1023 26.1908C34.1855 26.3259 34.2554 26.4688 34.3108 26.6175V26.6175Z" fill="#6C63FF"/>
<path d="M28.114 28.012C28.1176 28.076 28.0987 28.1392 28.0606 28.1908C28.0311 28.2194 27.9949 28.24 27.9553 28.2507C27.3765 28.4459 26.7156 28.1756 26.1378 28.3674C26.0191 28.4063 25.9061 28.4644 25.7909 28.5017C25.6501 28.541 25.5052 28.5639 25.3592 28.5698C25.1557 28.5848 24.9516 28.5937 24.7476 28.5948C24.5928 28.6027 24.4377 28.5859 24.2881 28.5453C24.2133 28.5246 24.1438 28.4884 24.084 28.439C24.0241 28.3897 23.9753 28.3283 23.9408 28.2588C23.911 28.1966 23.9062 28.1253 23.9275 28.0597C23.937 28.0372 23.9502 28.0165 23.9666 27.9985C24.0063 27.9555 24.0526 27.9192 24.1038 27.891L24.3182 27.7584C24.4187 27.6895 24.5277 27.6338 24.6425 27.5926C24.7291 27.5668 24.8153 27.5573 24.9018 27.5358C25.1938 27.4273 25.4514 27.2427 25.6482 27.0013L25.9424 26.6998C25.97 26.6666 26.0046 26.6399 26.0438 26.6217C26.0839 26.6092 26.1264 26.6059 26.168 26.6122C26.4472 26.6377 26.7153 26.7336 26.9474 26.8908C27.0066 26.9372 27.0708 26.9768 27.1388 27.009C27.2283 27.0371 27.3226 27.0465 27.4158 27.0368C27.5091 27.0271 27.5995 26.9984 27.6813 26.9526C27.756 26.9144 27.7401 26.8918 27.7699 26.8218C27.7997 26.7518 27.8789 26.7077 27.943 26.7735C27.9625 26.7963 27.9761 26.8234 27.9827 26.8526C28.0227 27.0638 28.0315 27.2798 28.0089 27.4935C28.0064 27.5269 28.0098 27.5605 28.019 27.5927C28.0343 27.6254 28.0527 27.6566 28.074 27.6859C28.0783 27.6934 28.0822 27.7013 28.0856 27.7093C28.1195 27.8064 28.1293 27.9103 28.114 28.012Z" fill="#514E7F"/>
<path d="M28.1134 28.0136C28.117 28.0776 28.0981 28.1408 28.06 28.1924C28.0305 28.2209 27.9942 28.2415 27.9546 28.2523C27.3759 28.4466 26.715 28.1771 26.1371 28.3689C26.0184 28.4079 25.9054 28.4659 25.7902 28.5032C25.6494 28.5425 25.5046 28.5654 25.3585 28.5714C25.1551 28.5863 24.951 28.5952 24.747 28.5964C24.5921 28.6043 24.437 28.5876 24.2874 28.5469C24.2127 28.5262 24.1431 28.49 24.0833 28.4406C24.0235 28.3912 23.9747 28.3298 23.9402 28.2603C23.9103 28.1982 23.9056 28.1269 23.9269 28.0613C23.9363 28.0388 23.9495 28.0181 23.966 28.0001C23.9982 28.0704 24.0204 28.1647 24.0412 28.1987C24.0687 28.2489 24.1066 28.2927 24.1524 28.3272C24.1982 28.3616 24.2508 28.3859 24.3067 28.3984C24.3905 28.4052 24.4748 28.396 24.5551 28.3714C25.0885 28.3071 25.6171 28.2086 26.1377 28.0763C26.3061 28.0004 26.48 27.9373 26.6579 27.8877C26.8433 27.8633 27.0301 27.8517 27.2171 27.8531C27.5118 27.8356 27.7984 27.7526 28.0892 27.711C28.1218 27.8084 28.1301 27.9122 28.1134 28.0136Z" fill="#464353"/>
<path d="M35.6298 26.6051C35.5824 26.8219 35.4673 27.018 35.3012 27.165C35.1358 27.3103 34.9838 27.4701 34.8468 27.6424C34.7302 27.8878 34.5883 28.1204 34.4235 28.3364C34.348 28.405 34.2634 28.4631 34.1722 28.5088C34.0696 28.5666 33.9615 28.6138 33.8493 28.6496C33.5529 28.7176 33.2462 28.7282 32.9458 28.6809C32.8478 28.6781 32.7511 28.6575 32.6604 28.6202C32.6193 28.5983 32.5801 28.5731 32.5431 28.5448C32.4684 28.4967 32.406 28.4318 32.3609 28.3553C32.3388 28.3137 32.3333 28.2653 32.3455 28.2199C32.3637 28.1698 32.3941 28.1251 32.4341 28.0899C32.5035 28.0204 32.5778 27.956 32.6565 27.8972C32.764 27.8305 32.8613 27.7487 32.9453 27.6541C32.9973 27.5794 33.0362 27.4963 33.0603 27.4085C33.1073 27.2544 33.1372 27.0957 33.1496 26.9351C33.1513 26.8284 33.1643 26.7222 33.1886 26.6183C33.2374 26.4557 33.3625 26.311 33.352 26.1421C33.347 26.1179 33.3495 26.0927 33.3594 26.07C33.3741 26.0524 33.3944 26.0403 33.4169 26.0358C33.5126 25.9998 33.6131 25.9786 33.7151 25.9728C33.7662 25.9703 33.8173 25.9792 33.8646 25.9988C33.9118 26.0185 33.9541 26.0485 33.9883 26.0866C34.0294 26.1382 34.0555 26.2119 34.1179 26.2329C34.1489 26.2407 34.1814 26.2414 34.2126 26.2348C34.366 26.236 34.5163 26.1926 34.6454 26.1098C34.702 26.061 34.7478 26.0011 34.7801 25.9338C34.8123 25.8664 34.8304 25.7931 34.833 25.7185C34.8341 25.6617 34.8094 25.6027 34.8973 25.5958C34.9629 25.5885 35.014 25.6601 35.0467 25.7046C35.1757 25.8614 35.2709 26.0432 35.3262 26.2386C35.344 26.2322 35.3627 26.2291 35.3815 26.2293C35.4203 26.2298 35.4583 26.2396 35.4924 26.258C35.5266 26.2763 35.5557 26.3026 35.5774 26.3347C35.6269 26.4156 35.6455 26.5116 35.6298 26.6051V26.6051Z" fill="#514E7F"/>
<path d="M35.6292 26.606C35.5818 26.8228 35.4667 27.0189 35.3006 27.1659C35.1352 27.3112 34.9832 27.471 34.8462 27.6433C34.7296 27.8887 34.5877 28.1213 34.4229 28.3373C34.3473 28.4056 34.2628 28.4633 34.1716 28.5088C34.0694 28.5667 33.9615 28.6138 33.8496 28.6496C33.5532 28.7176 33.2465 28.7283 32.9461 28.681C32.8481 28.6782 32.7513 28.6576 32.6607 28.6203C32.6196 28.5984 32.5803 28.5731 32.5434 28.5448C32.4687 28.4967 32.4063 28.4318 32.3612 28.3553C32.4198 28.3284 32.4834 28.3144 32.5479 28.3142C32.682 28.3246 32.7776 28.453 32.905 28.4934C33.0872 28.5521 33.2721 28.4266 33.458 28.3863C33.582 28.3743 33.7052 28.3561 33.8274 28.3317C33.9281 28.295 34.0215 28.2409 34.1034 28.1718C34.215 28.0951 34.3148 28.0026 34.3997 27.897C34.4713 27.7902 34.5312 27.6759 34.5785 27.5563C34.6807 27.3298 34.8001 27.1114 34.9356 26.9031C34.9556 26.8701 34.9797 26.8396 35.0071 26.8125C35.0378 26.7883 35.0699 26.7659 35.1031 26.7455C35.2195 26.6419 35.2993 26.5033 35.3304 26.3506C35.343 26.3048 35.3603 26.2604 35.382 26.2182C35.4208 26.2186 35.4588 26.2285 35.4929 26.2468C35.527 26.2652 35.5562 26.2915 35.5779 26.3236C35.6299 26.408 35.6482 26.5088 35.6292 26.606V26.606Z" fill="#464353"/>
<path d="M23.0003 7.00583C23.1521 7.12337 23.2764 7.2727 23.3644 7.44333C23.5943 7.98982 23.7694 8.55777 23.8871 9.13884C24.0538 8.97772 24.6979 8.9637 24.8654 8.80259C24.9356 8.73512 25.3141 8.39827 25.3716 8.31936C25.4291 8.24044 25.847 8.08081 25.8943 7.99653C26.0724 7.6962 24.7184 6.51971 24.9032 6.22382C24.9092 6.21807 24.9138 6.21109 24.9167 6.20336C24.9196 6.19562 24.9208 6.18733 24.9201 6.17909C24.9195 6.17084 24.917 6.16284 24.9129 6.15567C24.9087 6.1485 24.9031 6.14234 24.8963 6.13762C24.7772 6.02972 24.6459 5.93614 24.505 5.85881C24.3632 5.7796 24.2575 5.64861 24.21 5.49324C24.08 5.55027 23.9602 5.62816 23.8552 5.72383C23.5998 5.93456 23.3482 6.14967 23.1006 6.36916C23.0043 6.45334 22.8178 6.56931 22.7715 6.69406C22.7251 6.81881 22.9106 6.93005 23.0003 7.00583Z" fill="#A1616A"/>
<path d="M25.2296 6.56177C25.0166 6.69894 24.817 6.85581 24.6334 7.03033C24.4468 7.1841 24.3125 7.39196 24.249 7.62526C24.23 7.71698 24.2307 7.81081 24.2143 7.9043C24.1443 8.30918 23.7875 8.59997 23.6242 8.97805C23.5769 9.09458 23.5414 9.21556 23.5182 9.33918C23.4699 9.57338 23.4414 9.81121 23.4328 10.0502C23.4282 10.2816 23.6488 10.4452 23.7272 10.6627C23.7923 10.8791 23.8374 11.101 23.8622 11.3255C23.9445 11.7443 24.0611 12.1557 24.2107 12.5555C24.4995 13.4063 25.4456 15.7643 25.7345 16.6134C27.1981 16.3535 28.6338 15.9558 30.0226 15.4256C30.3028 15.2658 28.142 13.3608 28.4405 13.2384C28.4578 13.2366 28.4743 13.2307 28.4889 13.2213C28.5034 13.2118 28.5155 13.1991 28.5242 13.1841C28.5329 13.1691 28.5379 13.1522 28.5389 13.1349C28.5398 13.1176 28.5366 13.1003 28.5296 13.0844C28.259 11.788 27.3542 10.703 26.959 9.43862C26.7922 9.0141 26.5992 8.6004 26.3809 8.19991C26.2085 7.81954 26.1203 7.40123 25.9122 7.03909C25.8731 6.96463 25.8215 6.89751 25.7594 6.84071C25.7069 6.79852 25.6499 6.7622 25.5895 6.73237C25.4609 6.66185 25.3471 6.62433 25.2296 6.56177Z" fill="#514E7F"/>
<path d="M23.0519 6.8589C23.862 6.87482 24.5317 6.23095 24.5476 5.42079C24.5635 4.61063 23.9197 3.94097 23.1095 3.92506C22.2993 3.90914 21.6297 4.553 21.6138 5.36316C21.5978 6.17332 22.2417 6.84299 23.0519 6.8589Z" fill="#A1616A"/>
<path d="M24.5619 6.1106C24.6364 6.04466 24.7291 6.00283 24.8278 5.99064C24.9266 5.97844 25.0266 5.99645 25.1149 6.04228C25.1661 6.06478 25.2089 6.10277 25.2373 6.15089C25.2657 6.19901 25.2782 6.25484 25.2732 6.31048L26.0009 6.33597C26.1165 6.33521 26.2318 6.34817 26.3444 6.37456C26.4581 6.40162 26.5588 6.46752 26.6291 6.56089C26.6374 6.57311 26.6475 6.58707 26.6621 6.58908C26.6742 6.58952 26.6861 6.5858 26.6959 6.57856C26.8089 6.52466 26.9354 6.50558 27.0593 6.52373C27.4527 6.57593 27.8209 6.74644 28.1152 7.01269C28.1701 7.05213 28.2121 7.10684 28.2361 7.16999C28.2602 7.25654 28.2273 7.35573 28.2932 7.41642C28.3328 8.09226 28.4508 8.76121 28.6448 9.40981C28.6919 9.53113 28.7649 9.64067 28.8588 9.73075C28.954 9.83584 29.0311 9.95603 29.0868 10.0864C29.2125 10.4331 29.0222 10.8365 29.1444 11.1849C29.2076 11.3273 29.2882 11.4613 29.3845 11.5838C29.4978 11.7329 29.5679 11.9102 29.587 12.0965C29.5905 12.1826 29.5786 12.2633 29.5821 12.3443C29.5882 12.4562 29.6068 12.5672 29.6376 12.675C29.6864 12.8762 29.7379 13.0781 29.7918 13.2805C29.8432 13.6156 30.0177 13.9195 30.2812 14.1328C29.5889 14.2975 28.8658 14.2806 28.182 14.0838C28.0912 14.0501 28.0052 14.0044 27.9265 13.9479C27.7076 13.7472 27.5529 13.4864 27.4816 13.1981C27.3566 12.8908 27.276 12.5672 27.2423 12.2372C27.2446 12.1321 27.2319 12.0272 27.2045 11.9257C27.1168 11.7529 26.9746 11.6137 26.8 11.5296C26.617 11.4245 26.4519 11.2908 26.3112 11.1336C26.2414 11.0543 26.1885 10.9617 26.1559 10.8613C26.1232 10.7609 26.1114 10.6548 26.1212 10.5497C26.1353 10.4476 26.1777 10.3494 26.184 10.2471C26.1913 10.1963 26.182 10.1444 26.1575 10.0992C26.1329 10.0541 26.0944 10.0181 26.0477 9.99657C25.5423 9.83258 25.3115 9.22642 25.2124 8.70547C25.1688 8.43635 25.1523 8.16356 25.163 7.89115L25.1665 7.36188C25.0977 7.29672 25.0429 7.21826 25.0054 7.13126C24.9679 7.04426 24.9485 6.95054 24.9483 6.8558C24.9571 6.80087 24.9582 6.74499 24.9516 6.68976C24.9283 6.62185 24.8895 6.56037 24.8381 6.51023C24.7259 6.39209 24.6328 6.25727 24.5619 6.1106V6.1106Z" fill="#464353"/>
<path d="M22.966 7.75854C22.9673 7.92314 22.9586 8.08766 22.94 8.2512C22.9242 8.31286 22.8988 8.37435 22.8796 8.43164C22.8207 8.66118 22.8399 8.9038 22.9341 9.12126C23.0285 9.33719 23.1426 9.54399 23.2748 9.73905C23.3195 9.80569 23.356 9.8775 23.3834 9.95292C23.4054 10.0318 23.4185 10.1129 23.4225 10.1947C23.4518 10.524 23.5029 10.8511 23.5754 11.1737C23.8435 12.1582 24.1726 13.1251 24.5609 14.0687C24.5931 14.1181 24.6429 14.1535 24.7001 14.1678C24.7416 14.1701 24.7831 14.1624 24.821 14.1452L25.1964 14.0097C25.2282 14.0006 25.2578 13.985 25.2833 13.9641C25.319 13.9241 25.339 13.8725 25.3396 13.8189C25.1324 12.8037 24.8632 11.8021 24.5335 10.8199C24.196 9.96837 23.9102 9.09734 23.6775 8.21148C23.6606 7.91788 23.5751 7.63233 23.428 7.37773C23.3548 7.29022 23.379 7.32942 23.2887 7.37068C23.2428 7.38949 23.1983 7.41163 23.1557 7.43693C23.1019 7.47285 23.057 7.52041 23.0241 7.57609C22.9913 7.63177 22.9715 7.69413 22.966 7.75854Z" fill="#464353"/>
<path d="M24.0606 9.41956C24.15 9.94979 24.2429 10.4784 24.3349 11.0086L25.799 10.6552C25.7929 10.5043 25.7535 10.3565 25.6836 10.2226C25.5576 9.88706 25.5614 9.51618 25.4606 9.17078C25.3848 8.91108 25.2476 8.66653 25.1762 8.40261C25.1353 8.24947 25.1161 8.09072 25.0752 7.93586C25.0313 7.78309 24.9768 7.6336 24.9119 7.48852C24.8342 7.27868 24.7315 7.079 24.6059 6.8938C24.4114 6.94035 24.2371 7.04865 24.1093 7.2025C24.053 7.29632 24.02 7.40218 24.0128 7.51131C23.9806 7.83775 24.0929 8.16874 24.0478 8.4932C24.0013 8.80201 24.0053 9.11632 24.0596 9.42385L24.0606 9.41956Z" fill="#6C63FF"/>
<path d="M25.7086 16.4779C25.747 16.8005 25.6943 17.1274 25.5566 17.4217C25.4017 17.8813 25.293 18.3551 25.2319 18.8363C25.2232 18.959 25.1961 19.0798 25.1517 19.1945C25.1041 19.2968 25.024 19.383 24.9687 19.4809C24.8373 19.7508 24.7925 20.0548 24.8406 20.3512C24.8583 20.5469 24.8854 20.7428 24.9212 20.9354C24.9872 21.1671 24.9954 21.4113 24.9451 21.6468C25.0609 21.6233 25.1363 21.7745 25.1262 21.8914C25.0955 22.0061 25.097 22.127 25.1306 22.2409C25.2724 22.2962 25.2694 22.4915 25.2621 22.6437C25.2591 22.9074 25.2872 23.1706 25.3457 23.4277C25.5409 24.4702 25.75 25.51 25.9729 26.5472C26.484 26.7837 27.0619 26.8328 27.6055 26.686C27.6542 26.6707 27.6987 26.6443 27.7354 26.6089C27.7721 26.5734 27.8 26.5299 27.817 26.4819C27.8235 26.4278 27.8178 26.373 27.8003 26.3215L27.5807 25.4564C27.5127 25.2506 27.4877 25.0331 27.5071 24.8172C27.5335 24.6585 27.6057 24.4878 27.531 24.3452C27.5053 24.2965 27.4639 24.2578 27.4338 24.2107C27.3135 24.0267 27.3828 23.7845 27.3975 23.5645C27.4022 23.515 27.3997 23.465 27.3901 23.4163C27.3742 23.3594 27.3516 23.3046 27.3227 23.2531C27.1344 22.869 27.0488 22.4427 27.0741 22.0157C27.0827 21.9613 27.0764 21.9056 27.0558 21.8544C27.0411 21.8334 27.0281 21.8112 27.0166 21.7882C27.0081 21.7482 27.0135 21.7064 27.0319 21.6698C26.9619 21.6145 26.899 21.5508 26.8445 21.4802C26.8793 21.4594 26.9089 21.431 26.9311 21.3972C26.9533 21.3633 26.9676 21.3248 26.9728 21.2846C26.9779 21.2445 26.9739 21.2036 26.9611 21.1652C26.9482 21.1268 26.9267 21.0918 26.8983 21.0629C26.9238 21.0584 26.9474 21.0468 26.9667 21.0296C26.9859 21.0124 27 20.9902 27.0074 20.9654C27.0148 20.9407 27.0151 20.9144 27.0084 20.8894C27.0016 20.8645 26.9881 20.8419 26.9693 20.8242C26.9396 20.8021 26.8994 20.7927 26.8785 20.7604C26.8458 20.7142 26.8746 20.6502 26.9022 20.6017L27.0518 20.3464C27.1632 20.1541 27.1928 19.9188 27.3118 19.7309C27.4741 19.4571 27.6079 19.1673 27.7109 18.8661L28.1509 17.7222L28.4274 17.9712C28.5195 18.0447 28.5962 18.1357 28.6528 18.239C28.6907 18.3407 28.7138 18.4472 28.7215 18.5554C28.8125 19.1829 29.195 19.7327 29.3283 20.3515C29.3454 20.4916 29.3876 20.6274 29.453 20.7525C29.4804 20.7891 29.505 20.8279 29.5264 20.8684C29.5459 20.9298 29.5554 20.9939 29.5546 21.0583C29.5651 21.1847 29.6027 21.3073 29.6648 21.4178C29.7269 21.5283 29.8121 21.6242 29.9146 21.6989C30.0513 21.7962 30.2221 21.865 30.294 22.017C30.308 22.0639 30.328 22.1089 30.3533 22.1507C30.4189 22.2329 30.5633 22.2409 30.5896 22.3465C30.6049 22.4036 30.5734 22.4701 30.6043 22.5189C30.6218 22.5422 30.6453 22.5605 30.6721 22.5718L31.0717 22.7811C31.519 23.0154 31.7393 23.5387 32.0649 23.9195C32.1774 24.0448 32.2766 24.1814 32.3608 24.3273C32.4994 24.5882 32.5593 24.9121 32.7996 25.0804C32.8628 25.1159 32.92 25.1612 32.969 25.2145C33.0436 25.3167 33.0125 25.4573 33.0169 25.5839C33.0213 25.7105 33.1147 25.8629 33.2359 25.8274C33.1908 25.9798 33.1876 26.1415 33.2267 26.2955C33.7556 26.2789 34.2636 26.0848 34.6688 25.7446C34.7334 25.7004 34.7881 25.6432 34.8294 25.5768C34.8707 25.5103 34.8978 25.436 34.9088 25.3585C34.9112 25.3316 34.9057 25.3046 34.8931 25.2808C34.8699 25.2498 34.8389 25.2254 34.8033 25.2101C34.4296 24.9979 34.3254 24.5208 34.1419 24.1325C33.9611 23.8009 33.7602 23.4808 33.5402 23.1739C33.2108 22.4282 32.736 21.7558 32.1434 21.1961C31.9825 21.1154 31.847 20.9918 31.7519 20.8389C31.7124 20.7469 31.7093 20.6427 31.6785 20.5474C31.6667 20.4985 31.6405 20.4542 31.6032 20.4203C31.566 20.3865 31.5194 20.3646 31.4696 20.3575C31.5147 20.2123 31.534 20.0603 31.5266 19.9084C31.5317 19.8429 31.5254 19.7769 31.5081 19.7135C31.4836 19.6452 31.4514 19.5798 31.412 19.5188C31.2398 19.2154 31.1571 18.8694 31.1734 18.5209C31.2008 18.3433 31.1985 18.1623 31.1668 17.9854C31.1409 17.8989 31.0952 17.8188 31.0641 17.7355C31.0175 17.584 30.9945 17.4262 30.9958 17.2677L30.9705 16.6707C30.9689 16.4721 30.9471 16.2741 30.9055 16.0799C30.7907 15.6146 30.704 13.6737 30.2842 13.4469C29.8643 13.22 29.1037 14.6975 28.6239 14.7173C28.4121 14.7219 28.2023 14.7581 28.0012 14.8247C27.6875 14.9559 27.3981 15.1391 27.1454 15.3665L26.2507 16.0883C26.0839 16.2364 25.9022 16.367 25.7086 16.4779V16.4779Z" fill="#464353"/>
<path d="M21.7376 3.73649C21.8425 3.61009 21.9743 3.50864 22.1234 3.43952C22.2724 3.37039 22.435 3.33532 22.5993 3.33684C22.9295 3.34238 23.2532 3.43008 23.541 3.59202C23.6266 3.64291 23.7184 3.6826 23.8141 3.71014C23.9683 3.74501 24.1421 3.70626 24.2809 3.78128C24.3629 3.84727 24.4247 3.93503 24.4591 4.0345C24.4936 4.13397 24.4993 4.24114 24.4756 4.3437C24.4254 4.55037 24.4407 4.76752 24.5193 4.96512C24.5578 5.01733 24.5927 5.07207 24.6237 5.12898C24.6566 5.24221 24.6511 5.36312 24.6083 5.47297C24.5455 5.39964 24.4875 5.32231 24.4347 5.24147C24.4068 5.2017 24.3659 5.17284 24.3191 5.15984C24.2722 5.14683 24.2224 5.15047 24.1779 5.17015C24.0968 5.22278 24.0958 5.32088 24.0872 5.4085C24.0786 5.49613 24.0567 5.60156 23.9727 5.62831C23.9379 5.6355 23.9017 5.6321 23.8688 5.61858C23.836 5.60505 23.8079 5.582 23.7883 5.55239C23.6497 5.37753 23.7111 5.09987 23.5751 4.92162C23.4971 4.8211 23.3647 4.76944 23.2927 4.66389C23.2359 4.5767 23.2232 4.47661 23.1742 4.387C23.1252 4.29738 23.0051 4.23132 22.9283 4.29006C22.9012 4.31443 22.8782 4.34306 22.8603 4.3748C22.8099 4.44425 22.7375 4.49466 22.6549 4.51787C22.5723 4.54108 22.4843 4.53574 22.4051 4.50271C22.3448 4.46368 22.2794 4.43342 22.2106 4.41283C22.1655 4.40972 22.1205 4.41925 22.0805 4.44036C22.0406 4.46147 22.0073 4.49332 21.9845 4.53232C21.9386 4.61004 21.9154 4.69902 21.9175 4.78922C21.9355 4.91021 21.9162 5.03381 21.8623 5.1436C21.8348 5.18053 21.8006 5.21197 21.7615 5.23629C21.7134 5.27492 21.6549 5.29828 21.5935 5.30336C21.532 5.30844 21.4704 5.29502 21.4166 5.26481C21.3849 5.23396 21.3616 5.19546 21.349 5.153C21.3364 5.11055 21.335 5.06558 21.3448 5.0224C21.3649 4.93515 21.3911 4.84939 21.423 4.76573C21.481 4.57407 21.4147 4.35673 21.4776 4.17636C21.5439 4.0186 21.6314 3.87062 21.7376 3.73649V3.73649Z" fill="#464353"/>
<path d="M22.4369 8.12939C22.4268 8.17431 22.4307 8.22123 22.448 8.26389C22.4658 8.29331 22.4904 8.31801 22.5198 8.33587C22.725 8.46937 22.9598 8.55079 23.2036 8.57308C23.237 8.57438 23.2695 8.58358 23.2986 8.59992C23.3238 8.62455 23.3408 8.65631 23.3474 8.69091C23.3539 8.72552 23.3497 8.7613 23.3353 8.79343C23.3052 8.85727 23.2888 8.92675 23.2874 8.99733C23.3029 9.1276 23.4558 9.18655 23.5845 9.20887C23.7654 9.24897 23.9548 9.21588 24.1113 9.11681C24.2106 9.02985 24.2873 8.91997 24.3345 8.79671C24.7068 7.9855 24.8493 7.08542 25.2258 6.27429C25.2545 6.22094 25.274 6.16313 25.2834 6.10329C25.2873 6.07367 25.2835 6.04354 25.2723 6.01585C25.2611 5.98816 25.2428 5.96388 25.2194 5.94538C25.1531 5.90276 25.0476 5.92392 25.0042 5.85508C24.9825 5.82194 24.986 5.77726 24.9669 5.74159C24.927 5.66679 24.8175 5.67669 24.7435 5.63221C24.6856 5.60008 24.6465 5.53562 24.5822 5.52145C24.5498 5.51854 24.5172 5.52333 24.487 5.53546C24.4569 5.54758 24.43 5.56668 24.4087 5.59119C24.2097 5.80282 24.055 6.05201 23.9536 6.32417C23.7656 6.7259 23.547 7.11266 23.3 7.48103C23.281 7.33382 23.2145 7.19681 23.1105 7.09085C23 7.0663 22.8542 7.25796 22.7925 7.32991C22.6002 7.55704 22.4768 7.83444 22.4369 8.12939V8.12939Z" fill="#6C63FF"/>
<path opacity="0.1" d="M24.7375 5.69476C24.6929 5.69452 24.6488 5.70435 24.6084 5.72353C24.5681 5.74271 24.5327 5.77073 24.5047 5.80551C24.4452 5.8982 24.41 6.00435 24.4022 6.11421C24.3389 6.46109 24.2081 6.79217 24.0173 7.0887" fill="black"/>
<path opacity="0.1" d="M25.051 5.94813C24.9894 5.94829 24.9289 5.96448 24.8755 5.99513C24.8221 6.02577 24.7776 6.06981 24.7463 6.1229C24.7034 6.21962 24.6758 6.32247 24.6646 6.4277C24.6067 6.66046 24.4997 6.87815 24.3508 7.0662" fill="black"/>
<path d="M39.5562 18.3662L39.5714 17.5919C39.5825 17.0246 39.3679 16.4761 38.9747 16.0671C38.5814 15.6581 38.0418 15.4221 37.4745 15.411L7.04511 14.8133C6.47785 14.8021 5.92939 15.0168 5.52039 15.41C5.1114 15.8032 4.87538 16.3428 4.86424 16.9101L4.83633 18.3306L39.5562 18.3662Z" fill="#33323D"/>
<path d="M15.5298 14.0817C15.5298 14.0817 15.3379 19.4693 16.2581 21.2613C17.1782 23.0533 17.4362 30.7753 17.4362 30.7753C17.4362 30.7753 27.4323 32.0045 34.4571 29.8686C41.4819 27.7326 56.3519 27.0891 56.3519 27.0891L54.1805 10.1708C54.1805 10.1708 41.8318 9.13462 34.7315 12.3519C27.6312 15.5691 15.5298 14.0817 15.5298 14.0817Z" fill="#E9702D"/>
<path opacity="0.1" d="M15.5298 14.0817C15.5298 14.0817 15.3379 19.4693 16.2581 21.2613C17.1782 23.0533 17.4362 30.7753 17.4362 30.7753C17.4362 30.7753 27.4323 32.0045 34.4571 29.8686C41.4819 27.7326 56.3519 27.0891 56.3519 27.0891L54.1805 10.1708C54.1805 10.1708 41.8318 9.13462 34.7315 12.3519C27.6312 15.5691 15.5298 14.0817 15.5298 14.0817Z" fill="black"/>
<path d="M17.7089 16.0934C17.7089 16.0934 17.3084 20.5337 18.066 21.9704C18.8236 23.4072 18.736 29.7497 18.736 29.7497C18.736 29.7497 27.7419 30.3449 34.197 28.2881C40.6522 26.2313 54.1542 25.0807 54.1542 25.0807L52.8937 11.2555C52.8937 11.2555 41.7465 10.922 35.1792 13.8666C28.6119 16.8111 17.7089 16.0934 17.7089 16.0934Z" fill="#BB5A24"/>
<path opacity="0.1" d="M34.8457 25.7747C36.1314 25.6402 36.9397 23.2956 36.6511 20.538C36.3625 17.7804 35.0863 15.654 33.8006 15.7886C32.5149 15.9231 31.7066 18.2677 31.9952 21.0253C32.2838 23.7829 33.56 25.9093 34.8457 25.7747Z" fill="black"/>
<path opacity="0.2" d="M47.5613 1.81945C47.5613 1.81945 35.4892 4.62402 29.7194 9.86336C23.9497 15.1027 11.9752 17.4031 11.9752 17.4031C11.9752 17.4031 13.445 22.5893 14.8707 24.0125C16.2965 25.4357 18.9105 32.7066 18.9105 32.7066C18.9105 32.7066 28.8018 30.8119 34.8308 26.6174C40.8597 22.4229 54.8186 17.2514 54.8186 17.2514L47.5613 1.81945Z" fill="black"/>
<path d="M11.8112 16.6276C11.8112 16.6276 13.2801 21.8146 14.705 23.2378C16.1299 24.6609 18.7448 31.931 18.7448 31.931C18.7448 31.931 28.6378 30.0364 34.6668 25.8427C40.6957 21.6491 54.6536 16.4819 54.6536 16.4819L47.3964 1.04819C47.3964 1.04819 35.3251 3.85278 29.5554 9.09213C23.7856 14.3315 11.8112 16.6276 11.8112 16.6276Z" fill="#D16528"/>
<path opacity="0.1" d="M11.8112 16.6276C11.8112 16.6276 13.2801 21.8146 14.705 23.2378C16.1299 24.6609 18.7448 31.931 18.7448 31.931C18.7448 31.931 28.6378 30.0364 34.6668 25.8427C40.6957 21.6491 54.6536 16.4819 54.6536 16.4819L47.3964 1.04819C47.3964 1.04819 35.3251 3.85278 29.5554 9.09213C23.7856 14.3315 11.8112 16.6276 11.8112 16.6276Z" fill="black"/>
<path d="M14.4977 17.8749C14.4977 17.8749 15.4795 22.2244 16.6416 23.3584C17.8036 24.4924 19.6659 30.5555 19.6659 30.5555C19.6659 30.5555 28.4193 28.358 33.932 24.4193C39.4446 20.4805 51.9432 15.2477 51.9432 15.2477L46.5024 2.47136C46.5024 2.47136 35.7911 5.57379 30.4436 10.3919C25.0962 15.2101 14.4977 17.8749 14.4977 17.8749Z" fill="#E9702D"/>
<path opacity="0.1" d="M33.7839 21.8292C34.9662 21.3066 35.0161 18.8272 33.8952 16.2912C32.7744 13.7552 30.9072 12.123 29.7248 12.6456C28.5425 13.1682 28.4926 15.6476 29.6135 18.1836C30.7344 20.7196 32.6015 22.3518 33.7839 21.8292Z" fill="black"/>
<path opacity="0.1" d="M40.3642 19.1394L39.9438 40.5444C39.939 40.7875 39.8864 41.0273 39.7889 41.2501C39.6914 41.4729 39.551 41.6742 39.3757 41.8427C39.2004 42.0112 38.9936 42.1435 38.7672 42.232C38.5407 42.3206 38.299 42.3636 38.0559 42.3587L6.22753 41.7335C5.73687 41.7237 5.2702 41.5193 4.93014 41.1655C4.59008 40.8116 4.40447 40.3372 4.41411 39.8465L4.87695 16.2837C5.44444 16.5769 6.08538 16.6975 6.72063 16.6306L38.549 17.2558C39.0393 17.2655 39.5058 17.4692 39.8461 17.8223C40.1864 18.1754 40.3727 18.6491 40.3642 19.1394V19.1394Z" fill="black"/>
<path d="M40.3603 19.4122L39.9398 40.8173C39.93 41.3082 39.7256 41.775 39.3715 42.1153C39.0175 42.4555 38.5429 42.6412 38.052 42.6316L6.22361 42.0064C5.73294 41.9965 5.26628 41.7922 4.92622 41.4383C4.58616 41.0845 4.40054 40.61 4.41018 40.1194L4.87305 16.5557C5.4407 16.8484 6.08149 16.969 6.71673 16.9026L38.5451 17.5278C39.0356 17.5374 39.5022 17.7413 39.8425 18.0946C40.1828 18.4479 40.369 18.9218 40.3603 19.4122V19.4122Z" fill="#504F60"/>
<path opacity="0.1" d="M40.115 27.3243L39.9805 34.1694L33.3428 34.039C32.4351 34.0212 31.5716 33.6435 30.9424 32.9891C30.3131 32.3346 29.9696 31.457 29.9875 30.5493C30.0053 29.6416 30.383 28.7781 31.0375 28.1489C31.6919 27.5196 32.5695 27.1761 33.4772 27.1939L40.115 27.3243Z" fill="black"/>
<path d="M40.2061 27.1434L40.0716 33.9902L33.433 33.8598C32.5252 33.842 31.6616 33.4643 31.0323 32.8097C30.403 32.1552 30.0594 31.2774 30.0773 30.3696C30.0951 29.4618 30.4729 28.5982 31.1274 27.9689C31.7819 27.3396 32.6597 26.996 33.5675 27.0139L40.2061 27.1434Z" fill="#33323D"/>
<path opacity="0.1" d="M33.7898 31.9587C34.5268 31.9732 35.136 31.3875 35.1505 30.6505C35.1649 29.9135 34.5792 29.3044 33.8422 29.2899C33.1053 29.2754 32.4961 29.8611 32.4816 30.5981C32.4671 31.3351 33.0528 31.9443 33.7898 31.9587Z" fill="black"/>
<path d="M33.8855 31.7798C34.6225 31.7943 35.2317 31.2086 35.2462 30.4716C35.2606 29.7346 34.6749 29.1254 33.9379 29.1109C33.201 29.0965 32.5918 29.6822 32.5773 30.4191C32.5628 31.1561 33.1485 31.7653 33.8855 31.7798Z" fill="#6C63FF"/>
<path d="M51.7332 27.3114C51.7744 27.8837 51.3317 28.4302 51.4463 28.9919C51.4715 29.1121 51.5209 29.2257 51.5366 29.3474C51.5376 29.6868 51.4118 30.0144 51.1837 30.2657L49.5117 32.6188C49.4444 32.7223 49.3645 32.817 49.2737 32.9007C48.9585 33.1717 48.4945 33.1333 48.0825 33.2078C47.7944 33.2604 47.5211 33.3748 47.2815 33.5433C47.2713 33.5514 47.2647 33.5632 47.263 33.5762C47.2613 33.5891 47.2646 33.6022 47.2724 33.6128C47.3381 33.7059 47.4262 33.7812 47.5285 33.8316C47.6307 33.882 47.744 33.906 47.858 33.9014C47.8999 33.959 47.8553 34.0408 47.7926 34.0791C47.7053 34.1394 47.5837 34.1517 47.5636 34.2993C47.5566 34.3508 47.5661 34.4031 47.5908 34.4487C47.6543 34.5502 47.7547 34.6231 47.8708 34.6522C48.1592 34.7145 48.4588 34.7003 48.7399 34.6108C49.021 34.5213 49.2738 34.3598 49.4731 34.1423C49.9028 33.7393 50.2149 33.2256 50.6362 32.8147C50.8696 32.5878 51.1333 32.3941 51.3735 32.1742C51.8379 31.7188 52.2471 31.2102 52.5927 30.6592C52.7112 30.5029 52.8019 30.3274 52.8611 30.1404C52.9096 29.9511 52.8918 29.7579 52.9462 29.5748C53.0414 29.3427 53.1777 29.1296 53.3485 28.9458C53.6603 28.5608 53.8267 28.0784 53.8185 27.5831C53.8095 27.3369 53.7315 27.0983 53.5936 26.8943C53.4556 26.6903 53.2632 26.5291 53.0382 26.429C52.8962 26.3687 52.7385 26.3559 52.5887 26.3927C52.4037 26.4654 52.2428 26.5883 52.1239 26.7476L51.8062 27.0986C51.7274 27.1753 51.6645 27.2668 51.6211 27.3678C51.6002 27.4186 51.5943 27.4744 51.6043 27.5285C51.6142 27.5825 51.6395 27.6326 51.6771 27.6727" fill="#FBBEBE"/>
<path opacity="0.05" d="M51.7332 27.3114C51.7744 27.8837 51.3317 28.4302 51.4463 28.9919C51.4715 29.1121 51.5209 29.2257 51.5366 29.3474C51.5376 29.6868 51.4118 30.0144 51.1837 30.2657L49.5117 32.6188C49.4444 32.7223 49.3645 32.817 49.2737 32.9007C48.9585 33.1717 48.4945 33.1333 48.0825 33.2078C47.7944 33.2604 47.5211 33.3748 47.2815 33.5433C47.2713 33.5514 47.2647 33.5632 47.263 33.5762C47.2613 33.5891 47.2646 33.6022 47.2724 33.6128C47.3381 33.7059 47.4262 33.7812 47.5285 33.8316C47.6307 33.882 47.744 33.906 47.858 33.9014C47.8999 33.959 47.8553 34.0408 47.7926 34.0791C47.7053 34.1394 47.5837 34.1517 47.5636 34.2993C47.5566 34.3508 47.5661 34.4031 47.5908 34.4487C47.6543 34.5502 47.7547 34.6231 47.8708 34.6522C48.1592 34.7145 48.4588 34.7003 48.7399 34.6108C49.021 34.5213 49.2738 34.3598 49.4731 34.1423C49.9028 33.7393 50.2149 33.2256 50.6362 32.8147C50.8696 32.5878 51.1333 32.3941 51.3735 32.1742C51.8379 31.7188 52.2471 31.2102 52.5927 30.6592C52.7112 30.5029 52.8019 30.3274 52.8611 30.1404C52.9096 29.9511 52.8918 29.7579 52.9462 29.5748C53.0414 29.3427 53.1777 29.1296 53.3485 28.9458C53.6603 28.5608 53.8267 28.0784 53.8185 27.5831C53.8095 27.3369 53.7315 27.0983 53.5936 26.8943C53.4556 26.6903 53.2632 26.5291 53.0382 26.429C52.8962 26.3687 52.7385 26.3559 52.5887 26.3927C52.4037 26.4654 52.2428 26.5883 52.1239 26.7476L51.8062 27.0986C51.7274 27.1753 51.6645 27.2668 51.6211 27.3678C51.6002 27.4186 51.5943 27.4744 51.6043 27.5285C51.6142 27.5825 51.6395 27.6326 51.6771 27.6727" fill="black"/>
<path d="M52.6735 42.0463C52.2976 42.2317 51.8707 42.2862 51.4603 42.2015C51.3942 42.1924 51.3151 42.1857 51.2737 42.2366C51.2102 42.3102 51.2812 42.4226 51.3549 42.4817C51.5945 42.6701 51.8783 42.7942 52.1793 42.8422C52.4478 42.8857 52.7192 42.9092 52.9912 42.9124C53.7321 42.96 54.4755 42.9475 55.2143 42.8751C55.2577 42.8726 55.3001 42.8611 55.3389 42.8414C55.3868 42.8093 55.4207 42.7601 55.4337 42.7039C55.4535 42.607 55.4471 42.5065 55.415 42.413C55.383 42.3194 55.3265 42.2361 55.2514 42.1718C55.1 42.0455 54.927 41.9479 54.7406 41.8838L54.1003 41.6199C53.9299 41.5157 53.742 41.4432 53.5458 41.4058C53.2349 41.4195 52.9328 41.9008 52.6735 42.0463Z" fill="#3F3D56"/>
<path opacity="0.05" d="M52.6735 42.0463C52.2976 42.2317 51.8707 42.2862 51.4603 42.2015C51.3942 42.1924 51.3151 42.1857 51.2737 42.2366C51.2102 42.3102 51.2812 42.4226 51.3549 42.4817C51.5945 42.6701 51.8783 42.7942 52.1793 42.8422C52.4478 42.8857 52.7192 42.9092 52.9912 42.9124C53.7321 42.96 54.4755 42.9475 55.2143 42.8751C55.2577 42.8726 55.3001 42.8611 55.3389 42.8414C55.3868 42.8093 55.4207 42.7601 55.4337 42.7039C55.4535 42.607 55.4471 42.5065 55.415 42.413C55.383 42.3194 55.3265 42.2361 55.2514 42.1718C55.1 42.0455 54.927 41.9479 54.7406 41.8838L54.1003 41.6199C53.9299 41.5157 53.742 41.4432 53.5458 41.4058C53.2349 41.4195 52.9328 41.9008 52.6735 42.0463Z" fill="black"/>
<path d="M53.2932 33.4892C52.9739 33.8085 52.793 34.2405 52.7893 34.692C52.8437 34.9269 52.9293 35.1536 53.0437 35.3658C53.1601 35.6715 53.2445 35.9884 53.2954 36.3115C53.3869 36.7815 53.4783 37.2524 53.5309 37.7285C53.4665 38.6091 53.3525 39.4853 53.1893 40.353C53.1932 40.4843 53.1504 40.6127 53.0686 40.7155C53.0326 40.7518 52.9812 40.781 52.9674 40.8289C52.9569 40.8754 52.9636 40.9241 52.9862 40.9661C53.1456 41.3091 53.4287 41.5793 53.7787 41.7227C54.2739 41.9338 54.7939 42.0814 55.3262 42.162C55.3756 42.1685 55.4259 42.163 55.4728 42.1459C55.5235 42.1162 55.5638 42.0716 55.5881 42.0182C55.8684 41.5073 55.6446 39.667 55.6603 39.0846C55.6699 38.5985 55.7981 38.1182 55.7861 37.6325C55.7765 37.2424 55.6774 36.8558 55.6497 36.4705C55.6302 35.8297 55.7007 35.1893 55.8592 34.5682C55.9547 34.0872 56.0572 33.6064 56.1818 33.132C56.2451 32.8391 56.3555 32.5584 56.5088 32.3009C56.6366 32.1029 56.8146 31.9386 56.9629 31.7513C57.3745 31.233 57.5658 30.5736 57.4955 29.9155C57.1485 29.9616 56.8075 30.0452 56.4785 30.1649C56.144 30.2987 55.8349 30.4889 55.5646 30.7271C55.3569 30.9459 55.1623 31.1769 54.982 31.4189C54.7113 31.736 54.444 32.0552 54.18 32.3765C53.8784 32.7453 53.5828 33.1162 53.2932 33.4892Z" fill="#464353"/>
<path opacity="0.05" d="M53.2933 33.467C52.974 33.7863 52.7931 34.2183 52.7894 34.6698C52.8436 34.905 52.9292 35.1319 53.0438 35.3444C53.1603 35.65 53.2447 35.967 53.2955 36.2901C53.387 36.7601 53.4784 37.2318 53.531 37.7071C53.4666 38.5876 53.3526 39.4639 53.1894 40.3315C53.1933 40.4631 53.1505 40.5919 53.0686 40.695C53.0326 40.7313 52.9813 40.7595 52.9675 40.8074C52.9568 40.854 52.9635 40.9027 52.9863 40.9447C53.1464 41.2879 53.4291 41.559 53.7787 41.7048C54.2788 41.8799 54.8 41.9879 55.3285 42.0261C55.378 42.0326 55.4283 42.0271 55.4751 42.0101C55.5258 41.9808 55.5662 41.9365 55.5904 41.8832C55.8707 41.3723 55.6447 39.6465 55.6603 39.0667C55.6699 38.5806 55.7981 38.1002 55.7861 37.6145C55.7766 37.2245 55.6774 36.8378 55.6497 36.4534C55.6302 35.8126 55.7007 35.1722 55.8592 34.5511C55.9547 34.0709 56.0571 33.5901 56.1818 33.1148C56.2451 32.8219 56.3555 32.5413 56.5088 32.2838C56.6366 32.0858 56.8146 31.9214 56.9629 31.7341C57.3747 31.2159 57.566 30.5566 57.4955 29.8984C57.1485 29.9446 56.8075 30.0282 56.4785 30.1478C56.144 30.2822 55.8349 30.4725 55.5645 30.7108C55.3567 30.9293 55.1622 31.16 54.982 31.4017C54.7113 31.7189 54.444 32.0384 54.18 32.3603C53.8785 32.725 53.5829 33.094 53.2933 33.467Z" fill="black"/>
<path d="M50.4582 25.5589C51.2898 25.5753 51.9771 24.9144 51.9934 24.0829C52.0098 23.2513 51.3489 22.564 50.5174 22.5476C49.6858 22.5313 48.9985 23.1922 48.9821 24.0237C48.9658 24.8552 49.6267 25.5426 50.4582 25.5589Z" fill="#FBBEBE"/>
<path d="M51.8491 24.0168C51.9838 24.2415 52.1624 24.4367 52.3743 24.5908C52.5861 24.7449 52.8268 24.8547 53.082 24.9138L52.9604 25.3237C52.8156 26.049 52.4682 26.7185 51.9585 27.2544C51.985 27.1332 51.9864 27.0079 51.9626 26.8862C51.9388 26.7645 51.8902 26.6489 51.82 26.5467C51.6793 26.3429 51.5108 26.1597 51.3195 26.0024L50.4678 25.2343C50.4433 25.2134 50.4227 25.1882 50.4073 25.1599C50.387 25.1065 50.3881 25.0473 50.4105 24.9947C50.5707 24.6788 50.8114 24.4106 51.1083 24.2175C51.2399 24.1002 51.358 23.9685 51.4604 23.825C51.6364 23.5814 51.7391 23.8322 51.8491 24.0168Z" fill="#FBBEBE"/>
<path d="M48.5362 22.5008L48.5073 22.2171C48.7435 22.2837 48.9738 22.086 49.1293 21.8799C49.2849 21.6738 49.4308 21.4305 49.664 21.3472C49.8122 21.3238 49.9636 21.3313 50.1087 21.3693C50.2539 21.4072 50.3897 21.4748 50.5074 21.5678C50.8049 21.7407 51.1328 21.8546 51.4734 21.9035C51.5279 21.9063 51.5818 21.916 51.6338 21.9325C51.718 21.9825 51.7876 22.0538 51.8356 22.1392C51.8836 22.2246 51.9084 22.321 51.9074 22.419C51.9069 22.6196 51.9384 22.8189 52.0008 23.0096C52.0601 23.145 52.1734 23.2479 52.2413 23.3818C52.4202 23.7416 52.2308 24.2251 52.4184 24.5782L51.9444 24.1265C51.9013 24.0852 51.8403 24.0384 51.7905 24.0753C51.7407 24.1122 51.7475 24.1605 51.7311 24.2075C51.7161 24.238 51.6952 24.2652 51.6696 24.2876C51.6441 24.31 51.6143 24.3272 51.5821 24.3381C51.5499 24.3489 51.5159 24.3534 51.482 24.3511C51.4481 24.3488 51.4149 24.3398 51.3845 24.3246C51.2637 24.2517 51.16 24.1537 51.0803 24.0372C50.8846 23.7767 50.6247 23.5714 50.326 23.4414C50.1965 23.3901 50.0575 23.3669 49.9183 23.3734C49.7792 23.3798 49.643 23.4158 49.5188 23.4789C49.2909 23.6018 49.1199 23.8946 48.8436 23.896C48.4647 23.9032 48.3211 23.1972 48.1519 22.9133C48.2172 22.8658 48.2637 22.7969 48.2833 22.7187C48.3029 22.6404 48.2945 22.5577 48.2593 22.485C48.2861 22.4813 48.5319 22.4568 48.5362 22.5008Z" fill="#464353"/>
<path d="M30.0835 13.3319C29.9603 13.437 29.846 13.5522 29.7419 13.6763C29.6372 13.8021 29.5796 13.9604 29.5791 14.1241C29.5785 14.1717 29.5926 14.2182 29.6195 14.2575C29.6333 14.2761 29.6526 14.29 29.6746 14.2972C29.6967 14.3045 29.7205 14.3046 29.7427 14.2977C29.7678 14.2856 29.7895 14.2674 29.8057 14.2448C29.8727 14.1671 29.9437 14.0929 30.0183 14.0226C30.0455 13.9964 30.0813 13.9696 30.1173 13.9798C30.1332 13.9857 30.1475 13.9954 30.1589 14.0081C30.1994 14.0453 30.2283 14.0934 30.2423 14.1466C30.2463 14.1952 30.2392 14.244 30.2217 14.2894C30.2041 14.3348 30.1764 14.3757 30.1407 14.4089C30.0689 14.4747 30.0121 14.5551 29.9742 14.6448C29.9642 14.6693 29.9636 14.6966 29.9727 14.7214C29.9843 14.7396 30.0007 14.7543 30.0201 14.7637C30.1079 14.8147 30.2059 14.8456 30.3071 14.8543C30.4082 14.863 30.51 14.8492 30.6052 14.8139C30.7301 14.7664 30.8428 14.6817 30.971 14.6395C31.0267 14.6255 31.0807 14.6057 31.1323 14.5807C31.1693 14.557 31.2012 14.5264 31.2263 14.4904C31.2514 14.4544 31.2691 14.4138 31.2784 14.371C31.296 14.2862 31.3008 14.1992 31.293 14.113C31.2842 13.7755 31.2186 13.4419 31.0989 13.1263C31.092 13.1058 31.0799 13.0875 31.0638 13.0731C31.0454 13.0612 31.024 13.0548 31.0022 13.0547C30.8165 13.0007 30.6221 12.9838 30.4299 13.0047C30.3758 13.0331 30.3288 13.0734 30.2925 13.1225C30.2661 13.1521 30.0844 13.2906 30.0835 13.3319Z" fill="#A1616A"/>
<path d="M30.0352 13.1903C30.0382 13.0389 29.8595 12.6705 30.156 12.6513C30.1592 12.4896 29.9323 12.3844 29.9786 12.2175C29.9935 12.161 30.0426 12.1155 30.0498 12.0571C30.072 11.8914 29.7744 11.7935 29.8273 11.6379C29.8475 11.5763 29.9153 11.5415 29.9294 11.4806C29.9658 11.3376 29.7106 11.2689 29.7084 11.1217C29.7093 11.0718 29.7378 11.0259 29.7371 10.9768C29.7363 10.9277 29.685 10.8665 29.6542 10.8116C29.5795 10.6716 29.6216 10.4581 29.481 10.3839C29.5746 10.3935 29.6075 10.2556 29.5713 10.1697C29.5351 10.0837 29.4574 10.0082 29.4584 9.91439C29.4638 9.88023 29.4645 9.84549 29.4604 9.81115C29.4364 9.7203 29.2902 9.70968 29.2653 9.6214C29.2637 9.58755 29.2644 9.55364 29.2673 9.51988C29.2592 9.45001 29.1835 9.40376 29.1202 9.38272C29.0503 9.36939 28.9832 9.3439 28.922 9.3074C28.8788 9.27384 28.83 9.21951 28.783 9.24269C28.7656 9.25268 28.7566 9.2723 28.7425 9.28752C28.6853 9.35181 28.5792 9.32132 28.5104 9.27177C28.4138 9.19178 28.3339 9.09355 28.2753 8.98267C28.2166 8.87179 28.1803 8.75045 28.1685 8.62556C28.1295 8.37863 28.1353 8.12398 28.0851 7.87941C28.0696 7.80298 28.0487 7.72779 28.0223 7.6544C27.9814 7.5834 27.948 7.50832 27.9226 7.43037C27.9142 7.28733 28.2074 7.39035 28.3199 7.4072C28.4286 7.41994 28.5359 7.4428 28.6404 7.47547C28.7519 7.52011 28.8609 7.57051 28.9671 7.62648C29.4115 7.83317 29.9513 7.86786 30.3053 8.20791C30.4039 8.33604 30.5289 8.44151 30.6719 8.51721C30.7421 8.53223 30.8113 8.5517 30.879 8.57551C31.0495 8.6589 31.07 8.88567 31.1606 9.05184C31.1891 9.09577 31.2138 9.14205 31.2345 9.19015C31.2512 9.24608 31.2584 9.30439 31.256 9.36271L31.2605 9.79315C31.284 10.5134 31.2583 11.2344 31.1837 11.9511C31.1342 12.1838 31.1321 12.4241 31.1775 12.6576C31.1952 12.72 31.2199 12.779 31.2359 12.8421C31.2498 12.916 31.2561 12.9911 31.2547 13.0663L31.2587 13.3452C31.2617 13.3669 31.2564 13.389 31.2437 13.4069C31.2333 13.4153 31.2211 13.4212 31.2081 13.4241C31.195 13.4269 31.1815 13.4268 31.1685 13.4235C30.7812 13.3815 30.394 13.1552 30.0249 13.2797" fill="#464353"/>
<path d="M47.3123 34.9432C49.8463 34.993 51.9064 34.7363 51.9136 34.37C51.9208 34.0036 49.8724 33.6663 47.3383 33.6165C44.8043 33.5667 42.7442 33.8234 42.737 34.1897C42.7298 34.5561 44.7782 34.8934 47.3123 34.9432Z" fill="#504F60"/>
<path d="M51.2701 34.3895C51.196 34.0437 51.152 33.7382 51.152 33.7382C51.1637 33.5097 51.1166 33.2821 51.0153 33.0771L51.0171 32.9824L51.0308 32.2872C51.0802 32.1622 51.1401 32.0416 51.21 31.9267C51.2802 31.5914 51.287 31.2458 51.23 30.908C50.9962 30.3198 50.889 29.6889 50.9152 29.0565C51.0411 28.3429 50.0262 25.8544 50.0262 25.8544C50.0373 25.6169 50.0754 25.3815 50.1398 25.1526C50.1522 25.1044 50.1578 25.0547 50.1565 25.0049L50.1567 24.9954C50.0951 24.5268 49.9731 24.0682 49.7936 23.631L49.8766 21.9457C50.0282 21.1709 49.9925 20.3711 49.7727 19.6128C49.6459 19.1439 49.5663 18.7696 49.5169 18.4803C49.5115 18.4484 49.5061 18.4181 49.5015 18.3862C50.3041 18.278 50.9169 18.1902 50.9169 18.1902C50.7652 17.3985 50.5203 16.6275 50.1874 15.8933C49.9293 15.4543 49.7478 14.9746 49.6507 14.4747C49.5716 13.8818 49.6177 13.279 49.7861 12.7051C49.9701 12.3704 50.0802 12.0001 50.1087 11.6193C50.1087 11.6193 50.7194 11.2009 50.7982 11.0019C50.9097 10.7278 50.9828 10.4396 51.0156 10.1455C51.0201 9.9149 50.9492 9.71382 50.9766 9.58612C51.0041 9.45842 50.816 9.00027 50.9175 8.78365C50.9447 8.71718 50.9596 8.64629 50.9613 8.57449C50.9615 8.5725 50.9616 8.57049 50.9614 8.56848C50.9662 8.37739 50.9523 8.18629 50.9201 7.99789C50.7491 7.84762 50.5483 7.73516 50.3309 7.66786L50.3191 7.61512L50.2873 7.47765C50.2684 7.46473 50.2489 7.45285 50.2287 7.44206L50.2296 7.39216L50.2283 7.19503L50.3317 6.7538C50.5327 5.98312 49.5059 5.85193 49.5059 5.85193C49.4463 5.73156 49.3442 5.63756 49.2193 5.58809C49.0142 5.51176 49.1621 6.74633 49.2569 6.82996C49.4045 7.03376 49.5361 7.24871 49.6505 7.47288V7.47288L49.6671 7.5042C49.6498 7.51925 49.6336 7.53562 49.6188 7.55317L49.6523 7.82149L49.6575 7.86291C49.5876 7.94621 49.5304 8.03934 49.4876 8.1393C49.5899 8.25949 49.6409 8.41502 49.6297 8.57244C49.612 8.7523 49.6295 8.93391 49.6812 9.10709C49.6703 9.09397 49.5406 8.94854 49.4083 8.98037C49.276 9.0122 48.9038 9.11592 48.9038 9.11592C48.9038 9.11592 48.6276 9.15869 48.6539 9.22032C48.6803 9.28195 48.4617 9.54447 48.4617 9.54447L47.7347 8.82786C47.7273 8.80706 47.72 8.78539 47.7144 8.76549C47.6861 8.66351 47.6674 8.55913 47.6585 8.45368C47.7395 8.43617 47.8191 8.4127 47.8966 8.38348C47.975 8.35826 48.0461 8.31448 48.104 8.25586C48.1683 8.1606 48.2113 8.05249 48.2298 7.93901C48.3107 7.73005 48.4065 7.52714 48.5163 7.33182C48.6733 6.98778 48.7291 6.60617 48.6773 6.23157C48.6682 6.11623 48.6314 6.00479 48.5701 5.9067C48.452 5.73827 48.2306 5.66593 48.0774 5.53037C47.9243 5.39482 47.8259 5.18976 47.6376 5.09138C47.462 5.01135 47.2652 4.99056 47.0767 5.03217C46.7047 5.08597 46.346 5.20851 46.0188 5.39353C45.9172 5.4696 45.7922 5.50793 45.6655 5.50193C45.5625 5.46963 45.4742 5.40207 45.4162 5.31112C45.4159 5.30768 45.416 5.30423 45.4164 5.3008L45.4089 5.29032C45.3269 5.46312 45.2838 5.65176 45.2826 5.84299C45.2802 5.87161 45.2797 5.90033 45.2809 5.92902L45.2798 5.98581C45.2794 5.99894 45.2771 6.01193 45.273 6.02441C45.2566 6.06207 45.2322 6.09567 45.2014 6.12284C45.178 6.14941 45.1567 6.17778 45.1378 6.20767C45.1398 6.19719 45.1435 6.18709 45.1487 6.17775C45.1001 6.24599 45.072 6.32663 45.0675 6.41027C45.0628 6.47122 45.0817 6.53163 45.1201 6.57913C45.1566 6.61611 45.1966 6.64947 45.2395 6.67874C45.1826 6.96269 45.2142 7.25726 45.33 7.52271C45.4457 7.78817 45.6401 8.01173 45.8869 8.16325C45.8951 8.18406 45.9024 8.20487 45.9106 8.22569C46.0127 8.48233 46.0533 8.75934 46.029 9.03448C46.0273 9.05416 46.024 9.07367 46.0192 9.09283C46.0189 9.11176 45.9999 9.1131 45.992 9.12327C45.992 9.12327 44.7675 9.11127 44.4852 8.8458C44.2029 8.58032 43.7456 9.46905 43.7456 9.46905C43.7456 9.46905 43.3052 9.54646 43.2191 9.4587C43.133 9.37094 42.6171 9.43482 42.6171 9.43482C42.4105 9.24395 42.139 9.13891 41.8577 9.14105C41.6899 9.00809 41.5039 8.89981 41.3054 8.81948V8.81948L41.2918 8.81405C41.2041 8.78022 41.1099 8.76659 41.0162 8.7742C40.7383 8.53988 40.484 8.27889 40.2569 7.99499C40.0901 7.72317 39.2707 6.71728 39.2665 6.71289L39.2675 6.66471L39.2608 6.52085C39.2359 6.52419 39.2109 6.5257 39.1858 6.52539C39.1818 6.51068 39.1761 6.49422 39.1705 6.47517C39.1252 6.33377 39.0686 6.19623 39.0013 6.06388C39.0013 6.06388 39.0048 5.88234 39.0582 5.83691C39.0829 5.59951 39.0803 5.36008 39.0507 5.12325C39.0507 5.12325 38.5335 3.84528 38.0288 4.78127C38.0288 4.78127 37.0988 5.37582 37.8548 6.10419C37.8548 6.10419 38.1625 6.25915 38.2006 6.37781C38.2275 6.45494 38.3275 6.67036 38.3952 6.81198L38.4259 6.87455L38.4171 6.88212L38.4259 7.00107L38.4302 7.04677C38.2831 7.12995 38.1835 7.20632 38.2064 7.26788C38.2465 7.37396 38.2733 7.48465 38.286 7.59737C38.7568 8.18736 39.149 8.83588 39.453 9.52674C39.453 9.52674 42.2779 11.2812 43.2158 11.421L43.0332 12.2644C43.0046 12.4925 42.9877 12.722 42.9826 12.9519C42.9911 13.1337 42.8502 13.9563 42.8502 13.9563C42.7895 14.4258 42.6795 14.8875 42.5219 15.3339C42.4204 15.6209 42.3761 15.925 42.3915 16.229C42.3523 16.5772 42.2833 16.9214 42.1854 17.2578C42.0981 17.5945 42.0783 17.9452 42.1272 18.2895C42.1272 18.2895 41.63 19.372 42.7846 18.6545C42.7846 18.6545 43.3436 18.631 43.9902 18.6213L43.9889 18.6833C43.9873 18.7693 43.9856 18.8554 43.9794 18.9508C43.9585 19.5761 43.9381 20.4398 43.9538 21.09C43.981 22.2438 44.2881 24.5316 44.2881 24.5316L44.2655 25.6802C44.2408 25.7875 44.2274 25.8972 44.2255 26.0073C44.2103 26.4112 44.3103 26.811 44.5136 27.1603L44.5846 27.926C44.6869 28.1857 44.7523 28.4584 44.7787 28.7363C44.7775 28.7605 44.7741 28.7847 44.7687 28.8084C44.7601 28.8467 44.7562 28.8859 44.7569 28.9252C44.779 29.3238 44.8372 29.7196 44.9308 30.1078C44.9308 30.1078 44.9264 30.9451 45.051 30.9966C45.1578 31.0401 44.8979 31.4756 44.8214 31.6006C44.8196 31.593 44.8184 31.5852 44.8176 31.5773L44.8016 31.602C44.7745 31.6693 44.76 31.7411 44.7587 31.8137C44.7505 31.8708 44.7587 31.929 44.7824 31.9816C44.806 32.0342 44.8442 32.079 44.8923 32.1107C45.1278 32.2608 45.2527 32.3846 45.0496 32.4288C44.9749 32.4389 44.9008 32.453 44.8276 32.4709C44.8258 32.4612 44.8225 32.4519 44.8178 32.4432C44.7884 32.4531 44.7634 32.473 44.7471 32.4994C44.7309 32.5258 44.7244 32.5571 44.7289 32.5878C44.7289 32.6861 44.7524 32.7831 44.7973 32.8706C44.8818 33.0914 44.9915 33.3018 45.1242 33.4976L45.2207 33.4891C45.2058 33.5255 45.1863 33.5598 45.1628 33.5913C45.1252 33.6425 45.076 33.684 45.0192 33.7124C44.9661 33.743 44.907 33.762 44.846 33.7684C44.7781 33.7692 44.7111 33.7844 44.6495 33.8128C44.5878 33.8413 44.5329 33.8824 44.4881 33.9335C44.4469 33.9705 44.4145 34.0163 44.3933 34.0675C44.3721 34.1187 44.3627 34.174 44.3657 34.2293C44.3688 34.2846 44.3842 34.3386 44.4108 34.3871C44.4375 34.4357 44.4748 34.4777 44.5199 34.5099L45.4102 34.8381C45.4102 34.8381 46.949 35.0689 46.8757 34.7214C46.8025 34.374 46.7568 34.0701 46.7568 34.0701C46.7676 33.859 46.7294 33.6482 46.645 33.4543C46.6296 33.4227 46.6121 33.3921 46.5926 33.3629L46.6469 33.3588C46.6892 33.0434 46.7842 32.7375 46.928 32.4537C46.9631 32.4208 46.9723 32.3926 46.964 32.3752C46.9803 32.3342 46.9412 32.3093 46.8916 32.2937L46.8798 32.3236C46.8308 32.3121 46.7807 32.3056 46.7304 32.3043C46.7304 32.3043 46.6884 31.9033 46.8538 31.7602C46.8673 31.7439 46.8774 31.725 46.8832 31.7047C46.8891 31.6844 46.8907 31.6631 46.888 31.6421C46.8904 31.5871 46.8857 31.5321 46.874 31.4783L46.8678 31.4885C46.7814 31.1632 46.6673 30.8459 46.5267 30.5402C46.5199 30.3659 46.5527 30.1923 46.6227 30.0325C46.6823 29.3745 46.691 28.7128 46.6486 28.0535C46.6794 27.6197 46.6629 27.1839 46.5993 26.7537C46.5543 26.4463 46.6087 26.1325 46.7546 25.8582L46.7552 25.8255L46.7434 25.6858C46.743 25.6887 46.743 25.6915 46.7432 25.6944C46.722 25.459 46.683 25.0331 46.6516 24.8371C46.6072 24.5565 46.6962 23.2242 46.6962 23.2242L46.9328 22.6582L47.3153 23.6494L47.7197 24.9682C47.8379 25.1337 47.9088 25.3282 47.9247 25.5309L47.9239 25.5722C47.9199 25.6006 47.9176 25.6293 47.917 25.6581C47.9063 25.8235 47.9486 25.9881 48.0378 26.1278C48.0741 26.4038 48.1671 26.6694 48.3108 26.9078C48.4198 27.0377 48.4778 27.2028 48.4738 27.3723C48.5462 27.7322 48.643 28.0866 48.7637 28.4332C48.8285 28.6302 48.8537 28.8382 48.8378 29.0449V29.0449L48.8371 29.0768C48.8371 29.0768 48.8609 29.3991 48.8539 29.6684L48.852 29.7648C48.8523 29.7625 48.8523 29.7602 48.8521 29.7579C48.8507 29.8315 48.8406 29.9047 48.822 29.9759L48.8218 29.988C48.8213 29.9726 48.823 29.9573 48.827 29.9424C48.7798 30.1244 48.7553 30.3116 48.7541 30.4996C48.7189 30.8275 48.7968 31.1576 48.975 31.4352C49.3063 31.8299 49.5197 31.7902 49.5197 31.7902C49.5197 31.7902 49.3475 32.2722 49.1443 32.3655C49.1365 32.3689 49.1292 32.3734 49.1226 32.3789C49.1217 32.3693 49.1201 32.3597 49.1179 32.3504C49.095 32.3741 49.0773 32.4025 49.066 32.4336C49.0547 32.4646 49.0501 32.4977 49.0524 32.5307C49.0564 32.7899 49.1378 33.0421 49.2861 33.2548C49.3334 33.3025 49.3919 33.3377 49.4562 33.3571C49.4459 33.364 49.4352 33.3701 49.424 33.3754C49.4015 33.3872 49.3783 33.3977 49.3545 33.4068C49.3216 33.42 49.287 33.4283 49.2517 33.4314C49.1835 33.4318 49.1163 33.4467 49.0544 33.4752C48.9926 33.5037 48.9375 33.545 48.8929 33.5965C48.8517 33.6334 48.8192 33.6792 48.798 33.7303C48.7769 33.7814 48.7674 33.8367 48.7705 33.8919C48.7735 33.9472 48.789 34.0011 48.8157 34.0496C48.8424 34.0981 48.8796 34.1399 48.9246 34.1721L49.815 34.5003C49.815 34.5003 51.3442 34.7361 51.2701 34.3895Z" fill="url(#paint0_linear_234_339)"/>
<path d="M45.3707 34.8466L44.5078 34.5198C44.4638 34.4867 44.4276 34.4444 44.4018 34.3959C44.3759 34.3473 44.361 34.2937 44.3581 34.2388C44.3551 34.1838 44.3642 34.1289 44.3848 34.0779C44.4053 34.0268 44.4367 33.9809 44.4769 33.9433C44.5197 33.8926 44.5728 33.8515 44.6328 33.823C44.6927 33.7945 44.7581 33.7792 44.8245 33.778C44.8836 33.7716 44.9406 33.7525 44.9917 33.7219C45.0473 33.6932 45.0953 33.6516 45.1317 33.6007C45.1971 33.5014 45.2337 33.386 45.2373 33.2672C45.2373 33.2672 46.196 33.0063 46.4512 33.291C46.4969 33.3433 46.5347 33.402 46.5632 33.4654C46.6459 33.6598 46.6841 33.8701 46.675 34.0812C46.675 34.0812 46.7173 34.385 46.7896 34.7324C46.862 35.0799 45.3707 34.8466 45.3707 34.8466Z" fill="#2D293D"/>
<path d="M49.629 34.5024L48.7661 34.1747C48.722 34.1417 48.6857 34.0994 48.6597 34.0509C48.6338 34.0023 48.6188 33.9487 48.6158 33.8937C48.6129 33.8387 48.6221 33.7838 48.6427 33.7327C48.6633 33.6817 48.6949 33.6358 48.7352 33.5983C48.7777 33.5472 48.8308 33.5059 48.8908 33.4774C48.9508 33.4489 49.0163 33.4337 49.0828 33.4329C49.117 33.4301 49.1506 33.4217 49.1822 33.4082C49.2054 33.3991 49.228 33.3886 49.25 33.3769C49.3253 33.3268 49.3871 33.259 49.4299 33.1794C49.4728 33.0997 49.4953 33.0108 49.4956 32.9204C49.4956 32.9204 50.4535 32.6603 50.7087 32.9442C50.743 32.9826 50.7727 33.0247 50.7975 33.0699C50.8959 33.2761 50.9414 33.5035 50.9299 33.7317C50.9299 33.7317 50.9722 34.0364 51.0411 34.3829C51.1101 34.7294 49.629 34.5024 49.629 34.5024Z" fill="#2D293D"/>
<path opacity="0.1" d="M46.4522 33.2903C46.4979 33.3425 46.5356 33.4013 46.5641 33.4646V33.4646L45.1335 33.6026C45.1989 33.5033 45.2355 33.3878 45.239 33.269C45.239 33.269 46.1978 33.0055 46.4522 33.2903Z" fill="black"/>
<path opacity="0.1" d="M50.7965 33.0717L50.7912 33.3393C50.5621 33.7006 49.4899 33.5995 49.1812 33.4101C49.2043 33.4009 49.227 33.3904 49.249 33.3788C49.3243 33.3287 49.3861 33.2609 49.4289 33.1812C49.4718 33.1016 49.4943 33.0127 49.4946 32.9222C49.4946 32.9222 50.4525 32.6613 50.7086 32.9461C50.7425 32.9845 50.772 33.0267 50.7965 33.0717V33.0717Z" fill="black"/>
<path d="M50.9877 31.9225C50.9181 32.0375 50.8582 32.1581 50.8085 32.283L50.7896 33.2415C50.5383 33.6368 49.2796 33.4786 49.1135 33.2568C48.9475 33.0349 48.7805 32.4635 48.9743 32.3684C49.1681 32.2732 49.3377 31.7928 49.3377 31.7928C49.3377 31.7928 49.1302 31.8369 48.8102 31.4382C48.5801 30.9873 48.5288 30.4661 48.6667 29.979C48.7039 29.6814 48.7098 29.3806 48.6843 29.0817C48.699 28.8639 48.6741 28.6453 48.6109 28.4364C48.4924 28.0898 48.3978 27.7353 48.3279 27.3757C48.3303 27.2064 48.2726 27.0417 48.1649 26.9111C48.0256 26.6714 47.9357 26.4063 47.9005 26.1313C47.8041 25.9748 47.7648 25.7897 47.7894 25.6075C47.7943 25.3807 47.7263 25.1582 47.5953 24.9728L47.2081 23.6535L46.8394 22.6634L46.6096 23.2295C46.6096 23.2295 46.5215 24.5627 46.5659 24.8425C46.6103 25.1222 46.6698 25.8644 46.6698 25.8644C46.5279 26.1401 46.4752 26.453 46.5188 26.76C46.5796 27.1907 46.5944 27.6267 46.563 28.0605C46.6034 28.72 46.5944 29.3815 46.5361 30.0396C46.467 30.2 46.4342 30.3736 46.4401 30.5481C46.4401 30.5481 46.9155 31.6247 46.7604 31.768C46.6052 31.9113 46.6404 32.3122 46.6404 32.3122C46.6404 32.3122 46.9793 32.3188 46.8319 32.4614C46.6914 32.7462 46.5982 33.0519 46.556 33.3666L45.0848 33.5098C44.9558 33.3138 44.8499 33.1035 44.7692 32.8831C44.5836 32.4284 44.8132 32.4837 45.0095 32.4385C45.2057 32.3933 45.0851 32.2679 44.8565 32.1205C44.6278 31.9731 44.7694 31.6454 44.7694 31.6454C44.7694 31.6454 45.133 31.0578 45.0126 31.0072C44.8922 30.9567 44.8966 30.1184 44.8966 30.1184C44.7945 29.7042 44.7419 29.2793 44.7399 28.8527C44.7408 28.5397 44.6808 28.2296 44.5634 27.9395L44.4923 27.1738C44.2412 26.7349 44.1566 26.2202 44.254 25.724L44.2771 24.5453C44.2771 24.5453 43.9778 22.2577 43.9565 21.104C43.9401 20.3652 43.9685 19.3578 43.9912 18.7291C44.0041 18.3765 44.0147 18.1434 44.0147 18.1434L49.2668 17.7001C49.2701 17.9606 49.2967 18.2204 49.3462 18.4762C49.3948 18.7655 49.4709 19.1397 49.5934 19.6086C49.8056 20.3679 49.8397 21.1659 49.693 21.9405L49.6109 23.6267C49.8143 24.1097 49.9275 24.626 49.945 25.1498C49.882 25.3792 49.8444 25.6149 49.833 25.8525C49.833 25.8525 50.8171 28.336 50.692 29.054C50.6659 29.6853 50.7691 30.3154 50.9956 30.9053C51.0553 31.242 51.0527 31.5868 50.9877 31.9225V31.9225Z" fill="#464353"/>
<path opacity="0.05" d="M48.115 25.5421L49.7152 25.3609C49.7152 25.3609 48.7928 26.2655 48.115 25.5421Z" fill="black"/>
<path opacity="0.1" d="M49.5174 23.7975C49.5174 23.7975 49.5605 24.3629 49.2114 24.5661C49.2096 24.5686 49.8301 24.4836 49.5174 23.7975Z" fill="black"/>
<path opacity="0.1" d="M49.4543 21.9999C49.4543 21.9999 48.0992 23.0716 47.6157 22.9708C47.1323 22.8701 49.4543 21.9999 49.4543 21.9999Z" fill="black"/>
<path opacity="0.1" d="M46.1282 26.0188C46.1282 26.0188 45.1102 26.2295 45.0721 26.6359C45.034 27.0422 46.1282 26.0188 46.1282 26.0188Z" fill="black"/>
<path opacity="0.05" d="M46.2498 31.0831C46.2498 31.0831 44.813 31.3217 45.2164 31.5112C45.5621 31.656 45.9191 31.7727 46.2836 31.8601C46.2836 31.8601 46.7452 31.8933 46.2498 31.0831Z" fill="black"/>
<g opacity="0.05">
<path opacity="0.05" d="M44.9238 31.7955C44.8883 31.7722 44.8584 31.7413 44.8365 31.705C44.8146 31.6686 44.8011 31.6278 44.7971 31.5855L44.782 31.6111C44.782 31.6111 44.6422 31.9363 44.87 32.0853L44.943 32.1367C44.9861 32.1298 45.0293 32.1237 45.076 32.1134C45.2731 32.0691 45.1515 31.9454 44.9238 31.7955Z" fill="black"/>
<path opacity="0.05" d="M46.7708 31.7332C46.8111 31.6979 46.812 31.6049 46.7903 31.4857C46.7309 31.5925 46.7006 31.713 46.7025 31.8352C46.718 31.7969 46.7412 31.7622 46.7708 31.7332V31.7332Z" fill="black"/>
<path opacity="0.05" d="M46.6647 25.6933C46.6093 25.8356 46.5739 25.9849 46.5596 26.137C46.5893 26.0323 46.6285 25.9306 46.6766 25.833L46.6647 25.6933Z" fill="black"/>
<path opacity="0.05" d="M49.9577 25.1218C49.9679 25.0784 49.9732 25.0341 49.9732 24.9895C49.9533 25.0795 49.9397 25.161 49.9287 25.2366C49.9372 25.1988 49.9474 25.1638 49.9577 25.1218Z" fill="black"/>
<path opacity="0.05" d="M46.5506 30.0069C46.5802 29.9202 46.5942 29.829 46.592 29.7375C46.5444 29.8457 46.5182 29.962 46.5147 30.0802C46.5236 30.0544 46.5356 30.0298 46.5506 30.0069V30.0069Z" fill="black"/>
<path opacity="0.05" d="M46.8012 32.3014C46.7212 32.5432 46.6606 32.791 46.6197 33.0424L45.1494 33.1856C45.0201 32.9896 44.9139 32.7793 44.8329 32.5589C44.8181 32.5236 44.8051 32.4877 44.7937 32.4513C44.7069 32.4901 44.6672 32.5806 44.7782 32.8487C44.8596 33.0689 44.9658 33.2792 45.0946 33.4755L46.5658 33.3322C46.608 33.0175 46.7012 32.7118 46.8418 32.4271C46.9137 32.3579 46.868 32.3208 46.8012 32.3014Z" fill="black"/>
<path opacity="0.05" d="M44.9105 30.084C44.9105 30.084 44.9061 30.9214 45.0265 30.9719C45.0912 30.8346 45.1342 30.7038 45.0795 30.6812C44.9566 30.6306 44.9636 29.7924 44.9636 29.7924C44.8615 29.3782 44.8088 28.9533 44.8069 28.5267C44.8078 28.2137 44.7478 27.9035 44.6303 27.6135L44.5592 26.8478C44.3081 26.4088 44.2235 25.8942 44.3209 25.398L44.344 24.2193C44.344 24.2193 44.0447 21.9317 44.0235 20.7779C44.007 20.0391 44.0354 19.0318 44.0572 18.4031C44.0594 18.2895 44.0614 18.1888 44.0691 18.1038L44.0277 18.1073C44.0277 18.1073 44.0163 18.3403 44.0033 18.6929C43.9815 19.3217 43.9523 20.3273 43.9696 21.0669C43.9951 22.2208 44.2902 24.5083 44.2902 24.5083L44.267 25.687C44.1701 26.183 44.255 26.6973 44.5062 27.1359L44.5773 27.9016C44.6946 28.192 44.7545 28.5025 44.7538 28.8157C44.7557 29.2432 44.8083 29.6689 44.9105 30.084V30.084Z" fill="black"/>
<path opacity="0.05" d="M49.1749 32.9347C49.0591 32.7598 48.9837 32.5613 48.9539 32.3537C48.8015 32.4858 48.9633 33.014 49.1226 33.2263C49.282 33.4386 50.5474 33.6063 50.7988 33.2102L50.8033 32.9796C50.5485 33.1045 50.2672 33.1657 49.9835 33.1579C49.6999 33.1501 49.4224 33.0735 49.1749 32.9347V32.9347Z" fill="black"/>
<path opacity="0.05" d="M51.0469 31.5999C50.9773 31.7149 50.9174 31.8355 50.8677 31.9604L50.8643 32.1325C50.9028 32.0499 50.9457 31.9694 50.993 31.8914C51.0332 31.7965 51.0533 31.6944 51.0522 31.5914L51.0469 31.5999Z" fill="black"/>
<path opacity="0.05" d="M49.2725 31.7566C49.3204 31.6641 49.3622 31.5686 49.3977 31.4707C49.3977 31.4707 49.1903 31.5148 48.8702 31.1161C48.6689 30.7617 48.5999 30.3474 48.6754 29.9469C48.5368 30.4341 48.588 30.9559 48.8188 31.4068C48.9257 31.5718 49.0858 31.6952 49.2725 31.7566Z" fill="black"/>
<path opacity="0.05" d="M48.6924 29.0528C48.7091 29.2923 48.7125 29.5326 48.7024 29.7725C48.7093 29.7349 48.7184 29.6977 48.7296 29.6611C48.7673 29.3635 48.7732 29.0627 48.7472 28.7638C48.7622 28.546 48.7373 28.3274 48.6738 28.1185C48.5559 27.7717 48.4625 27.4169 48.3943 27.057C48.3967 26.8877 48.3389 26.7231 48.2313 26.5924C48.0919 26.3528 48.002 26.0876 47.9668 25.8126C47.8697 25.6563 47.8296 25.4713 47.8532 25.2888C47.8586 25.062 47.7908 24.8394 47.6599 24.6541L47.2736 23.3357L46.9049 22.3455L46.6742 22.9116C46.6742 22.9116 46.6729 22.9839 46.6629 23.0973L46.8492 22.6371L47.218 23.6255L47.6052 24.944C47.7361 25.1293 47.8038 25.3518 47.7984 25.5786C47.7746 25.7614 47.8148 25.9468 47.9121 26.1033C47.947 26.3784 48.0369 26.6436 48.1765 26.8831C48.2845 27.0136 48.3423 27.1783 48.3395 27.3477C48.4094 27.7073 48.5039 28.0618 48.6225 28.4084C48.6847 28.6172 48.7084 28.8355 48.6924 29.0528V29.0528Z" fill="black"/>
</g>
<path d="M50.1492 6.75021L50.0492 7.1915L50.0505 7.38863L50.0477 7.53402L49.5407 7.57657L49.486 7.47049C49.3766 7.24655 49.2496 7.03167 49.1062 6.82784C49.0139 6.7477 48.8738 5.51243 49.0685 5.58941C49.1902 5.63984 49.2887 5.73385 49.3448 5.85305C49.3448 5.85305 50.3433 5.98283 50.1492 6.75021Z" fill="#FFCDD3"/>
<path opacity="0.1" d="M50.0458 7.53339L49.5381 7.57591L49.4833 7.46984C49.553 7.39369 49.6468 7.34401 49.7489 7.32922C49.8511 7.31444 49.9552 7.33548 50.0435 7.38875L50.0458 7.53339Z" fill="black"/>
<path d="M50.1753 7.77617L49.5046 7.91792L49.4919 7.81869L49.4593 7.55037C49.4969 7.50285 49.5435 7.46324 49.5965 7.43381C49.6495 7.40439 49.7078 7.38573 49.768 7.37891C49.8282 7.37209 49.8892 7.37726 49.9474 7.3941C50.0056 7.41093 50.0599 7.43912 50.1072 7.47703L50.1381 7.61362L50.1753 7.77617Z" fill="#6C63FF"/>
<path d="M39.3796 6.58655L38.6588 6.95454L38.5995 6.8191C38.5343 6.67581 38.4344 6.45953 38.4109 6.38505C38.3711 6.26635 38.0772 6.11168 38.0772 6.11168C37.9821 6.02268 37.9096 5.9124 37.8654 5.78989C37.8213 5.66739 37.8069 5.53617 37.8234 5.40701C37.8399 5.27785 37.8868 5.15444 37.9603 5.04694C38.0337 4.93945 38.1317 4.85093 38.2461 4.78866C38.7353 3.8515 39.2326 5.12995 39.2326 5.12995C39.2616 5.36682 39.2641 5.60618 39.2401 5.84361C39.1876 5.88733 39.184 6.07059 39.184 6.07059C39.2494 6.20312 39.3043 6.34061 39.348 6.48178C39.3683 6.54501 39.3796 6.58655 39.3796 6.58655Z" fill="#FFCDD3"/>
<path opacity="0.1" d="M39.3765 6.58729L38.6558 6.95528L38.5964 6.81984C38.6988 6.73578 39.0606 6.45628 39.1783 6.47064C39.2352 6.47895 39.2928 6.48151 39.3503 6.47832C39.3653 6.54575 39.3765 6.58729 39.3765 6.58729Z" fill="black"/>
<path d="M39.4461 6.80316L38.6374 7.18233L38.6244 7.00994L38.6155 6.89099C38.6155 6.89099 39.0871 6.50261 39.2253 6.52082C39.2944 6.53224 39.3649 6.53362 39.4344 6.52492L39.441 6.6688L39.4461 6.80316Z" fill="#6C63FF"/>
<path d="M48.1466 9.65437C48.1466 9.65437 44.6474 9.97983 45.3038 9.78013C45.4815 9.74311 45.6433 9.65154 45.7666 9.51819C45.8899 9.38485 45.9685 9.21636 45.9915 9.03622C46.0152 8.76149 45.9762 8.48495 45.8774 8.22751C45.7995 8.00583 45.6996 7.79251 45.5792 7.59076C45.5792 7.59076 48.2751 6.17537 47.7164 7.49933C47.6302 7.69962 47.5749 7.91184 47.5525 8.12873C47.5322 8.34419 47.5513 8.56156 47.6088 8.7702C47.7031 9.10886 47.8892 9.41485 48.1466 9.65437V9.65437Z" fill="#FFCDD3"/>
<path opacity="0.1" d="M47.7164 7.49769C47.6302 7.69797 47.575 7.9102 47.5526 8.12708C47.2912 8.29728 46.9748 8.36154 46.6677 8.30681C46.402 8.34758 46.1303 8.31972 45.8783 8.22588C45.8005 8.0042 45.7006 7.79088 45.5801 7.58913C45.5801 7.58913 48.2769 6.1729 47.7164 7.49769Z" fill="black"/>
<path d="M46.6194 8.39866C47.4167 8.41432 48.0758 7.78065 48.0915 6.98332C48.1071 6.18599 47.4734 5.52693 46.6761 5.51127C45.8788 5.49561 45.2197 6.12927 45.2041 6.9266C45.1884 7.72393 45.8221 8.383 46.6194 8.39866Z" fill="#FFCDD3"/>
<path opacity="0.1" d="M48.1464 9.6541C48.1464 9.6541 44.6472 9.97957 45.3035 9.77987C45.4813 9.74284 45.6431 9.65128 45.7664 9.51793C45.8897 9.38458 45.9683 9.21611 45.9913 9.03597C46.211 8.85527 46.4677 8.72487 46.7433 8.65395C46.9495 8.58908 47.1708 8.58982 47.3767 8.65607C47.4577 8.68216 47.5346 8.7196 47.6051 8.76727C47.7 9.10725 47.8874 9.41425 48.1464 9.6541Z" fill="black"/>
<path opacity="0.1" d="M50.1747 7.77586L49.504 7.91761L49.4913 7.81839C49.5648 7.72176 49.6662 7.65008 49.7818 7.61308C49.8974 7.57609 50.0215 7.57557 50.1374 7.6116L50.1747 7.77586Z" fill="black"/>
<path opacity="0.1" d="M39.4475 6.80299L38.6387 7.18216L38.6258 7.00977C38.8879 6.87544 39.1596 6.76109 39.4389 6.66769L39.4475 6.80299Z" fill="black"/>
<path opacity="0.1" d="M49.3551 18.4796C48.1699 18.689 46.9691 18.7988 45.7656 18.8077C45.1809 18.7229 44.5892 18.6963 43.9992 18.7282C44.0122 18.3756 44.0228 18.1425 44.0228 18.1425L49.2749 17.6991C49.2782 17.9612 49.3051 18.2224 49.3551 18.4796Z" fill="black"/>
<path d="M50.7106 18.1896C49.0752 18.4651 47.4245 18.6399 45.7677 18.7131C44.7931 18.6239 43.8131 18.6086 42.8362 18.6675C41.7169 19.3857 42.1995 18.303 42.1995 18.303C42.1524 17.9586 42.1719 17.6083 42.2568 17.2713C42.3531 16.9346 42.4212 16.5904 42.4604 16.2424C42.4457 15.9384 42.4887 15.6344 42.5873 15.3464C42.7402 14.8995 42.847 14.4381 42.9061 13.9695C42.9061 13.9695 43.0436 13.1468 43.0351 12.965C43.0266 12.7832 43.0848 12.2774 43.0848 12.2774L43.2598 11.4313C42.3519 11.2922 39.6192 9.53946 39.6192 9.53946C39.3278 8.85036 38.9495 8.20138 38.4934 7.60831C38.4803 7.49567 38.4536 7.38503 38.4139 7.27883C38.3454 7.08296 39.4448 6.71638 39.4448 6.71638C39.4448 6.71638 40.2384 7.72522 40.4026 7.99785C40.6218 8.2812 40.8687 8.54208 41.1395 8.77663C41.2301 8.76901 41.3212 8.78258 41.4056 8.81627L41.4192 8.82085C41.6128 8.90136 41.7936 9.00957 41.956 9.1421C42.2297 9.14117 42.4931 9.24665 42.6905 9.43625C42.6905 9.43625 43.1883 9.37288 43.2727 9.45974C43.357 9.54661 43.782 9.46975 43.782 9.46975C43.782 9.46975 44.2238 8.58072 44.4983 8.84604C44.7728 9.11137 45.9561 9.12255 45.9561 9.12255C46.1783 8.91689 46.4511 8.77376 46.7466 8.70773C46.9529 8.64315 47.1741 8.64389 47.38 8.70985C47.4687 8.7382 47.5517 8.78177 47.6254 8.83861L48.3317 9.55653C48.3317 9.55653 48.5425 9.293 48.5196 9.2323C48.4967 9.1716 48.7644 9.1278 48.7644 9.1278C48.7644 9.1278 49.1185 9.02544 49.2525 8.99192C49.3866 8.95841 49.5085 9.10455 49.5168 9.11848C49.4665 8.94503 49.4491 8.76371 49.4654 8.58384C49.4751 8.4275 49.4263 8.27314 49.3285 8.1508C49.7731 7.11551 50.7144 8.00588 50.7144 8.00588C50.7657 8.26656 50.7645 8.53485 50.711 8.79508C50.6103 9.01172 50.7949 9.47667 50.7675 9.5975C50.7402 9.71832 50.8101 9.92626 50.8056 10.1568C50.7725 10.4503 50.7015 10.7382 50.5943 11.0134C50.5208 11.2065 49.9263 11.6312 49.9263 11.6312C49.8985 12.011 49.7919 12.3809 49.6132 12.7172C49.4505 13.2914 49.4065 13.8926 49.4838 14.4843C49.5769 14.9825 49.7521 15.4618 50.0024 15.9026C50.3256 16.6351 50.5633 17.4025 50.7106 18.1896V18.1896Z" fill="#3F3D56"/>
<path opacity="0.1" d="M44.3768 10.0777C44.3768 10.0777 44.2513 9.675 44.1271 9.64244C44.0072 9.59571 43.8907 9.54079 43.7783 9.47808L43.8595 9.32991C43.8595 9.32991 44.3123 9.46274 44.3828 9.5984C44.4184 9.75642 44.4163 9.92061 44.3768 10.0777V10.0777Z" fill="black"/>
<path opacity="0.1" d="M41.952 9.14373C41.9255 9.26715 40.8428 9.35261 40.8428 9.35261L41.3999 8.81615L41.4135 8.82158C41.6077 8.90225 41.7891 9.01077 41.952 9.14373V9.14373Z" fill="black"/>
<path d="M38.8622 7.51405C38.9154 7.5151 38.9594 7.47278 38.9605 7.41953C38.9615 7.36629 38.9192 7.32228 38.8659 7.32123C38.8127 7.32018 38.7687 7.3625 38.7676 7.41575C38.7666 7.46899 38.8089 7.51301 38.8622 7.51405Z" fill="#575988"/>
<path d="M38.9832 7.70985C39.0365 7.7109 39.0805 7.66858 39.0816 7.61534C39.0826 7.56209 39.0403 7.51808 38.987 7.51703C38.9338 7.51598 38.8898 7.5583 38.8887 7.61155C38.8877 7.66479 38.93 7.70881 38.9832 7.70985Z" fill="#575988"/>
<path d="M39.1004 7.89198C39.1537 7.89303 39.1977 7.85071 39.1987 7.79746C39.1998 7.74422 39.1575 7.70021 39.1042 7.69916C39.051 7.69811 39.007 7.74043 39.0059 7.79368C39.0049 7.84692 39.0472 7.89094 39.1004 7.89198Z" fill="#575988"/>
<path d="M39.2235 8.08852C39.2767 8.08956 39.3207 8.04724 39.3218 7.994C39.3228 7.94075 39.2805 7.89674 39.2273 7.89569C39.174 7.89465 39.13 7.93696 39.129 7.99021C39.1279 8.04346 39.1702 8.08747 39.2235 8.08852Z" fill="#575988"/>
<path d="M50.664 8.28495C50.7077 8.2858 50.7439 8.25104 50.7447 8.20731C50.7456 8.16357 50.7108 8.12741 50.6671 8.12656C50.6233 8.1257 50.5872 8.16046 50.5863 8.20419C50.5855 8.24793 50.6202 8.28409 50.664 8.28495Z" fill="#575988"/>
<path d="M50.6718 8.46512C50.7155 8.46598 50.7517 8.43122 50.7525 8.38748C50.7534 8.34374 50.7186 8.30759 50.6749 8.30673C50.6312 8.30587 50.595 8.34063 50.5941 8.38437C50.5933 8.42811 50.628 8.46426 50.6718 8.46512Z" fill="#575988"/>
<path d="M50.6776 8.64432C50.7214 8.64518 50.7575 8.61042 50.7584 8.56668C50.7593 8.52294 50.7245 8.48679 50.6808 8.48593C50.637 8.48507 50.6009 8.51983 50.6 8.56357C50.5991 8.60731 50.6339 8.64346 50.6776 8.64432Z" fill="#575988"/>
<path opacity="0.1" d="M44.3164 13.3653C44.3047 13.3504 46.9728 16.8603 49.1345 14.9042C49.1362 14.9068 45.7727 15.2943 44.3164 13.3653Z" fill="black"/>
<path opacity="0.1" d="M42.7138 15.1309C42.7138 15.1309 44.3476 15.2077 44.5104 15.6826L44.5008 16.173C44.4537 16.1979 44.401 16.2104 44.3477 16.2094C44.2944 16.2084 44.2423 16.1938 44.1962 16.167C44.0327 16.0777 43.0532 15.5524 42.7 15.7873L42.7138 15.1309Z" fill="black"/>
<path d="M42.7441 15.1316C42.7441 15.1316 44.3083 15.2053 44.4638 15.6577L44.4547 16.124C44.4096 16.1479 44.3591 16.1599 44.3081 16.1589C44.2571 16.1579 44.2071 16.1439 44.163 16.1183C44.0072 16.0291 43.0702 15.533 42.7319 15.7571L42.7441 15.1316Z" fill="#3F3D56"/>
<path opacity="0.1" d="M43.6758 11.5942C43.8354 11.9847 44.0414 12.3546 44.2894 12.6959C44.5587 13.0732 44.8877 13.404 45.2634 13.6756C44.6875 13.0187 44.1571 12.3233 43.6758 11.5942V11.5942Z" fill="black"/>
<path opacity="0.1" d="M43.1777 9.68237C43.3023 10.307 43.6357 10.8705 44.1232 11.2803L43.1777 9.68237Z" fill="black"/>
<path opacity="0.1" d="M42.7563 9.79357C42.6977 10.1049 42.7545 10.427 42.9161 10.6995C43.0777 10.9719 43.333 11.1762 43.6344 11.274C43.6344 11.274 43.149 11.0958 42.7563 9.79357Z" fill="black"/>
<path opacity="0.1" d="M49.916 9.14421C50.1647 9.3177 50.4035 9.50487 50.6314 9.70482C50.6314 9.70482 50.2658 9.1244 49.916 9.14421Z" fill="black"/>
<path d="M46.2313 8.25596C46.231 8.28751 46.2371 8.3188 46.2494 8.34784C46.2617 8.37689 46.2799 8.40307 46.3029 8.42471C46.3258 8.44636 46.3531 8.463 46.3828 8.4736C46.4125 8.4842 46.4441 8.48851 46.4756 8.48627C46.9124 8.55383 47.3588 8.52019 47.7806 8.38795C47.8571 8.36236 47.9262 8.31852 47.9819 8.26022C48.0442 8.16426 48.0856 8.05629 48.1035 7.9433C48.1814 7.73443 48.2743 7.53145 48.3814 7.33594C48.5363 6.99191 48.5934 6.61188 48.5467 6.23749C48.5375 6.12296 48.502 6.01208 48.4429 5.91355C48.3291 5.74434 48.1179 5.67219 47.9665 5.53667C47.8151 5.40115 47.7193 5.19614 47.5448 5.09804C47.3754 5.01786 47.1838 4.99712 47.0012 5.03916C46.64 5.0931 46.2926 5.21571 45.9776 5.40035C45.8791 5.47726 45.756 5.51583 45.6312 5.50888C45.5288 5.47443 45.442 5.40469 45.3863 5.31213C45.2979 5.50907 45.2583 5.7244 45.2707 5.9399C45.2756 5.97131 45.275 6.00333 45.2688 6.03453C45.2528 6.07196 45.229 6.10554 45.1989 6.133C45.1366 6.18837 45.0949 6.26327 45.0808 6.34541C45.0667 6.42756 45.0809 6.51206 45.1212 6.58506C45.1665 6.64103 45.2382 6.67343 45.2818 6.73024C45.3607 6.83335 45.3312 6.97908 45.3269 7.1081C45.3213 7.15314 45.3317 7.19872 45.3562 7.23692C45.3792 7.25932 45.4076 7.2754 45.4387 7.28355C45.4698 7.2917 45.5024 7.29166 45.5335 7.28344C45.5954 7.26607 45.6602 7.2612 45.724 7.26911C45.7909 7.29223 45.8481 7.33696 45.8868 7.39625C46.058 7.65688 46.1751 7.94923 46.2313 8.25596V8.25596Z" fill="#2D293D"/>
<g opacity="0.1">
<path opacity="0.1" d="M48.033 8.15109C47.9773 8.20936 47.9081 8.25319 47.8317 8.27882C47.4097 8.40971 46.9635 8.44331 46.5266 8.37712C46.4951 8.37936 46.4636 8.37505 46.4339 8.36445C46.4042 8.35386 46.3769 8.33721 46.354 8.31556C46.331 8.29392 46.3128 8.26774 46.3005 8.2387C46.2882 8.20965 46.282 8.17836 46.2824 8.14681C46.226 7.83868 46.1064 7.54561 45.9309 7.28611C45.8929 7.22559 45.8356 7.1796 45.7682 7.15552C45.7044 7.14824 45.6398 7.15312 45.5778 7.16986C45.5468 7.1782 45.5142 7.17837 45.4831 7.17037C45.452 7.16237 45.4236 7.14646 45.4005 7.1242C45.376 7.08599 45.3656 7.04043 45.3712 6.99539C45.3737 6.86547 45.4058 6.71978 45.3261 6.61751C45.2816 6.55983 45.2107 6.52918 45.1654 6.47148C45.1359 6.42968 45.1184 6.38068 45.1146 6.32968C45.1107 6.27869 45.1207 6.22761 45.1436 6.18186C45.0989 6.23505 45.0721 6.30096 45.0671 6.37024C45.062 6.43951 45.0789 6.50862 45.1153 6.56775C45.1607 6.62373 45.2324 6.65613 45.276 6.71293C45.3549 6.81604 45.3254 6.96178 45.3202 7.09079C45.3146 7.13583 45.325 7.18142 45.3495 7.21959C45.3726 7.24215 45.4012 7.25831 45.4325 7.26647C45.4637 7.27463 45.4965 7.27451 45.5277 7.26613C45.5896 7.24876 45.6543 7.24389 45.7182 7.2518C45.785 7.27492 45.8423 7.31965 45.8809 7.37894C46.0564 7.63872 46.1761 7.93209 46.2324 8.24051C46.2409 8.31749 46.2779 8.38852 46.336 8.43965C46.3782 8.46117 46.4249 8.47241 46.4723 8.47245C46.909 8.54029 47.3556 8.50665 47.7773 8.37415C47.8538 8.34868 47.923 8.30482 47.9786 8.24642C48.0066 8.21184 48.0283 8.17266 48.0429 8.13062C48.0423 8.13845 48.0388 8.14576 48.033 8.15109V8.15109Z" fill="black"/>
<path opacity="0.1" d="M45.2649 5.99105C45.2848 5.97028 45.3002 5.94569 45.3102 5.91877C45.3163 5.88758 45.317 5.85555 45.3121 5.82413C45.3036 5.64704 45.3302 5.47002 45.3903 5.30323L45.3827 5.29361C45.2941 5.49017 45.2545 5.70528 45.2671 5.92051C45.2682 5.94405 45.2675 5.96763 45.2649 5.99105V5.99105Z" fill="black"/>
</g>
<path opacity="0.1" d="M45.9584 9.12583C45.9584 9.12583 47.7604 9.4005 47.9249 9.13261Z" fill="black"/>
<path opacity="0.1" d="M49.4805 8.44775C49.4805 8.44775 50.4828 8.46743 50.6956 8.8486Z" fill="black"/>
<path d="M54.4282 42.0711C54.1257 42.3311 53.7365 42.4678 53.3379 42.4542C53.2364 42.4522 53.0949 42.4684 53.092 42.5708C53.0935 42.6017 53.1033 42.6316 53.1204 42.6574C53.2421 42.8698 53.4379 43.0299 53.6702 43.1071C53.8904 43.1646 54.1189 43.1836 54.3456 43.1634L55.007 43.142C55.131 43.1376 55.2551 43.134 55.3801 43.1209C55.5052 43.1079 55.639 43.0847 55.7702 43.0666C56.0896 43.0275 56.4119 43.0189 56.733 43.0407C56.7745 43.0492 56.8174 43.0484 56.8587 43.0385C56.8999 43.0286 56.9384 43.0099 56.9716 42.9835C57.0236 42.9225 57.0002 42.8033 56.9822 42.71C56.9464 42.5174 56.9899 42.3168 56.9576 42.1242C56.9176 41.9567 56.8362 41.8019 56.7208 41.674C56.6054 41.5462 56.4597 41.4494 56.2972 41.3926C56.1273 41.3064 55.9418 41.2552 55.7517 41.2421C55.5617 41.2291 55.3709 41.2544 55.1909 41.3166C54.9185 41.5491 54.6636 41.8013 54.4282 42.0711V42.0711Z" fill="#3F3D56"/>
<path d="M55.3063 30.7763C55.3594 31.0545 55.6236 31.2723 55.6258 31.5572C55.5903 31.7821 55.4919 31.9923 55.3419 32.1636C55.2281 32.3626 55.1312 32.5709 55.0525 32.7862C54.8218 33.3461 54.5386 33.8829 54.2068 34.3894C54.0168 34.6122 53.9078 34.8929 53.8977 35.1855C53.9198 35.321 53.965 35.4517 54.0312 35.572L54.4785 36.5061C54.5768 36.6924 54.6527 36.8898 54.7045 37.094C54.7416 37.2669 54.7414 37.452 54.762 37.6314C54.9243 38.1794 54.9747 38.7543 54.9103 39.3222C54.8957 39.3692 54.8464 39.425 54.8092 39.3916C54.9723 39.6662 55.0581 39.9799 55.0573 40.2993C55.0209 40.4664 55.0189 40.6392 55.0516 40.807C55.0871 40.869 55.1104 40.9373 55.12 41.0081C55.1127 41.054 55.1029 41.0995 55.0906 41.1443C55.0922 41.2102 55.1152 41.2737 55.1561 41.3253C55.197 41.3769 55.2536 41.4137 55.3174 41.4303C55.4413 41.474 55.5747 41.474 55.7022 41.5144C55.9282 41.627 56.1348 41.7748 56.3142 41.9525C56.5221 42.1017 56.7689 42.1872 57.0245 42.1988C57.061 42.2036 57.0981 42.1971 57.1308 42.1802C57.1493 42.1646 57.1643 42.1452 57.1749 42.1233C57.1854 42.1014 57.1912 42.0775 57.1918 42.0532C57.205 41.9373 57.1895 41.8199 57.1466 41.7114C57.1037 41.6029 57.0347 41.5067 56.9458 41.4313C56.907 41.4059 56.8752 41.3712 56.8531 41.3305C56.8423 41.2944 56.8401 41.2563 56.8467 41.2193C56.8941 40.7115 56.8949 40.2004 56.8491 39.6925C56.8271 39.5312 56.8223 39.3681 56.8346 39.2059C56.8639 39.0736 56.8795 38.9386 56.8812 38.8031C56.855 38.6699 56.8161 38.5394 56.765 38.4135C56.7178 38.1762 56.7017 37.9337 56.7171 37.6922C56.6987 37.2724 56.6386 36.8554 56.5376 36.4475C56.5171 36.2833 56.4537 36.1274 56.3537 35.9955C56.2585 35.8921 56.1046 35.7926 56.1434 35.6583C56.1639 35.6091 56.194 35.5647 56.2321 35.5275C56.2781 35.472 56.3122 35.4077 56.3325 35.3385C56.3528 35.2694 56.3588 35.1968 56.3501 35.1253C56.3907 35.1365 56.434 35.1333 56.4725 35.1161C56.511 35.099 56.5423 35.069 56.5611 35.0313C57.3365 34.6645 57.9367 34.0076 58.2324 33.2024C58.2496 33.1441 58.2753 33.0886 58.3087 33.0378C58.3931 32.9514 58.4972 32.8867 58.612 32.8492C58.9412 32.658 59.2173 32.3874 59.415 32.062C59.6604 31.7896 59.7908 31.4328 59.7788 31.0664L59.812 30.338C59.8171 30.2901 59.8134 30.2416 59.8011 30.195C59.7834 30.1514 59.7573 30.1116 59.7242 30.0781C59.5218 29.8555 59.2532 29.7039 58.9581 29.6456C58.76 29.6065 58.5577 29.6094 58.3567 29.5882C57.9739 29.5091 57.5855 29.46 57.1951 29.4414C56.8885 29.4714 56.594 29.577 56.3382 29.7486C56.0823 29.9202 55.873 30.1525 55.7289 30.4248C55.634 30.6123 55.5241 30.7763 55.3063 30.7763Z" fill="#464353"/>
<path d="M52.0009 25.9688C52.007 26.0815 51.9895 26.1943 51.9497 26.3C51.9278 26.3519 51.8879 26.3942 51.8372 26.4188C51.7865 26.4435 51.7286 26.4489 51.6742 26.434C51.7075 26.3632 51.6247 26.2807 51.5471 26.2878C51.5084 26.2959 51.4722 26.3132 51.4418 26.3384C51.4113 26.3636 51.3874 26.3959 51.3721 26.4324C51.3181 26.5356 51.2983 26.6534 51.3156 26.7687C51.364 26.9053 51.3902 27.0488 51.3933 27.1937C51.3738 27.312 51.2837 27.4291 51.3281 27.5366C51.3574 27.5876 51.3945 27.6336 51.4381 27.6731C51.4981 27.7498 51.5263 27.8466 51.5168 27.9435C51.5074 28.0404 51.4611 28.1299 51.3875 28.1937L52.5606 28.2399C52.5335 28.441 52.5813 28.645 52.6948 28.8132C52.9668 29.2981 53.3475 29.7134 53.8069 30.0264C54.2664 30.3395 54.7921 30.5419 55.343 30.6176C55.3127 30.6344 55.2865 30.6577 55.2664 30.6859C55.2462 30.7141 55.2326 30.7463 55.2265 30.7804C55.2204 30.8145 55.2219 30.8495 55.231 30.8829C55.2402 30.9163 55.2566 30.9473 55.2792 30.9736C55.3315 31.0161 55.3956 31.0417 55.4629 31.0469C55.5301 31.052 55.5974 31.0366 55.6556 31.0025C55.7705 30.9323 55.8799 30.8536 55.983 30.7671C56.1785 30.6342 56.4149 30.5754 56.6498 30.6011C56.7967 30.6186 56.9385 30.6688 57.0855 30.6794C57.5152 30.7111 57.8982 30.4053 58.3189 30.2862C58.6356 30.2496 58.9438 30.1596 59.2304 30.0201C59.2901 29.9855 59.3387 29.9346 59.3705 29.8733C59.4022 29.812 59.4157 29.7428 59.4093 29.6741C59.3843 29.5972 59.3435 29.5264 59.2895 29.4661C59.159 29.2635 59.0493 29.0482 58.9621 28.8236C58.7615 28.3908 58.4814 27.9996 58.1362 27.6704C57.8754 27.4334 57.5984 27.2148 57.3072 27.0163C57.2369 26.9624 57.1618 26.9151 57.0828 26.8751C56.9774 26.8385 56.8744 26.7951 56.7746 26.7451C56.6515 26.6379 56.545 26.5131 56.4583 26.3748C56.194 26.1345 55.904 25.9241 55.5935 25.7476C55.4241 25.5774 55.2265 25.4378 55.0095 25.335C54.8983 25.2984 54.7797 25.2943 54.6667 25.2586C54.4144 25.177 54.2338 24.9479 53.9861 24.8518C53.784 24.798 53.5764 24.7674 53.3674 24.7605C53.1349 24.7273 52.914 24.6381 52.7235 24.5008C52.6624 24.4489 52.5935 24.4069 52.5194 24.3763C52.2064 24.2746 52.1656 24.86 52.1333 25.0625C52.0685 25.3612 52.0242 25.664 52.0009 25.9688V25.9688Z" fill="#6C63FF"/>
<path d="M52.2684 27.9393C52.3097 28.5125 51.8669 29.0581 51.9824 29.6206C52.0067 29.7399 52.0561 29.8545 52.0727 29.9762C52.0739 30.3158 51.9477 30.6435 51.7189 30.8945L50.0469 33.2484C49.9794 33.3518 49.8995 33.4465 49.8089 33.5303C49.4452 33.7343 49.0347 33.8401 48.6177 33.8374C48.3298 33.8907 48.0567 34.0051 47.8167 34.1728C47.8058 34.1808 47.7985 34.1928 47.7963 34.2061C47.7941 34.2194 47.7972 34.233 47.805 34.2441C47.8706 34.3372 47.9585 34.4123 48.0607 34.4627C48.1628 34.5131 48.2759 34.5372 48.3898 34.5327C48.4317 34.5894 48.387 34.672 48.3277 34.7105C48.2405 34.7707 48.1189 34.783 48.0987 34.9307C48.092 34.9821 48.1015 35.0343 48.126 35.0801C48.1897 35.1812 48.29 35.2537 48.406 35.2827C48.6944 35.3451 48.9942 35.3307 49.2753 35.2411C49.5565 35.1515 49.8092 34.9897 50.0083 34.7719C50.438 34.3689 50.7502 33.8552 51.1714 33.4452C51.4048 33.2174 51.6685 33.0246 51.9086 32.8047C52.373 32.3492 52.7823 31.8407 53.1279 31.2897C53.2466 31.1335 53.3374 30.9579 53.3963 30.7708C53.4439 30.5815 53.427 30.3875 53.4814 30.2044C53.5766 29.9723 53.7128 29.7592 53.8837 29.5754C54.197 29.1893 54.3635 28.7047 54.3538 28.2075C54.3449 27.9614 54.267 27.7227 54.129 27.5186C53.991 27.3146 53.7986 27.1534 53.5735 27.0535C53.4314 26.9936 53.2739 26.9809 53.124 27.0171C52.9389 27.09 52.7779 27.2133 52.6592 27.3729L52.3416 27.723C52.2653 27.8006 52.205 27.8924 52.1641 27.9932C52.1432 28.0441 52.1374 28.0998 52.1473 28.1539C52.1572 28.208 52.1825 28.258 52.2201 28.2981" fill="#FBBEBE"/>
<path d="M53.1387 25.6093C52.9223 25.5914 52.7068 25.6533 52.5328 25.7833C52.4681 25.8522 52.4154 25.9315 52.3767 26.0178C52.2052 26.3052 52.0968 26.6258 52.0587 26.9583C52.0653 27.224 52.0964 27.4885 52.1516 27.7485C52.1491 27.9709 52.1219 28.1924 52.0707 28.4088C52.3676 28.3338 52.6563 28.2294 52.9324 28.0969C53.0924 27.9977 53.2618 27.9145 53.4381 27.8487C53.7585 27.8144 54.0815 27.8838 54.3595 28.0466C54.3758 27.8748 54.2543 27.5781 54.2705 27.4071C54.2738 27.3354 54.288 27.2646 54.3125 27.1971C54.3502 27.126 54.3944 27.0585 54.4447 26.9957C54.5401 26.8474 54.586 26.6728 54.576 26.4968C54.566 26.3208 54.5006 26.1525 54.3891 26.016C54.1564 25.7865 53.8492 25.6482 53.5231 25.6263C53.3212 25.599 53.1173 25.5881 52.9135 25.5937" fill="#6C63FF"/>
<defs>
<linearGradient id="paint0_linear_234_339" x1="44.1229" y1="34.8706" x2="44.7182" y2="4.56209" gradientUnits="userSpaceOnUse">
<stop stop-color="#808080" stop-opacity="0.251"/>
<stop offset="0.54" stop-color="#808080" stop-opacity="0.122"/>
<stop offset="1" stop-color="#808080" stop-opacity="0.102"/>
</linearGradient>
</defs>
</svg>
