<svg width="58" height="42" viewBox="0 0 58 42" fill="none" xmlns="http://www.w3.org/2000/svg">
<path d="M45.776 4.57395C45.7623 3.51054 45.4113 2.47894 44.7735 1.62789C44.544 1.38363 44.2674 1.18835 43.9604 1.05384C43.6534 0.919335 43.3224 0.84839 42.9872 0.845265C42.6521 0.842139 42.3198 0.906911 42.0104 1.03567C41.7009 1.16443 41.4207 1.3545 41.1867 1.59445C40.657 2.18544 40.3593 2.94823 40.3484 3.74178C40.3399 4.52842 40.4404 5.31245 40.647 6.07153C41.6732 6.11208 42.6962 5.93139 43.6465 5.54173C43.8798 5.43352 44.1213 5.34415 44.3687 5.27447C44.6186 5.21569 44.797 5.37928 45.0229 5.49474L45.155 5.25376C45.2553 5.44939 45.5825 5.39815 45.6988 5.21452C45.7976 5.01626 45.8249 4.78999 45.776 4.57395V4.57395Z" fill="#2F2E41"/>
<path d="M41.3999 8.90738L41.7274 7.39469L39.5172 6.38557L35.5695 4.39814C35.5453 4.22048 35.4676 4.05436 35.3469 3.92178C35.2262 3.78919 35.068 3.69638 34.8934 3.65563C34.7188 3.61487 34.5359 3.6281 34.369 3.69354C34.202 3.75898 34.0589 3.87357 33.9585 4.02213C33.8581 4.1707 33.8052 4.34625 33.8067 4.52555C33.8082 4.70486 33.8642 4.87946 33.9671 5.02628C34.0701 5.1731 34.2151 5.28521 34.3832 5.34778C34.5512 5.41034 34.7343 5.42042 34.9082 5.37667L38.6564 7.79312L41.3999 8.90738Z" fill="#FFB8B8"/>
<path d="M39.909 8.62088L41.5554 7.00241L41.5871 7.01251C42.7066 7.3783 43.8022 7.81377 44.8674 8.31635C45.011 8.38395 45.1381 8.48208 45.2397 8.6039C45.3414 8.72573 45.4152 8.86831 45.456 9.02164C45.5155 9.23607 45.5111 9.4632 45.4434 9.67516C45.3756 9.88712 45.2474 10.0747 45.0745 10.2148C44.8966 10.3679 44.6784 10.4666 44.4459 10.499C44.2134 10.5313 43.9765 10.4961 43.7636 10.3974L39.909 8.62088Z" fill="#E9702D"/>
<path d="M39.7619 15.8773L44.2782 17.1796L45.2796 12.9087L41.1382 11.5363L39.7619 15.8773Z" fill="#FFB8B8"/>
<path d="M44.8339 14.812L40.4188 13.7054L39.61 11.6307C39.5467 11.3356 39.5696 11.0285 39.6758 10.746C39.7821 10.4635 39.9673 10.2175 40.2093 10.0373L41.8563 8.70112L42.7471 7.60831L42.664 7.01884C42.6493 6.90089 42.6763 6.78152 42.7404 6.68139C42.8044 6.58127 42.9015 6.5067 43.0147 6.47059L44.181 6.07777C44.3099 6.03233 44.4512 6.03757 44.5764 6.09245C44.7015 6.14733 44.8012 6.24771 44.8551 6.3733L44.9725 6.65965L45.784 7.06032C45.9346 7.13236 46.0683 7.23542 46.1763 7.36273C46.2843 7.49004 46.3642 7.63872 46.4107 7.79905C46.8326 9.26823 46.6786 10.843 45.98 12.2025L44.8339 14.812Z" fill="#E9702D"/>
<path d="M4.96074 35.8862L2.82798 35.2702C2.53511 34.1426 2.5217 32.9606 2.7889 31.8266C3.6878 33.6939 6.19407 34.0926 7.65332 35.5638C8.1052 36.0261 8.44725 36.5843 8.65409 37.1969C8.86092 37.8094 8.92725 38.4607 8.84817 39.1024L9.33516 40.6009C8.29327 40.5392 7.27715 40.2524 6.3568 39.7602C5.43645 39.268 4.63376 38.5821 4.00405 37.7497C3.65511 37.2784 3.36705 36.7649 3.14669 36.2215C4.04835 36.1075 4.96074 35.8862 4.96074 35.8862Z" fill="#F2F2F2"/>
<path d="M31.5053 41.4513L10.4883 41.0384C9.92513 41.0267 9.38962 40.792 8.99921 40.386C8.60881 39.98 8.3954 39.4356 8.40577 38.8725L8.95241 11.0439C8.96416 10.4808 9.19879 9.94525 9.60483 9.55484C10.0109 9.16444 10.5552 8.95102 11.1184 8.9614L32.1354 9.37424C32.6986 9.38599 33.2341 9.62062 33.6245 10.0267C34.0149 10.4327 34.2283 10.977 34.2179 11.5402L33.6713 39.3688C33.6595 39.9319 33.4249 40.4674 33.0189 40.8578C32.6128 41.2482 32.0685 41.4616 31.5053 41.4513V41.4513Z" fill="#E6E6E6"/>
<path d="M23.5164 39.5726L11.9986 39.3464C11.4859 39.3356 10.9984 39.122 10.6429 38.7523C10.2875 38.3826 10.0931 37.8871 10.1025 37.3743L10.589 12.6104C10.5997 12.0976 10.8134 11.6101 11.1831 11.2547C11.5527 10.8992 12.0483 10.7049 12.5611 10.7143L30.6227 11.069C31.1355 11.0798 31.623 11.2935 31.9785 11.6631C32.3339 12.0328 32.5282 12.5284 32.5188 13.0411L32.161 31.2602C32.1143 33.508 31.178 35.6455 29.5574 37.2038C27.9368 38.7621 25.7642 39.614 23.5164 39.5726V39.5726Z" fill="white"/>
<path d="M28.7291 15.7867L14.2749 15.5028C14.1494 15.5004 14.0301 15.4481 13.9431 15.3576C13.8561 15.2672 13.8086 15.1458 13.811 15.0203C13.8135 14.8948 13.8657 14.7754 13.9562 14.6884C14.0467 14.6014 14.168 14.5539 14.2935 14.5564L28.7477 14.8403C28.8732 14.8428 28.9926 14.895 29.0796 14.9855C29.1666 15.076 29.2141 15.1973 29.2116 15.3228C29.2091 15.4483 29.1569 15.5677 29.0664 15.6547C28.9759 15.7417 28.8546 15.7892 28.7291 15.7867Z" fill="#E9702D"/>
<path d="M28.6932 17.6506L14.2339 17.3666C14.1084 17.3641 13.989 17.3119 13.902 17.2214C13.815 17.1309 13.7675 17.0096 13.77 16.8841C13.7725 16.7586 13.8247 16.6392 13.9152 16.5522C14.0057 16.4652 14.127 16.4177 14.2525 16.4202L28.7067 16.7041C28.8322 16.7066 28.9515 16.7588 29.0385 16.8493C29.1255 16.9398 29.173 17.0611 29.1706 17.1866C29.1681 17.3121 29.1159 17.4315 29.0254 17.5185C28.9349 17.6055 28.8136 17.653 28.6881 17.6505L28.6932 17.6506Z" fill="#E9702D"/>
<path d="M20.4637 19.3532L14.1968 19.2301C14.0713 19.2276 13.9519 19.1754 13.8649 19.0849C13.7779 18.9945 13.7304 18.8731 13.7329 18.7476C13.7354 18.6221 13.7876 18.5027 13.8781 18.4157C13.9686 18.3287 14.0899 18.2812 14.2154 18.2837L20.4832 18.4068C20.6087 18.4093 20.728 18.4615 20.815 18.552C20.902 18.6425 20.9495 18.7638 20.9471 18.8893C20.9446 19.0148 20.8924 19.1342 20.8019 19.2212C20.7114 19.3082 20.5901 19.3557 20.4646 19.3532L20.4637 19.3532Z" fill="#E9702D"/>
<path d="M28.5787 23.4157L14.1245 23.1317C13.999 23.1293 13.8797 23.077 13.7927 22.9865C13.7057 22.8961 13.6582 22.7747 13.6606 22.6492C13.6631 22.5237 13.7153 22.4044 13.8058 22.3174C13.8963 22.2304 14.0176 22.1829 14.1431 22.1853L28.5973 22.4692C28.7228 22.4717 28.8422 22.5239 28.9292 22.6144C29.0162 22.7049 29.0637 22.8262 29.0612 22.9517C29.0587 23.0772 29.0065 23.1966 28.916 23.2836C28.8255 23.3706 28.7042 23.4181 28.5787 23.4157Z" fill="#E4E4E4"/>
<path d="M28.5428 25.2793L14.0835 24.9953C13.958 24.9928 13.8386 24.9406 13.7516 24.8501C13.6646 24.7596 13.6171 24.6383 13.6196 24.5128C13.6221 24.3873 13.6743 24.2679 13.7648 24.1809C13.8553 24.0939 13.9766 24.0464 14.1021 24.0488L28.5563 24.3328C28.6818 24.3352 28.8012 24.3875 28.8882 24.478C28.9751 24.5684 29.0226 24.6898 29.0202 24.8153C29.0177 24.9408 28.9655 25.0601 28.875 25.1471C28.7845 25.2341 28.6632 25.2816 28.5377 25.2792L28.5428 25.2793Z" fill="#E4E4E4"/>
<path d="M20.3133 26.9821L14.0464 26.859C13.9209 26.8566 13.8015 26.8044 13.7145 26.7139C13.6275 26.6234 13.58 26.502 13.5825 26.3765C13.585 26.251 13.6372 26.1316 13.7277 26.0446C13.8182 25.9577 13.9395 25.9102 14.065 25.9126L20.3328 26.0357C20.4583 26.0382 20.5776 26.0904 20.6646 26.1809C20.7516 26.2714 20.7991 26.3927 20.7967 26.5182C20.7942 26.6437 20.742 26.7631 20.6515 26.8501C20.561 26.9371 20.4397 26.9846 20.3142 26.9821L20.3133 26.9821Z" fill="#E4E4E4"/>
<path d="M28.4302 31.0431L13.9761 30.7592C13.8506 30.7567 13.7312 30.7045 13.6442 30.614C13.5572 30.5235 13.5097 30.4022 13.5122 30.2767C13.5147 30.1512 13.5669 30.0318 13.6574 29.9448C13.7479 29.8578 13.8692 29.8103 13.9947 29.8128L28.4488 30.0967C28.5743 30.0992 28.6937 30.1514 28.7807 30.2419C28.8677 30.3324 28.9152 30.4537 28.9128 30.5792C28.9103 30.7047 28.8581 30.8241 28.7676 30.9111C28.6771 30.9981 28.5558 31.0456 28.4302 31.0431V31.0431Z" fill="#E4E4E4"/>
<path d="M28.3944 32.9082L13.9351 32.6241C13.8096 32.6217 13.6902 32.5695 13.6032 32.479C13.5162 32.3885 13.4687 32.2671 13.4712 32.1416C13.4736 32.0161 13.5259 31.8968 13.6164 31.8098C13.7068 31.7228 13.8282 31.6753 13.9537 31.6778L28.4078 31.9617C28.5333 31.9641 28.6527 32.0163 28.7397 32.1068C28.8267 32.1973 28.8742 32.3187 28.8717 32.4442C28.8693 32.5697 28.8171 32.6891 28.7266 32.7761C28.6361 32.863 28.5147 32.9105 28.3892 32.9081L28.3944 32.9082Z" fill="#E4E4E4"/>
<path d="M20.1649 34.6111L13.898 34.488C13.7725 34.4855 13.6531 34.4332 13.5661 34.3428C13.4791 34.2523 13.4316 34.1309 13.4341 34.0054C13.4365 33.8799 13.4888 33.7606 13.5792 33.6736C13.6697 33.5866 13.7911 33.5391 13.9166 33.5415L20.1843 33.6646C20.3098 33.6671 20.4292 33.7194 20.5162 33.8098C20.6032 33.9003 20.6507 34.0216 20.6482 34.1471C20.6458 34.2726 20.5935 34.392 20.5031 34.479C20.4126 34.566 20.2913 34.6135 20.1658 34.6111L20.1649 34.6111Z" fill="#E4E4E4"/>
<path d="M33.0924 16.0669C36.478 16.1334 39.2764 13.4428 39.3429 10.0572C39.4094 6.67165 36.7188 3.8732 33.3332 3.80669C29.9477 3.74019 27.1492 6.43082 27.0827 9.81639C27.0162 13.202 29.7068 16.0004 33.0924 16.0669Z" fill="#E9702D"/>
<path opacity="0.16" d="M33.1069 15.219C31.556 15.1885 30.0744 14.5711 28.9606 13.4914C27.8468 12.4117 27.1837 10.9499 27.1051 9.40073C27.0919 9.54249 27.0823 9.68603 27.0794 9.83057C27.0475 11.4564 27.6627 13.0283 28.7898 14.2005C29.9168 15.3727 31.4633 16.0492 33.0891 16.0811C34.7149 16.113 36.2868 15.4978 37.459 14.3708C38.6312 13.2437 39.3077 11.6972 39.3397 10.0714C39.3425 9.926 39.3384 9.78218 39.3309 9.64088C39.1915 11.1855 38.4718 12.6199 37.3168 13.655C36.1619 14.6901 34.6575 15.249 33.1069 15.219Z" fill="#231F20"/>
<path d="M30.2213 9.88512C30.2255 9.68166 30.3102 9.48816 30.4569 9.34711C30.6036 9.20606 30.8003 9.12898 31.0038 9.13275L35.4458 9.22001C35.6495 9.22401 35.8432 9.30872 35.9844 9.45556C36.1256 9.60239 36.2026 9.7993 36.1986 10.003C36.1946 10.2066 36.1099 10.4003 35.9631 10.5415C35.8162 10.6827 35.6193 10.7597 35.4157 10.7557L30.9736 10.6685C30.77 10.6643 30.5764 10.5794 30.4353 10.4325C30.2943 10.2856 30.2173 10.0887 30.2213 9.88512V9.88512Z" fill="white"/>
<path d="M42.3999 11.4275L41.1119 10.5691L39.3643 12.2561L36.0701 15.2039C35.8959 15.1616 35.7129 15.1732 35.5455 15.2372C35.378 15.3011 35.2339 15.4144 35.1322 15.562C35.0304 15.7096 34.9759 15.8847 34.9758 16.0639C34.9758 16.2432 35.0301 16.4183 35.1317 16.566C35.2332 16.7138 35.3772 16.8272 35.5446 16.8913C35.7121 16.9554 35.895 16.9672 36.0693 16.9251C36.2436 16.883 36.4009 16.789 36.5206 16.6555C36.6403 16.522 36.7166 16.3553 36.7396 16.1775L40.36 13.5736L42.3999 11.4275Z" fill="#FFB8B8"/>
<path d="M41.5871 12.7107L40.6821 10.586L40.7033 10.5606C41.4535 9.6524 42.2598 8.79206 43.1174 7.98457C43.2328 7.87609 43.3705 7.7941 43.5209 7.74428C43.6712 7.69447 43.8307 7.67803 43.988 7.69615C44.2096 7.71942 44.4195 7.80694 44.592 7.94795C44.7645 8.08897 44.892 8.27732 44.9588 8.48984C45.0358 8.71121 45.0475 8.95004 44.9925 9.17786C44.9375 9.40569 44.8181 9.61291 44.6486 9.77479L41.5871 12.7107Z" fill="#854C2C"/>
<path d="M42.576 5.80511C43.7088 5.82737 44.6452 4.92709 44.6674 3.79429C44.6897 2.66149 43.7894 1.72514 42.6566 1.70289C41.5238 1.68064 40.5874 2.58091 40.5652 3.71371C40.5429 4.84651 41.4432 5.78286 42.576 5.80511Z" fill="#FFB8B8"/>
<path d="M38.7161 40.1241L37.8686 40.1074L37.5293 36.8301L38.7803 36.8547L38.7161 40.1241Z" fill="#FFB8B8"/>
<path d="M39.1329 41.6016L38.5246 41.5897L38.4275 41.0137L38.1383 41.5821L36.526 41.5504C36.4486 41.549 36.3737 41.5229 36.3123 41.4759C36.2509 41.4289 36.2061 41.3634 36.1846 41.2891C36.1631 41.2147 36.1659 41.1355 36.1927 41.0629C36.2194 40.9903 36.2687 40.9282 36.3333 40.8857L37.6413 40.0214L37.6527 39.4415L39.0054 39.549L39.1329 41.6016Z" fill="#2F2E41"/>
<path d="M49.3553 39.6128L48.561 39.9104L47.0339 36.9902L48.2053 36.5502L49.3553 39.6128Z" fill="#FFB8B8"/>
<path d="M50.2923 40.8308L49.7227 41.0442L49.4192 40.5451L49.3611 41.18L47.8515 41.7468C47.7791 41.774 47.6999 41.7774 47.6255 41.7564C47.5511 41.7354 47.4853 41.6912 47.4378 41.6301C47.3904 41.5691 47.3637 41.4944 47.3617 41.4171C47.3597 41.3398 47.3825 41.2639 47.4267 41.2005L48.3195 39.915L48.115 39.3713L49.4139 38.9708L50.2923 40.8308Z" fill="#2F2E41"/>
<path d="M39.0721 38.6279L37.3187 38.5935L37.965 30.3641L37.7202 24.7725L37.7203 24.7682L39.1989 16.7928C39.3153 16.1634 39.6079 15.58 40.0428 15.1103L40.0595 15.0926L44.4603 16.2713L44.8852 17.2935C46.386 18.2267 46.7652 23.3278 46.7807 23.545L47.2988 29.9054L48.7178 37.7166L47.5988 38.2911L47.5806 38.2537L44.2215 31.2341L42.1578 23.8604L40.6146 30.43L39.0721 38.6279Z" fill="#2F2E41"/>
<path d="M45.1566 3.89921C45.1094 3.41955 45.0116 2.94621 44.8649 2.4871C44.7194 2.03036 44.4333 1.63131 44.0473 1.34697C43.7242 1.16875 43.3657 1.06418 42.9974 1.04072C42.6292 1.01727 42.2603 1.07553 41.9172 1.21131C41.3595 1.36178 40.8523 1.6588 40.4483 2.07155C40.2451 2.28526 40.0953 2.54383 40.0108 2.8263C39.9263 3.10877 39.9095 3.40719 39.9619 3.69733L42.2092 3.21214L42.1263 3.26818C42.3689 3.39552 42.5793 3.57631 42.7416 3.7969C42.904 4.01749 43.0141 4.27211 43.0636 4.5415C43.1113 4.81375 43.0979 5.09318 43.0245 5.35964C42.9511 5.6261 42.8195 5.87295 42.6392 6.08241L44.1769 5.57038C44.5075 5.49777 44.8051 5.3189 45.0244 5.06114C45.2062 4.70215 45.2531 4.28984 45.1566 3.89921V3.89921Z" fill="#2F2E41"/>
<path d="M0.76543 40.8285L57.0334 41.9338C57.0619 41.9344 57.0895 41.9236 57.11 41.9038C57.1306 41.884 57.1425 41.8569 57.143 41.8284C57.1436 41.7999 57.1328 41.7723 57.113 41.7517C57.0932 41.7312 57.0661 41.7193 57.0376 41.7187L0.769655 40.6134C0.741132 40.6129 0.713537 40.6237 0.692972 40.6435C0.672407 40.6632 0.660557 40.6904 0.659997 40.7189C0.659437 40.7474 0.670212 40.775 0.689985 40.7955C0.709757 40.8161 0.736907 40.828 0.76543 40.8285Z" fill="#CCCCCC"/>
</svg>
