<svg width="73" height="50" viewBox="0 0 73 50" fill="none" xmlns="http://www.w3.org/2000/svg">
<path d="M45.8806 27.6702C46.1318 27.6228 46.3543 27.4786 46.5001 27.2685C46.646 27.0585 46.7034 26.7996 46.66 26.5477C46.6504 26.492 46.6359 26.4373 46.6167 26.3841L49.259 24.1982L47.57 23.6839L45.32 25.8414C45.086 25.9474 44.9032 26.1413 44.811 26.3811C44.7188 26.6209 44.7247 26.8873 44.8275 27.1227C44.9146 27.3204 45.0664 27.4826 45.258 27.5825C45.4495 27.6825 45.6693 27.7143 45.8813 27.6728L45.8806 27.6702Z" fill="#FFB6B6"/>
<path d="M62.4421 43.8821L62.5784 41.7605C63.5733 41.2537 64.6768 40.9974 65.7932 41.0138C64.2319 42.2397 64.377 44.6646 63.3019 46.333C62.9625 46.8507 62.5111 47.2856 61.981 47.6053C61.4509 47.925 60.8557 48.1215 60.2395 48.1802L58.9386 48.9422C58.7815 47.9553 58.8401 46.9461 59.1106 45.9841C59.381 45.0221 59.8569 44.1302 60.5053 43.3698C60.8732 42.9469 61.2929 42.572 61.7545 42.2539C62.0466 43.0713 62.4421 43.8821 62.4421 43.8821Z" fill="#F2F2F2"/>
<path d="M59.0499 47.8502L57.8858 47.8273L57.4199 43.3262L59.1407 43.36L59.0499 47.8502Z" fill="#FFB6B6"/>
<path d="M59.3253 48.9842L55.5715 48.9104L55.5725 48.8631C55.5762 48.671 55.6178 48.4816 55.6948 48.3056C55.7718 48.1296 55.8827 47.9704 56.0212 47.8373C56.1597 47.7041 56.323 47.5996 56.5019 47.5296C56.6808 47.4596 56.8717 47.4254 57.0638 47.4292V47.4292L57.7622 46.9265L59.0315 47.4679L59.3593 47.4743L59.3253 48.9842Z" fill="#2F2E41"/>
<path d="M53.6417 47.744L52.4776 47.7211L52.0117 43.22L53.7325 43.2538L53.6417 47.744Z" fill="#FFB6B6"/>
<path d="M53.9151 48.878L50.1614 48.8042L50.1623 48.7569C50.1661 48.5648 50.2076 48.3754 50.2846 48.1994C50.3616 48.0234 50.4725 47.8642 50.611 47.7311C50.7495 47.5979 50.9128 47.4934 51.0917 47.4234C51.2706 47.3534 51.4616 47.3192 51.6537 47.323L52.3521 46.8203L53.6213 47.3617L53.9491 47.3681L53.9151 48.878Z" fill="#2F2E41"/>
<path d="M53.6197 23.1864L61.1872 23.5245C62.6104 24.3339 62.6013 26.025 62.0878 28.023C62.0878 28.023 62.2235 29.2194 61.8989 29.5306C61.5744 29.8418 61.4152 29.8396 61.5634 30.3994C61.7116 30.9591 60.8533 31.8486 60.9536 31.9564C61.0839 32.1679 61.1947 32.3908 61.2848 32.6222L60.4008 37.1399C60.4008 37.1399 59.6894 45.003 59.5271 45.1591C59.3648 45.3151 59.2088 45.1528 59.3602 45.5534C59.5115 45.954 59.6738 45.798 59.5115 45.9541C59.3677 46.1033 59.2319 46.2601 59.1047 46.4237L57.1817 46.386C57.1817 46.386 57.0528 45.5882 57.0544 45.5081C57.056 45.4281 56.9062 44.9483 56.9077 44.8683C56.9093 44.7883 57.0523 44.6508 57.0523 44.6508C57.1041 44.4902 57.1402 44.3248 57.1601 44.1572C57.1632 43.998 57.761 37.8859 57.761 37.8859L56.9631 29.9139L54.5033 37.6627C54.5033 37.6627 54.369 44.5026 54.2067 44.6586C54.0444 44.8147 54.046 44.7346 54.1197 45.0546C54.1935 45.3745 54.5125 45.3007 54.2695 45.5352C54.0265 45.7697 53.9543 45.3698 54.0265 45.7688L54.0979 46.1679L51.7114 46.1554C51.7114 46.1554 51.4062 45.4789 51.5701 45.2429C51.7339 45.0068 51.7232 45.0738 51.5364 44.6785C51.3497 44.2832 51.272 44.2033 51.3528 44.1249C51.4335 44.0464 51.4427 43.624 51.4427 43.624L51.9896 36.0219C51.9896 36.0219 52.2274 27.9902 52.2321 27.7519C52.2405 27.6292 52.2202 27.5062 52.1729 27.3927L52.1792 27.0692L52.5063 25.9274L53.6197 23.1864Z" fill="#2F2E41"/>
<path d="M45.8444 25.0812L47.1035 26.1388L54.1864 20.8684L53.9583 11.4487C53.5598 11.755 53.226 12.1372 52.9762 12.5733C52.7264 13.0094 52.5655 13.4907 52.5029 13.9893L51.2034 19.2829L45.8444 25.0812Z" fill="#E6E6E6"/>
<path d="M52.444 25.5416C54.9071 25.9058 57.2015 24.9938 59.3649 24.315C60.3418 24.008 61.3125 24.3679 62.2232 23.8341C61.9949 19.5564 62.3537 15.2677 63.2896 11.0874C63.3419 10.8277 63.298 10.5579 63.166 10.3282C63.034 10.0985 62.8229 9.92464 62.5722 9.83911L59.92 9.02185L59.117 8.10062L56.9865 8.59757L56.2185 9.92432L53.6346 11.595C53.4839 11.6925 53.3645 11.8315 53.2909 11.9953C53.2173 12.1591 53.1926 12.3406 53.2197 12.5181C53.9013 16.8645 53.6367 21.3068 52.444 25.5416V25.5416Z" fill="#E6E6E6"/>
<path d="M60.3008 26.8834C60.5296 26.7692 60.7043 26.5697 60.7873 26.3279C60.8703 26.0861 60.8549 25.8213 60.7444 25.5907C60.721 25.5399 60.6931 25.4913 60.6612 25.4453L62.6103 22.6192L60.8448 22.5845L59.2685 25.2742C59.0724 25.4401 58.9494 25.6765 58.9262 25.9323C58.903 26.1881 58.9814 26.4427 59.1444 26.6412C59.2817 26.8059 59.4706 26.9194 59.6805 26.9634C59.8903 27.0074 60.1089 26.9792 60.3008 26.8834V26.8834Z" fill="#FFB6B6"/>
<path d="M59.8197 24.2001L60.9459 25.7086L65.108 19.7612L64.8782 13.6311C64.8491 12.8502 64.623 12.0892 64.2208 11.4192C63.8186 10.7491 63.2535 10.1917 62.5779 9.79885V9.79885L62.4791 19.2121L59.8197 24.2001Z" fill="#E6E6E6"/>
<path d="M57.2374 7.71359C58.6663 7.74165 59.8473 6.60611 59.8754 5.17728C59.9034 3.74846 58.7679 2.56741 57.3391 2.53934C55.9102 2.51128 54.7292 3.64682 54.7011 5.07565C54.6731 6.50447 55.8086 7.68552 57.2374 7.71359Z" fill="#FFB6B6"/>
<path d="M55.6703 3.57514C55.7705 3.5778 55.8699 3.59276 55.9664 3.61968C56.1566 3.66932 56.35 3.70563 56.5452 3.72832C57.1431 3.79644 57.7008 4.06295 58.1294 4.48529C58.5579 4.90763 58.8326 5.46142 58.9094 6.05819C59.0625 5.93037 59.4089 5.69532 59.6867 5.92542C59.6867 5.92542 59.6934 5.93072 59.703 5.92574C60.0866 5.28503 60.2835 4.54988 60.2714 3.80323C60.2866 3.29486 60.2193 2.64456 59.8121 2.43172L59.7908 2.42012L59.7852 2.39677C59.76 2.2818 59.4575 2.08048 58.9271 1.91858C57.9637 1.62337 56.534 1.05735 55.7011 1.83283C55.6339 2.09833 55.4266 2.6649 55.2197 2.72624C54.9946 2.79326 54.7998 2.8514 54.7634 3.12525C54.7302 3.51557 54.7242 3.90774 54.7455 4.29889C54.8265 4.05928 54.9812 3.85143 55.1875 3.70509C55.3316 3.61401 55.4999 3.5687 55.6703 3.57514V3.57514Z" fill="#2F2E41"/>
<path d="M71.5431 49.241C71.5429 49.2539 71.5401 49.2666 71.5349 49.2784C71.5298 49.2902 71.5223 49.3009 71.5131 49.3098C71.5038 49.3187 71.4928 49.3257 71.4808 49.3304C71.4688 49.3351 71.456 49.3374 71.4431 49.3371L0.170412 47.9371C0.144399 47.9366 0.119652 47.9258 0.10162 47.907C0.0835873 47.8883 0.073734 47.8631 0.074245 47.8371C0.074756 47.8111 0.0855899 47.7863 0.104345 47.7683C0.1231 47.7503 0.148252 47.7404 0.174265 47.7409L71.447 49.141C71.473 49.1415 71.4977 49.1523 71.5158 49.171C71.5338 49.1898 71.5437 49.215 71.5431 49.241V49.241Z" fill="#CCCCCC"/>
<path d="M30.3375 9.27187L20.5837 11.2656C20.322 11.3194 20.0923 11.4749 19.9453 11.698C19.7982 11.9211 19.7458 12.1934 19.7995 12.4552L22.2341 24.3436L33.6947 22.0004C33.7888 21.9816 33.8754 21.9361 33.9443 21.8693L31.5271 10.057C31.5006 9.92729 31.4487 9.80414 31.3746 9.69451C31.3004 9.58487 31.2054 9.4909 31.095 9.418C30.9845 9.34509 30.8607 9.29468 30.7308 9.26961C30.6008 9.24454 30.4672 9.24529 30.3375 9.27187V9.27187Z" fill="#E6E6E6"/>
<path d="M26.781 10.8331L21.4353 11.9262C21.1975 11.9752 20.9887 12.1165 20.8549 12.319C20.721 12.5216 20.6729 12.769 20.7212 13.007L23.0063 24.1842L33.1845 22.1032L31.5205 13.9628C31.306 12.9198 30.6865 12.0045 29.798 11.4176C28.9095 10.8308 27.8245 10.6203 26.7811 10.8323L26.781 10.8331Z" fill="white"/>
<path d="M31.2481 21.4652L24.537 22.8362C24.4791 22.848 24.4282 22.8824 24.3956 22.9318C24.363 22.9812 24.3513 23.0416 24.3632 23.0995C24.375 23.1575 24.4095 23.2084 24.4589 23.241C24.5083 23.2736 24.5686 23.2853 24.6266 23.2734L31.3368 21.9016C31.3656 21.8957 31.3928 21.8842 31.4171 21.8678C31.4414 21.8514 31.4622 21.8304 31.4783 21.8059C31.4945 21.7814 31.5056 21.7541 31.5112 21.7253C31.5167 21.6965 31.5166 21.6669 31.5107 21.6382C31.5048 21.6095 31.4933 21.5822 31.4769 21.5579C31.4605 21.5336 31.4395 21.5129 31.415 21.4967C31.3905 21.4806 31.3632 21.4694 31.3344 21.4638C31.3056 21.4583 31.276 21.4584 31.2473 21.4643L31.2481 21.4652Z" fill="#E4E4E4"/>
<path d="M31.0701 20.6005L24.3598 21.9723C24.3035 21.986 24.2547 22.0209 24.2236 22.0698C24.1926 22.1187 24.1817 22.1778 24.1933 22.2345C24.2049 22.2913 24.2381 22.3413 24.2858 22.3742C24.3336 22.407 24.3922 22.42 24.4493 22.4104L31.1596 21.0386C31.2159 21.025 31.2647 20.99 31.2958 20.9411C31.3268 20.8922 31.3377 20.8332 31.3261 20.7764C31.3145 20.7196 31.2813 20.6696 31.2336 20.6368C31.1858 20.604 31.1272 20.5909 31.0701 20.6005V20.6005Z" fill="#E4E4E4"/>
<path d="M27.0915 20.5138L24.1827 21.1082C24.1247 21.1201 24.0738 21.1545 24.0412 21.2039C24.0086 21.2533 23.9969 21.3136 24.0088 21.3716C24.0207 21.4296 24.0551 21.4805 24.1045 21.5131C24.1539 21.5457 24.2142 21.5573 24.2722 21.5454L27.181 20.951C27.239 20.9392 27.2899 20.9047 27.3225 20.8553C27.3551 20.8059 27.3667 20.7456 27.3549 20.6876C27.343 20.6297 27.3086 20.5788 27.2592 20.5462C27.2098 20.5135 27.1495 20.5019 27.0915 20.5138Z" fill="#E4E4E4"/>
<path d="M30.5251 17.9253L23.8148 19.2972C23.7585 19.3108 23.7097 19.3458 23.6786 19.3947C23.6476 19.4436 23.6367 19.5026 23.6483 19.5594C23.6599 19.6162 23.6931 19.6662 23.7408 19.699C23.7886 19.7318 23.8472 19.7448 23.9043 19.7353L30.6146 18.3635C30.6443 18.3585 30.6726 18.3476 30.698 18.3315C30.7233 18.3153 30.7452 18.2943 30.7622 18.2695C30.7792 18.2447 30.7911 18.2168 30.797 18.1873C30.803 18.1578 30.803 18.1274 30.797 18.098C30.791 18.0685 30.7791 18.0406 30.762 18.0158C30.745 17.9911 30.7231 17.97 30.6977 17.9539C30.6723 17.9378 30.644 17.9269 30.6143 17.922C30.5846 17.9171 30.5543 17.9182 30.5251 17.9253V17.9253Z" fill="#E4E4E4"/>
<path d="M30.3469 17.061L23.6366 18.4328C23.5786 18.4447 23.5278 18.4791 23.4951 18.5285C23.4625 18.5779 23.4509 18.6382 23.4628 18.6962C23.4746 18.7542 23.5091 18.8051 23.5585 18.8377C23.6079 18.8703 23.6682 18.882 23.7262 18.8701L30.4364 17.4983C30.4651 17.4924 30.4924 17.4809 30.5167 17.4645C30.541 17.4481 30.5618 17.427 30.5779 17.4026C30.5941 17.3781 30.6053 17.3507 30.6108 17.322C30.6164 17.2932 30.6162 17.2636 30.6103 17.2349C30.6044 17.2062 30.593 17.1789 30.5765 17.1546C30.5601 17.1303 30.5391 17.1095 30.5146 17.0934C30.4902 17.0772 30.4628 17.0661 30.434 17.0605C30.4052 17.055 30.3756 17.0551 30.3469 17.061V17.061Z" fill="#E4E4E4"/>
<path d="M26.3673 16.9727L23.4586 17.5671C23.4023 17.5807 23.3535 17.6157 23.3224 17.6646C23.2913 17.7135 23.2805 17.7725 23.2921 17.8293C23.3037 17.8861 23.3368 17.9361 23.3846 17.9689C23.4323 18.0017 23.4909 18.0147 23.5481 18.0052L26.4569 17.4108C26.5132 17.3971 26.562 17.3622 26.593 17.3133C26.6241 17.2644 26.635 17.2053 26.6234 17.1486C26.6118 17.0918 26.5786 17.0418 26.5309 17.0089C26.4831 16.9761 26.4245 16.9631 26.3673 16.9727V16.9727Z" fill="#E4E4E4"/>
<path d="M29.8005 14.3844L23.0903 15.7563C23.034 15.7699 22.9852 15.8048 22.9541 15.8538C22.923 15.9027 22.9122 15.9617 22.9238 16.0185C22.9354 16.0752 22.9685 16.1253 23.0163 16.1581C23.064 16.1909 23.1226 16.2039 23.1798 16.1944L29.89 14.8225C29.9463 14.8089 29.9952 14.7739 30.0262 14.725C30.0573 14.6761 30.0682 14.6171 30.0566 14.5603C30.045 14.5035 30.0118 14.4535 29.964 14.4207C29.9163 14.3879 29.8577 14.3749 29.8005 14.3844V14.3844Z" fill="#E6E6E6"/>
<path d="M29.6249 13.5197L22.9147 14.8915C22.885 14.8965 22.8567 14.9074 22.8313 14.9235C22.8059 14.9397 22.7841 14.9608 22.7671 14.9855C22.75 15.0103 22.7382 15.0383 22.7322 15.0678C22.7262 15.0972 22.7263 15.1276 22.7323 15.157C22.7383 15.1865 22.7502 15.2144 22.7672 15.2392C22.7843 15.2639 22.8062 15.285 22.8316 15.3011C22.8569 15.3172 22.8853 15.3281 22.915 15.333C22.9446 15.3379 22.975 15.3368 23.0042 15.3297L29.7144 13.9579C29.7708 13.9442 29.8196 13.9093 29.8506 13.8604C29.8817 13.8114 29.8925 13.7524 29.881 13.6956C29.8694 13.6389 29.8362 13.5888 29.7885 13.556C29.7407 13.5232 29.6821 13.5102 29.6249 13.5197V13.5197Z" fill="#E6E6E6"/>
<path d="M25.6447 13.4314L22.7359 14.0258C22.6796 14.0395 22.6308 14.0744 22.5997 14.1233C22.5687 14.1722 22.5578 14.2313 22.5694 14.288C22.581 14.3448 22.6142 14.3949 22.6619 14.4277C22.7097 14.4605 22.7683 14.4735 22.8254 14.464L25.7342 13.8695C25.7905 13.8559 25.8393 13.8209 25.8704 13.772C25.9014 13.7231 25.9123 13.6641 25.9007 13.6073C25.8891 13.5505 25.8559 13.5005 25.8082 13.4677C25.7604 13.4349 25.7018 13.4219 25.6447 13.4314V13.4314Z" fill="#E6E6E6"/>
<path d="M10.6962 22.6255C10.6328 22.6243 10.5715 22.6483 10.5257 22.6923C10.48 22.7363 10.4536 22.7966 10.4523 22.86L9.9673 47.5525C9.96605 47.616 9.99008 47.6773 10.0341 47.7231C10.078 47.7688 10.1384 47.7952 10.2018 47.7964L41.1569 48.4045C41.2202 48.4055 41.2813 48.3814 41.3269 48.3374C41.3724 48.2935 41.3987 48.2333 41.3999 48.17L41.8071 27.4438C41.8083 27.3805 41.7844 27.3193 41.7406 27.2736C41.6968 27.2278 41.6367 27.2014 41.5734 27.1999L23.8069 26.8509C23.6265 26.8476 23.4538 26.7769 23.3227 26.6529L19.4002 22.9454C19.2989 22.8497 19.1656 22.7952 19.0262 22.7926L10.6962 22.6255Z" fill="#3F3D56"/>
<path d="M47.7675 16.8938L31.3325 9.44265C30.8918 9.2433 30.39 9.22692 29.9373 9.39714C29.4846 9.56736 29.1178 9.91026 28.9176 10.3506L19.8354 30.3822L39.1453 39.137C39.3036 39.2094 39.4794 39.2346 39.6517 39.2098L48.6746 19.3086C48.874 18.868 48.8905 18.3664 48.7204 17.9136C48.5504 17.4609 48.2077 17.0941 47.7675 16.8938Z" fill="#E6E6E6"/>
<path d="M40.8833 15.4006L31.8762 11.317C31.475 11.1356 31.0182 11.1207 30.606 11.2756C30.1938 11.4304 29.8598 11.7424 29.6773 12.1431L21.1384 30.9762L38.2857 38.752L44.5043 25.0367C45.2992 23.2784 45.3645 21.2765 44.6857 19.4702C44.0069 17.6638 42.6395 16.2003 40.8833 15.4006Z" fill="white"/>
<path d="M36.1243 35.7508L24.8173 30.6228C24.7196 30.5785 24.6083 30.5749 24.5079 30.6127C24.4075 30.6505 24.3262 30.7267 24.2819 30.8244C24.2376 30.9222 24.234 31.0334 24.2718 31.1338C24.3097 31.2343 24.3858 31.3156 24.4835 31.3599L35.7905 36.4879C35.8389 36.5098 35.8911 36.522 35.9442 36.5237C35.9973 36.5255 36.0503 36.5167 36.1 36.498C36.1497 36.4792 36.1953 36.4509 36.234 36.4146C36.2728 36.3783 36.304 36.3347 36.3259 36.2863C36.3479 36.2379 36.36 36.1856 36.3618 36.1325C36.3635 36.0794 36.3547 36.0265 36.336 35.9768C36.3173 35.9271 36.289 35.8815 36.2527 35.8427C36.2163 35.804 36.1727 35.7728 36.1243 35.7508V35.7508Z" fill="#E4E4E4"/>
<path d="M36.7866 34.2937L25.4796 29.1656C25.3824 29.1248 25.2731 29.1236 25.1749 29.1622C25.0767 29.2007 24.9975 29.276 24.9539 29.372C24.9104 29.468 24.906 29.5773 24.9416 29.6765C24.9773 29.7757 25.0502 29.8572 25.1449 29.9035L36.4519 35.0316C36.5492 35.0723 36.6585 35.0736 36.7566 35.035C36.8548 34.9965 36.9341 34.9212 36.9776 34.8252C37.0212 34.7291 37.0256 34.6199 36.9899 34.5207C36.9542 34.4214 36.8813 34.34 36.7866 34.2937V34.2937Z" fill="#E4E4E4"/>
<path d="M31.0407 29.9323L26.1396 27.7101C26.0912 27.6882 26.039 27.6761 25.9859 27.6743C25.9328 27.6726 25.8799 27.6813 25.8301 27.7001C25.7804 27.7188 25.7349 27.7471 25.6961 27.7835C25.6574 27.8198 25.6261 27.8634 25.6042 27.9118C25.5823 27.9602 25.5701 28.0124 25.5684 28.0655C25.5666 28.1186 25.5754 28.1716 25.5941 28.2213C25.6128 28.271 25.6412 28.3165 25.6775 28.3553C25.7138 28.3941 25.7574 28.4253 25.8058 28.4472L30.7069 30.6694C30.8046 30.7137 30.9159 30.7173 31.0164 30.6795C31.1168 30.6417 31.1981 30.5655 31.2423 30.4678C31.2866 30.3701 31.2902 30.2587 31.2524 30.1583C31.2146 30.0579 31.1384 29.9766 31.0407 29.9323Z" fill="#E4E4E4"/>
<path d="M38.8296 29.7849L27.5226 24.6568C27.4253 24.616 27.316 24.6148 27.2179 24.6534C27.1197 24.6919 27.0405 24.7672 26.9969 24.8632C26.9534 24.9593 26.9489 25.0685 26.9846 25.1677C27.0203 25.2669 27.0932 25.3484 27.1879 25.3947L38.4949 30.5228C38.5436 30.5466 38.5966 30.5604 38.6507 30.5634C38.7049 30.5664 38.759 30.5585 38.8101 30.5401C38.8611 30.5218 38.9079 30.4934 38.9478 30.4566C38.9876 30.4199 39.0197 30.3755 39.0421 30.3261C39.0645 30.2767 39.0768 30.2234 39.0782 30.1692C39.0796 30.115 39.0701 30.061 39.0502 30.0105C39.0304 29.9601 39.0007 29.9141 38.9628 29.8753C38.9249 29.8366 38.8796 29.8058 38.8296 29.7849V29.7849Z" fill="#E4E4E4"/>
<path d="M39.4896 28.3312L28.1826 23.2031C28.1342 23.1812 28.082 23.169 28.0289 23.1673C27.9757 23.1655 27.9228 23.1743 27.8731 23.193C27.8234 23.2117 27.7778 23.2401 27.7391 23.2764C27.7003 23.3127 27.6691 23.3563 27.6472 23.4047C27.6252 23.4531 27.6131 23.5054 27.6113 23.5585C27.6096 23.6116 27.6184 23.6645 27.6371 23.7142C27.6558 23.7639 27.6841 23.8095 27.7205 23.8482C27.7568 23.887 27.8004 23.9182 27.8488 23.9402L39.1558 29.0683C39.2535 29.1125 39.3648 29.1161 39.4652 29.0783C39.5656 29.0405 39.6469 28.9643 39.6912 28.8666C39.7355 28.7688 39.7391 28.6575 39.7013 28.5571C39.6634 28.4567 39.5873 28.3754 39.4896 28.3312Z" fill="#E4E4E4"/>
<path d="M33.7459 23.9656L28.8449 21.7434C28.7476 21.7027 28.6383 21.7015 28.5401 21.74C28.442 21.7786 28.3627 21.8538 28.3192 21.9499C28.2756 22.0459 28.2712 22.1551 28.3069 22.2544C28.3425 22.3536 28.4155 22.435 28.5102 22.4814L33.4112 24.7036C33.4599 24.7274 33.5129 24.7412 33.5671 24.7442C33.6212 24.7472 33.6754 24.7393 33.7264 24.7209C33.7775 24.7026 33.8243 24.6742 33.8641 24.6374C33.904 24.6007 33.9361 24.5563 33.9585 24.5069C33.9809 24.4575 33.9931 24.4041 33.9945 24.3499C33.9959 24.2957 33.9864 24.2418 33.9666 24.1913C33.9468 24.1409 33.917 24.0949 33.8791 24.0561C33.8412 24.0174 33.7959 23.9866 33.7459 23.9656Z" fill="#E4E4E4"/>
<path d="M41.5347 23.8183L30.2277 18.6902C30.179 18.6664 30.126 18.6526 30.0719 18.6496C30.0177 18.6466 29.9635 18.6546 29.9125 18.6729C29.8615 18.6912 29.8147 18.7196 29.7748 18.7564C29.7349 18.7931 29.7029 18.8375 29.6805 18.8869C29.6581 18.9363 29.6458 18.9897 29.6444 19.0439C29.643 19.0981 29.6525 19.152 29.6723 19.2025C29.6921 19.2529 29.7219 19.2989 29.7598 19.3377C29.7977 19.3764 29.843 19.4072 29.893 19.4282L41.2 24.5562C41.2487 24.5801 41.3017 24.5939 41.3558 24.5969C41.41 24.5998 41.4642 24.5919 41.5152 24.5736C41.5662 24.5553 41.613 24.5269 41.6529 24.4901C41.6928 24.4533 41.7248 24.4089 41.7472 24.3596C41.7696 24.3102 41.7819 24.2568 41.7833 24.2026C41.7847 24.1484 41.7752 24.0945 41.7554 24.044C41.7356 23.9935 41.7058 23.9476 41.6679 23.9088C41.63 23.87 41.5847 23.8393 41.5347 23.8183V23.8183Z" fill="#E9702D"/>
<path d="M42.1968 22.3608L30.8898 17.2327C30.8411 17.2089 30.7882 17.1951 30.734 17.1921C30.6799 17.1891 30.6257 17.197 30.5747 17.2154C30.5236 17.2337 30.4768 17.2621 30.437 17.2989C30.3971 17.3356 30.365 17.38 30.3426 17.4294C30.3202 17.4788 30.3079 17.5321 30.3065 17.5863C30.3052 17.6405 30.3147 17.6945 30.3345 17.7449C30.3543 17.7954 30.3841 17.8414 30.422 17.8802C30.4599 17.9189 30.5051 17.9497 30.5552 17.9706L41.8621 23.0987C41.9108 23.1226 41.9639 23.1364 42.018 23.1393C42.0721 23.1423 42.1263 23.1344 42.1773 23.1161C42.2283 23.0977 42.2751 23.0693 42.315 23.0326C42.3549 22.9958 42.3869 22.9514 42.4093 22.902C42.4317 22.8527 42.444 22.7993 42.4454 22.7451C42.4468 22.6909 42.4373 22.637 42.4175 22.5865C42.3977 22.536 42.368 22.49 42.33 22.4513C42.2921 22.4125 42.2468 22.3817 42.1968 22.3608V22.3608Z" fill="#E9702D"/>
<path d="M36.451 17.9998L31.55 15.7776C31.5013 15.7538 31.4483 15.74 31.3942 15.737C31.34 15.734 31.2858 15.7419 31.2348 15.7603C31.1838 15.7786 31.137 15.807 31.0971 15.8438C31.0573 15.8805 31.0252 15.9249 31.0028 15.9743C30.9804 16.0237 30.9681 16.077 30.9667 16.1313C30.9653 16.1855 30.9748 16.2394 30.9946 16.2899C31.0145 16.3403 31.0442 16.3863 31.0821 16.4251C31.12 16.4638 31.1653 16.4946 31.2153 16.5156L36.1164 18.7378C36.1651 18.7616 36.2181 18.7754 36.2722 18.7784C36.3264 18.7814 36.3806 18.7734 36.4316 18.7551C36.4826 18.7368 36.5294 18.7084 36.5693 18.6716C36.6091 18.6348 36.6412 18.5905 36.6636 18.5411C36.686 18.4917 36.6983 18.4383 36.6997 18.3841C36.7011 18.3299 36.6916 18.276 36.6718 18.2255C36.6519 18.175 36.6222 18.1291 36.5843 18.0903C36.5464 18.0515 36.5011 18.0208 36.451 17.9998V17.9998Z" fill="#E9702D"/>
<path d="M24.0211 23.7665L14.2673 25.7602C14.0056 25.814 13.7759 25.9695 13.6289 26.1926C13.4818 26.4157 13.4294 26.6881 13.4831 26.9498L15.9177 38.8382L27.3783 36.495C27.4724 36.4762 27.559 36.4307 27.6279 36.364L25.2107 24.5516C25.1841 24.4219 25.1323 24.2988 25.0582 24.1891C24.984 24.0795 24.889 23.9855 24.7786 23.9126C24.6681 23.8397 24.5443 23.7893 24.4144 23.7642C24.2844 23.7392 24.1508 23.7399 24.0211 23.7665Z" fill="#E6E6E6"/>
<path d="M20.4695 25.3282L15.1238 26.4212C14.8856 26.47 14.6765 26.6113 14.5425 26.8141C14.4084 27.0169 14.3604 27.2646 14.4088 27.5028L16.6939 38.68L26.8721 36.5991L25.2082 28.4586C24.9936 27.4157 24.3742 26.5004 23.4857 25.9135C22.5972 25.3266 21.5122 25.1161 20.4687 25.3281L20.4695 25.3282Z" fill="white"/>
<path d="M24.9337 35.9604L18.2226 37.3313C18.1646 37.3432 18.1137 37.3776 18.0811 37.427C18.0485 37.4763 18.0368 37.5367 18.0487 37.5947C18.0606 37.6527 18.095 37.7036 18.1444 37.7362C18.1938 37.7688 18.2541 37.7804 18.3121 37.7685L25.0224 36.3967C25.0511 36.3908 25.0784 36.3794 25.1026 36.363C25.1269 36.3466 25.1477 36.3255 25.1639 36.301C25.18 36.2766 25.1912 36.2492 25.1967 36.2204C25.2023 36.1916 25.2021 36.162 25.1962 36.1333C25.1904 36.1046 25.1789 36.0773 25.1625 36.0531C25.146 36.0288 25.125 36.008 25.1005 35.9918C25.0761 35.9757 25.0487 35.9645 25.0199 35.959C24.9912 35.9534 24.9616 35.9536 24.9328 35.9594L24.9337 35.9604Z" fill="#E4E4E4"/>
<path d="M24.7557 35.0953L18.0455 36.4671C18.0158 36.472 17.9874 36.4829 17.9621 36.4991C17.9367 36.5152 17.9149 36.5363 17.8979 36.5611C17.8809 36.5859 17.869 36.6139 17.863 36.6433C17.857 36.6728 17.8571 36.7031 17.8631 36.7326C17.8691 36.762 17.881 36.79 17.8981 36.8148C17.9151 36.8395 17.937 36.8606 17.9623 36.8767C17.9877 36.8928 18.0161 36.9036 18.0457 36.9085C18.0754 36.9134 18.1058 36.9123 18.135 36.9052L24.8452 35.5334C24.8749 35.5285 24.9032 35.5176 24.9286 35.5015C24.954 35.4853 24.9758 35.4642 24.9928 35.4394C25.0099 35.4147 25.0217 35.3867 25.0277 35.3572C25.0337 35.3278 25.0337 35.2974 25.0276 35.268C25.0216 35.2385 25.0097 35.2106 24.9927 35.1858C24.9756 35.161 24.9538 35.14 24.9284 35.1239C24.903 35.1077 24.8746 35.0969 24.8449 35.092C24.8153 35.0871 24.785 35.0882 24.7557 35.0953V35.0953Z" fill="#E4E4E4"/>
<path d="M20.779 35.0079L17.8702 35.6023C17.8122 35.6142 17.7613 35.6486 17.7287 35.698C17.6961 35.7474 17.6844 35.8077 17.6963 35.8657C17.7082 35.9237 17.7426 35.9746 17.792 36.0072C17.8414 36.0398 17.9017 36.0515 17.9597 36.0396L20.8685 35.4452C20.9265 35.4333 20.9774 35.3988 21.01 35.3494C21.0426 35.3 21.0542 35.2398 21.0424 35.1818C21.0305 35.1238 20.9961 35.0729 20.9467 35.0403C20.8973 35.0076 20.837 34.996 20.779 35.0079Z" fill="#E4E4E4"/>
<path d="M24.2089 32.4198L17.4986 33.7916C17.4689 33.7966 17.4406 33.8074 17.4152 33.8235C17.3899 33.8397 17.368 33.8608 17.351 33.8856C17.334 33.9104 17.3221 33.9383 17.3161 33.9678C17.3102 33.9973 17.3102 34.0276 17.3162 34.057C17.3222 34.0865 17.3341 34.1145 17.3512 34.1392C17.3682 34.164 17.3901 34.185 17.4155 34.2012C17.4408 34.2173 17.4692 34.2281 17.4989 34.233C17.5286 34.2379 17.5589 34.2368 17.5881 34.2297L24.2984 32.8579C24.328 32.8529 24.3564 32.8421 24.3817 32.8259C24.4071 32.8098 24.4289 32.7887 24.446 32.7639C24.463 32.7391 24.4748 32.7111 24.4808 32.6817C24.4868 32.6522 24.4868 32.6219 24.4808 32.5924C24.4747 32.563 24.4628 32.535 24.4458 32.5103C24.4287 32.4855 24.4069 32.4644 24.3815 32.4483C24.3561 32.4322 24.3277 32.4214 24.2981 32.4165C24.2684 32.4116 24.2381 32.4127 24.2089 32.4198V32.4198Z" fill="#E4E4E4"/>
<path d="M24.0344 31.5551L17.3241 32.927C17.2954 32.9329 17.2682 32.9443 17.2439 32.9608C17.2196 32.9772 17.1988 32.9982 17.1826 33.0227C17.1665 33.0471 17.1553 33.0746 17.1498 33.1033C17.1442 33.1321 17.1444 33.1617 17.1503 33.1904C17.1562 33.2191 17.1676 33.2464 17.1841 33.2706C17.2005 33.2949 17.2215 33.3158 17.246 33.3319C17.2704 33.348 17.2978 33.3592 17.3266 33.3647C17.3554 33.3703 17.385 33.3701 17.4137 33.3642L24.1239 31.9924C24.1526 31.9865 24.1799 31.9751 24.2042 31.9587C24.2285 31.9423 24.2493 31.9212 24.2654 31.8967C24.2816 31.8723 24.2928 31.8449 24.2983 31.8161C24.3039 31.7873 24.3037 31.7577 24.2978 31.729C24.2919 31.7003 24.2805 31.673 24.264 31.6488C24.2476 31.6245 24.2266 31.6037 24.2021 31.5875C24.1777 31.5714 24.1503 31.5602 24.1215 31.5547C24.0927 31.5491 24.0631 31.5493 24.0344 31.5551V31.5551Z" fill="#E4E4E4"/>
<path d="M20.055 31.4673L17.1462 32.0617C17.1165 32.0666 17.0882 32.0775 17.0628 32.0936C17.0374 32.1098 17.0156 32.1309 16.9986 32.1557C16.9815 32.1804 16.9697 32.2084 16.9637 32.2379C16.9578 32.2673 16.9578 32.2977 16.9638 32.3271C16.9698 32.3566 16.9817 32.3845 16.9987 32.4093C17.0158 32.434 17.0377 32.4551 17.0631 32.4712C17.0884 32.4873 17.1168 32.4982 17.1465 32.5031C17.1761 32.508 17.2065 32.5069 17.2357 32.4998L20.1445 31.9054C20.1741 31.9005 20.2025 31.8896 20.2278 31.8734C20.2532 31.8573 20.2751 31.8362 20.2921 31.8114C20.3091 31.7866 20.3209 31.7586 20.3269 31.7292C20.3329 31.6997 20.3329 31.6694 20.3269 31.6399C20.3208 31.6105 20.309 31.5825 20.2919 31.5577C20.2749 31.533 20.253 31.5119 20.2276 31.4958C20.2022 31.4797 20.1739 31.4689 20.1442 31.464C20.1145 31.4591 20.0842 31.4602 20.055 31.4673V31.4673Z" fill="#E4E4E4"/>
<path d="M23.486 28.8784L16.7757 30.2503C16.7194 30.2639 16.6706 30.2989 16.6396 30.3478C16.6085 30.3967 16.5976 30.4558 16.6092 30.5125C16.6208 30.5693 16.654 30.6193 16.7018 30.6521C16.7495 30.6849 16.8081 30.6979 16.8653 30.6884L23.5755 29.3166C23.6052 29.3116 23.6335 29.3008 23.6589 29.2846C23.6842 29.2685 23.7061 29.2474 23.7231 29.2226C23.7401 29.1978 23.752 29.1698 23.758 29.1404C23.764 29.1109 23.7639 29.0806 23.7579 29.0511C23.7519 29.0216 23.74 28.9937 23.723 28.9689C23.7059 28.9442 23.684 28.9231 23.6587 28.907C23.6333 28.8909 23.6049 28.8801 23.5752 28.8752C23.5456 28.8702 23.5152 28.8714 23.486 28.8784V28.8784Z" fill="#E6E6E6"/>
<path d="M23.3105 28.0144L16.6002 29.3862C16.5706 29.3911 16.5422 29.402 16.5168 29.4182C16.4915 29.4343 16.4696 29.4554 16.4526 29.4802C16.4356 29.505 16.4238 29.5329 16.4178 29.5624C16.4118 29.5918 16.4118 29.6222 16.4178 29.6517C16.4239 29.6811 16.4357 29.709 16.4528 29.7338C16.4698 29.7586 16.4917 29.7796 16.5171 29.7957C16.5425 29.8119 16.5708 29.8227 16.6005 29.8276C16.6302 29.8325 16.6605 29.8314 16.6897 29.8243L23.4 28.4525C23.4563 28.4388 23.5051 28.4039 23.5362 28.355C23.5672 28.3061 23.5781 28.247 23.5665 28.1903C23.5549 28.1335 23.5217 28.0835 23.474 28.0506C23.4262 28.0178 23.3676 28.0048 23.3105 28.0144V28.0144Z" fill="#E6E6E6"/>
<path d="M19.3282 27.9257L16.4194 28.5201C16.3631 28.5337 16.3143 28.5687 16.2832 28.6176C16.2522 28.6665 16.2413 28.7256 16.2529 28.7823C16.2645 28.8391 16.2977 28.8891 16.3454 28.922C16.3932 28.9548 16.4518 28.9678 16.509 28.9582L19.4177 28.3638C19.4474 28.3589 19.4757 28.348 19.5011 28.3318C19.5265 28.3157 19.5483 28.2946 19.5653 28.2698C19.5824 28.2451 19.5942 28.2171 19.6002 28.1876C19.6062 28.1582 19.6061 28.1278 19.6001 28.0983C19.5941 28.0689 19.5822 28.0409 19.5652 28.0162C19.5481 27.9914 19.5262 27.9704 19.5009 27.9543C19.4755 27.9381 19.4471 27.9273 19.4175 27.9224C19.3878 27.9175 19.3574 27.9186 19.3282 27.9257V27.9257Z" fill="#E6E6E6"/>
<path d="M10.3622 29.1061C10.3308 29.1054 10.2996 29.1109 10.2704 29.1222C10.2411 29.1336 10.2144 29.1506 10.1918 29.1723C10.1691 29.194 10.151 29.22 10.1384 29.2487C10.1258 29.2775 10.119 29.3084 10.1183 29.3398C10.1182 29.3484 9.76473 47.7362 9.76473 47.7362C9.77016 47.7947 9.79695 47.8491 9.84001 47.889C9.88306 47.9289 9.93934 47.9516 9.99804 47.9526L43.2512 48.6058C43.3099 48.6071 43.367 48.5867 43.4116 48.5485C43.4562 48.5103 43.4851 48.457 43.4928 48.3988L45.9237 30.0698C45.9281 30.0364 45.9254 30.0026 45.9158 29.9703C45.9062 29.9381 45.8899 29.9083 45.868 29.8828C45.8462 29.857 45.8192 29.8363 45.7888 29.8219C45.7583 29.8075 45.7251 29.7998 45.6914 29.7993L10.3622 29.1061Z" fill="#3F3D56"/>
<path d="M12.6926 30.1701C12.3553 30.1645 12.0294 30.2919 11.7852 30.5246C11.541 30.7573 11.3981 31.0768 11.3874 31.4139L11.1488 45.665C11.1441 45.8339 11.173 46.0021 11.2336 46.1599C11.2943 46.3177 11.3855 46.4619 11.5022 46.5842C11.6189 46.7065 11.7586 46.8045 11.9133 46.8726C12.068 46.9406 12.2347 46.9774 12.4037 46.9807L33.5128 47.3953C35.9336 47.4444 38.2876 46.5992 40.1244 45.0215C41.9612 43.4437 43.1519 41.2442 43.4686 38.8436L44.3476 32.2146C44.3714 32.0359 44.3571 31.8541 44.3058 31.6813C44.2544 31.5084 44.1671 31.3484 44.0497 31.2116C43.9322 31.0748 43.7871 30.9644 43.624 30.8875C43.4609 30.8107 43.2834 30.7692 43.1031 30.7657L12.6926 30.1701ZM45.0423 30.8055L45.044 30.7194L45.0423 30.8055Z" fill="#E9702D"/>
<path d="M21.7024 41.0277L13.5289 40.8672C13.4443 40.8655 13.3639 40.8303 13.3053 40.7694C13.2467 40.7084 13.2147 40.6267 13.2164 40.5421C13.2181 40.4576 13.2532 40.3772 13.3142 40.3186C13.3751 40.26 13.4569 40.228 13.5414 40.2296L21.7149 40.3902C21.7994 40.3919 21.8799 40.427 21.9385 40.488C21.9971 40.549 22.0291 40.6307 22.0274 40.7152C22.0257 40.7998 21.9906 40.8802 21.9296 40.9388C21.8687 40.9974 21.7869 41.0294 21.7024 41.0277V41.0277Z" fill="#E4E4E4"/>
<path d="M32.6829 42.9105L13.4898 42.5335C13.4053 42.5318 13.3249 42.4966 13.2663 42.4357C13.2077 42.3747 13.1757 42.2929 13.1773 42.2084C13.179 42.1239 13.2142 42.0435 13.2751 41.9848C13.3361 41.9262 13.4178 41.8942 13.5024 41.8959L32.6954 42.2729C32.7799 42.2746 32.8604 42.3098 32.919 42.3707C32.9776 42.4317 33.0096 42.5134 33.0079 42.5979C33.0063 42.6825 32.9711 42.7629 32.9101 42.8215C32.8492 42.8801 32.7674 42.9121 32.6829 42.9105V42.9105Z" fill="#E4E4E4"/>
</svg>
